<svg width="133" height="133" viewBox="0 0 133 133" fill="none" xmlns="http://www.w3.org/2000/svg">
<mask id="mask0_232_29" style="mask-type:alpha" maskUnits="userSpaceOnUse" x="0" y="0" width="133" height="133">
<circle cx="66.4442" cy="66.4443" r="65.92" transform="rotate(0.457523 66.4442 66.4443)" fill="#C4C4C4"/>
</mask>
<g mask="url(#mask0_232_29)">
<rect width="162" height="204" transform="matrix(1 0 0 -1 -15 175)" fill="black"/>
<path d="M22.0625 47.7384L16.8021 63H11.3686L6.08659 47.7384H10.6326L14.0962 58.7571L17.5382 47.7384H22.0625ZM33.5806 51.1371V53.6266H38.4513V56.8521H33.5806V59.6013H39.1007V63H29.3376V47.7384H39.1007V51.1371H33.5806ZM46.6308 55.3368C46.6308 53.8359 46.9411 52.5009 47.5617 51.3319C48.1967 50.1485 49.0914 49.2321 50.246 48.5827C51.4005 47.9188 52.7282 47.5869 54.2291 47.5869C56.1341 47.5869 57.736 48.0992 59.0349 49.1239C60.3338 50.1341 61.1708 51.5123 61.546 53.2586H56.9784C56.7042 52.6813 56.3217 52.2411 55.8311 51.9381C55.3548 51.635 54.7992 51.4835 54.1642 51.4835C53.1828 51.4835 52.3963 51.8371 51.8046 52.5442C51.2273 53.2369 50.9387 54.1678 50.9387 55.3368C50.9387 56.5202 51.2273 57.4654 51.8046 58.1726C52.3963 58.8653 53.1828 59.2117 54.1642 59.2117C54.7992 59.2117 55.3548 59.0601 55.8311 58.7571C56.3217 58.454 56.7042 58.0138 56.9784 57.4366H61.546C61.1708 59.1828 60.3338 60.5683 59.0349 61.5929C57.736 62.6031 56.1341 63.1082 54.2291 63.1082C52.7282 63.1082 51.4005 62.7835 50.246 62.1341C49.0914 61.4702 48.1967 60.5538 47.5617 59.3849C46.9411 58.2015 46.6308 56.8521 46.6308 55.3368ZM81.0031 47.7384V51.1155H76.9334V63H72.6905V51.1155H68.664V47.7384H81.0031ZM95.8429 63.1515C94.4142 63.1515 93.1009 62.8196 91.903 62.1557C90.7052 61.4775 89.7527 60.5466 89.0456 59.3632C88.3528 58.1654 88.0065 56.816 88.0065 55.3151C88.0065 53.8142 88.3528 52.4721 89.0456 51.2887C89.7527 50.0908 90.7052 49.16 91.903 48.4961C93.1009 47.8323 94.4142 47.5003 95.8429 47.5003C97.2861 47.5003 98.5994 47.8323 99.7828 48.4961C100.981 49.16 101.926 50.0908 102.619 51.2887C103.311 52.4721 103.658 53.8142 103.658 55.3151C103.658 56.816 103.311 58.1654 102.619 59.3632C101.926 60.5466 100.981 61.4775 99.7828 62.1557C98.5849 62.8196 97.2717 63.1515 95.8429 63.1515ZM95.8429 59.2117C96.9253 59.2117 97.7768 58.8581 98.3973 58.1509C99.0323 57.4438 99.3498 56.4985 99.3498 55.3151C99.3498 54.1028 99.0323 53.1503 98.3973 52.4576C97.7768 51.7505 96.9253 51.3969 95.8429 51.3969C94.7461 51.3969 93.8874 51.7505 93.2668 52.4576C92.6463 53.1503 92.336 54.1028 92.336 55.3151C92.336 56.5129 92.6463 57.4654 93.2668 58.1726C93.8874 58.8653 94.7461 59.2117 95.8429 59.2117ZM119.246 63L116.216 57.3716H115.761V63H111.518V47.7384H118.207C119.434 47.7384 120.473 47.9549 121.324 48.3879C122.176 48.8064 122.818 49.3909 123.251 50.1413C123.684 50.8773 123.901 51.7072 123.901 52.6308C123.901 53.6699 123.612 54.5863 123.035 55.38C122.472 56.1594 121.642 56.715 120.545 57.0469L123.987 63H119.246ZM115.761 54.4708H117.861C118.438 54.4708 118.871 54.3337 119.16 54.0595C119.448 53.7853 119.593 53.3885 119.593 52.8689C119.593 52.3782 119.441 51.9958 119.138 51.7216C118.849 51.433 118.424 51.2887 117.861 51.2887H115.761V54.4708Z" fill="white"/>
<path d="M6.51954 76.917C6.51954 75.6615 6.77931 74.5647 7.29886 73.6266C7.8184 72.6885 8.53998 71.9669 9.46361 71.4618C10.4017 70.9567 11.4696 70.7042 12.6675 70.7042C14.2117 70.7042 15.5105 71.1299 16.564 71.9814C17.6175 72.8184 18.2958 73.9946 18.5989 75.5099H14.0962C13.8364 74.7162 13.3313 74.3193 12.5809 74.3193C12.0469 74.3193 11.6212 74.543 11.3037 74.9904C11.0006 75.4233 10.8491 76.0656 10.8491 76.917C10.8491 77.7685 11.0006 78.4179 11.3037 78.8653C11.6212 79.3127 12.0469 79.5364 12.5809 79.5364C13.3457 79.5364 13.8509 79.1395 14.0962 78.3458H18.5989C18.2958 79.8467 17.6175 81.0229 16.564 81.8743C15.5105 82.7258 14.2117 83.1515 12.6675 83.1515C11.4696 83.1515 10.4017 82.899 9.46361 82.3939C8.53998 81.8888 7.8184 81.1672 7.29886 80.2291C6.77931 79.291 6.51954 78.187 6.51954 76.917ZM24.7126 66.9808V83H20.4697V66.9808H24.7126ZM26.5444 76.917C26.5444 75.6615 26.7681 74.5647 27.2155 73.6266C27.6773 72.6885 28.2979 71.9669 29.0772 71.4618C29.8709 70.9567 30.7513 70.7042 31.7182 70.7042C32.5552 70.7042 33.2768 70.8701 33.8829 71.2021C34.4891 71.534 34.9581 71.9814 35.29 72.5442V70.8557H39.533V83H35.29V81.3115C34.9581 81.8743 34.4819 82.3217 33.8613 82.6536C33.2552 82.9856 32.5408 83.1515 31.7182 83.1515C30.7513 83.1515 29.8709 82.899 29.0772 82.3939C28.2979 81.8888 27.6773 81.1672 27.2155 80.2291C26.7681 79.2766 26.5444 78.1726 26.5444 76.917ZM35.29 76.917C35.29 76.1377 35.0736 75.5244 34.6406 75.077C34.2221 74.6296 33.7025 74.4059 33.082 74.4059C32.447 74.4059 31.9202 74.6296 31.5017 75.077C31.0832 75.5099 30.8739 76.1233 30.8739 76.917C30.8739 77.6963 31.0832 78.3169 31.5017 78.7787C31.9202 79.2261 32.447 79.4498 33.082 79.4498C33.7025 79.4498 34.2221 79.2261 34.6406 78.7787C35.0736 78.3313 35.29 77.7108 35.29 76.917ZM47.2327 83.1515C46.1359 83.1515 45.1546 82.9711 44.2887 82.6103C43.4372 82.2351 42.7589 81.73 42.2538 81.095C41.7631 80.4456 41.4889 79.7168 41.4312 78.9086H45.5442C45.602 79.2983 45.7823 79.6013 46.0854 79.8178C46.3885 80.0343 46.7637 80.1425 47.2111 80.1425C47.5575 80.1425 47.8317 80.0704 48.0337 79.926C48.2357 79.7817 48.3368 79.5941 48.3368 79.3632C48.3368 79.0601 48.1708 78.8364 47.8389 78.6921C47.5069 78.5478 46.9585 78.3891 46.1937 78.2159C45.3277 78.0427 44.6062 77.8479 44.0289 77.6314C43.4516 77.4149 42.9465 77.0613 42.5136 76.5707C42.095 76.08 41.8858 75.4161 41.8858 74.5791C41.8858 73.8575 42.0806 73.2081 42.4703 72.6308C42.8599 72.0391 43.43 71.5701 44.1804 71.2237C44.9453 70.8773 45.8617 70.7042 46.9297 70.7042C48.5172 70.7042 49.7655 71.0938 50.6747 71.8731C51.5839 72.6525 52.1107 73.6771 52.255 74.9471H48.4234C48.3512 74.5574 48.178 74.2616 47.9038 74.0595C47.644 73.8431 47.2905 73.7348 46.8431 73.7348C46.4967 73.7348 46.2297 73.7998 46.0421 73.9297C45.8689 74.0595 45.7823 74.2399 45.7823 74.4708C45.7823 74.7595 45.9483 74.9832 46.2802 75.1419C46.6122 75.2862 47.1461 75.4378 47.8822 75.5965C48.7625 75.7841 49.4913 75.9934 50.0686 76.2243C50.6603 76.4552 51.1726 76.8304 51.6056 77.35C52.0529 77.8551 52.2766 78.5478 52.2766 79.4281C52.2766 80.1353 52.0674 80.7703 51.6488 81.3331C51.2448 81.896 50.6603 82.3434 49.8954 82.6753C49.1449 82.9928 48.2574 83.1515 47.2327 83.1515ZM59.6446 83.1515C58.5478 83.1515 57.5664 82.9711 56.7005 82.6103C55.849 82.2351 55.1707 81.73 54.6656 81.095C54.175 80.4456 53.9008 79.7168 53.843 78.9086H57.9561C58.0138 79.2983 58.1942 79.6013 58.4973 79.8178C58.8003 80.0343 59.1756 80.1425 59.6229 80.1425C59.9693 80.1425 60.2435 80.0704 60.4455 79.926C60.6476 79.7817 60.7486 79.5941 60.7486 79.3632C60.7486 79.0601 60.5826 78.8364 60.2507 78.6921C59.9188 78.5478 59.3704 78.3891 58.6055 78.2159C57.7396 78.0427 57.018 77.8479 56.4407 77.6314C55.8635 77.4149 55.3584 77.0613 54.9254 76.5707C54.5069 76.08 54.2976 75.4161 54.2976 74.5791C54.2976 73.8575 54.4925 73.2081 54.8821 72.6308C55.2718 72.0391 55.8418 71.5701 56.5923 71.2237C57.3572 70.8773 58.2736 70.7042 59.3415 70.7042C60.929 70.7042 62.1774 71.0938 63.0866 71.8731C63.9957 72.6525 64.5225 73.6771 64.6668 74.9471H60.8352C60.763 74.5574 60.5899 74.2616 60.3157 74.0595C60.0559 73.8431 59.7023 73.7348 59.2549 73.7348C58.9086 73.7348 58.6416 73.7998 58.454 73.9297C58.2808 74.0595 58.1942 74.2399 58.1942 74.4708C58.1942 74.7595 58.3602 74.9832 58.6921 75.1419C59.024 75.2862 59.558 75.4378 60.294 75.5965C61.1743 75.7841 61.9031 75.9934 62.4804 76.2243C63.0721 76.4552 63.5844 76.8304 64.0174 77.35C64.4648 77.8551 64.6885 78.5478 64.6885 79.4281C64.6885 80.1353 64.4792 80.7703 64.0607 81.3331C63.6566 81.896 63.0721 82.3434 62.3072 82.6753C61.5568 82.9928 60.6692 83.1515 59.6446 83.1515ZM71.1256 72.9988C71.6018 72.3061 72.1791 71.7577 72.8574 71.3536C73.5357 70.9495 74.2645 70.7475 75.0438 70.7475V75.2718H73.8532C72.9296 75.2718 72.244 75.4522 71.7967 75.813C71.3493 76.1738 71.1256 76.8016 71.1256 77.6963V83H66.8827V70.8557H71.1256V72.9988ZM82.3231 83.1515C81.1109 83.1515 80.0213 82.899 79.0544 82.3939C78.1019 81.8888 77.3514 81.1672 76.803 80.2291C76.2546 79.291 75.9804 78.187 75.9804 76.917C75.9804 75.6615 76.2546 74.5647 76.803 73.6266C77.3658 72.6885 78.1235 71.9669 79.076 71.4618C80.0429 70.9567 81.1325 70.7042 82.3448 70.7042C83.5571 70.7042 84.6394 70.9567 85.5919 71.4618C86.5589 71.9669 87.3165 72.6885 87.8649 73.6266C88.4278 74.5647 88.7092 75.6615 88.7092 76.917C88.7092 78.1726 88.4278 79.2766 87.8649 80.2291C87.3165 81.1672 86.5589 81.8888 85.5919 82.3939C84.625 82.899 83.5354 83.1515 82.3231 83.1515ZM82.3231 79.4714C82.9148 79.4714 83.4055 79.255 83.7952 78.822C84.1993 78.3746 84.4013 77.7396 84.4013 76.917C84.4013 76.0944 84.1993 75.4666 83.7952 75.0337C83.4055 74.6007 82.9221 74.3843 82.3448 74.3843C81.7675 74.3843 81.2841 74.6007 80.8944 75.0337C80.5047 75.4666 80.3099 76.0944 80.3099 76.917C80.3099 77.7541 80.4975 78.3891 80.8728 78.822C81.248 79.255 81.7314 79.4714 82.3231 79.4714ZM96.1937 83.1515C94.9814 83.1515 93.8918 82.899 92.9249 82.3939C91.9724 81.8888 91.2219 81.1672 90.6735 80.2291C90.1251 79.291 89.8509 78.187 89.8509 76.917C89.8509 75.6615 90.1251 74.5647 90.6735 73.6266C91.2364 72.6885 91.994 71.9669 92.9465 71.4618C93.9134 70.9567 95.003 70.7042 96.2153 70.7042C97.4276 70.7042 98.51 70.9567 99.4624 71.4618C100.429 71.9669 101.187 72.6885 101.735 73.6266C102.298 74.5647 102.58 75.6615 102.58 76.917C102.58 78.1726 102.298 79.2766 101.735 80.2291C101.187 81.1672 100.429 81.8888 99.4624 82.3939C98.4955 82.899 97.4059 83.1515 96.1937 83.1515ZM96.1937 79.4714C96.7854 79.4714 97.276 79.255 97.6657 78.822C98.0698 78.3746 98.2718 77.7396 98.2718 76.917C98.2718 76.0944 98.0698 75.4666 97.6657 75.0337C97.276 74.6007 96.7926 74.3843 96.2153 74.3843C95.638 74.3843 95.1546 74.6007 94.7649 75.0337C94.3753 75.4666 94.1804 76.0944 94.1804 76.917C94.1804 77.7541 94.368 78.3891 94.7433 78.822C95.1185 79.255 95.602 79.4714 96.1937 79.4714ZM120.282 70.7475C121.812 70.7475 123.009 71.2093 123.875 72.1329C124.756 73.0565 125.196 74.3193 125.196 75.9212V83H120.953V76.4841C120.953 75.8346 120.773 75.3295 120.412 74.9687C120.051 74.608 119.56 74.4276 118.94 74.4276C118.319 74.4276 117.828 74.608 117.468 74.9687C117.107 75.3295 116.926 75.8346 116.926 76.4841V83H112.684V76.4841C112.684 75.8346 112.503 75.3295 112.142 74.9687C111.796 74.608 111.313 74.4276 110.692 74.4276C110.057 74.4276 109.559 74.608 109.198 74.9687C108.837 75.3295 108.657 75.8346 108.657 76.4841V83H104.414V70.8557H108.657V72.4576C109.032 71.9381 109.516 71.5268 110.107 71.2237C110.714 70.9062 111.406 70.7475 112.186 70.7475C113.08 70.7475 113.874 70.9423 114.567 71.3319C115.274 71.7216 115.83 72.27 116.234 72.9772C116.667 72.3133 117.237 71.7793 117.944 71.3752C118.651 70.9567 119.43 70.7475 120.282 70.7475Z" fill="#6C63FF"/>
</g>
</svg>
