<svg width="895" height="631" viewBox="0 0 895 631" fill="none" xmlns="http://www.w3.org/2000/svg">
<path d="M93.0762 17H80.7527V27H93.0762V17Z" fill="#6C63FF"/>
<path d="M116.696 33H105.4V43H116.696V33Z" fill="#6C63FF"/>
<path d="M93.0762 96H80.7527V106H93.0762V96Z" fill="#6C63FF"/>
<path d="M71.51 33H59.1864V43H71.51V33Z" fill="#6C63FF"/>
<path d="M30.4314 131H19.1348V142H30.4314V131Z" fill="#6C63FF"/>
<path d="M95.1301 5H78.6987V7H95.1301V5Z" fill="#6C63FF"/>
<path d="M30.4314 71H14V73H30.4314V71Z" fill="#6C63FF"/>
<path d="M30.4314 86H14V87H30.4314V86Z" fill="#6C63FF"/>
<path d="M19.1348 2V4.24982H23.6528V8.75018H19.1348V11H30.4314V2H19.1348Z" fill="#6C63FF"/>
<path d="M105.4 0V2.5004H109.918V7.50041H105.4V10H116.696V0H105.4Z" fill="#6C63FF"/>
<path d="M105.4 50V52.4998H109.918V57.5002H105.4V60H116.696V50H105.4Z" fill="#6C63FF"/>
<path d="M105.4 67V69.5004H109.918V74.5004H105.4V77H116.696V67H105.4Z" fill="#6C63FF"/>
<path d="M105.4 16V18.4996H109.918V23.4996H105.4V26H116.696V16H105.4Z" fill="#6C63FF"/>
<path d="M93.0762 50H80.7527V60H93.0762V50Z" fill="#6C63FF"/>
<path d="M93.0762 81H80.7527V90H93.0762V81Z" fill="#6C63FF"/>
<path d="M80.7527 65V67.7496H85.6824V73.2495H80.7527V76H93.0762V65H80.7527Z" fill="#6C63FF"/>
<path d="M59.1864 0V2.5004H64.1152V7.50041H59.1864V10H71.51V0H59.1864Z" fill="#6C63FF"/>
<path d="M59.1864 17V19.5004H64.1152V24.4996H59.1864V27H71.51V17H59.1864Z" fill="#6C63FF"/>
<path d="M71.51 67H59.1864V77H71.51V67Z" fill="#6C63FF"/>
<path d="M59.1864 50V52.4998H64.1152V57.5002H59.1864V60H71.51V50H59.1864Z" fill="#6C63FF"/>
<path d="M71.51 100H59.1864V110H71.51V100Z" fill="#6C63FF"/>
<path d="M59.1864 83V85.4996H64.1152V90.4996H59.1864V93H71.51V83H59.1864Z" fill="#6C63FF"/>
<path d="M71.51 133H59.1864V143H71.51V133Z" fill="#6C63FF"/>
<path d="M93.0762 130H80.7527V141H93.0762V130Z" fill="#6C63FF"/>
<path d="M59.1864 117V119.25H64.1152V123.75H59.1864V126H71.51V117H59.1864Z" fill="#6C63FF"/>
<path d="M105.4 117V119.25H109.918V123.75H105.4V126H116.696V117H105.4Z" fill="#6C63FF"/>
<path d="M238.905 33H226.581V43H238.905V33Z" fill="#6C63FF"/>
<path d="M226.581 0V2.5004H231.512V7.50041H226.581V10H238.905V0H226.581Z" fill="#6C63FF"/>
<path d="M226.581 50V52.4998H231.512V57.5002H226.581V60H238.905V50H226.581Z" fill="#6C63FF"/>
<path d="M226.581 67V69.5004H231.512V74.5004H226.581V77H238.905V67H226.581Z" fill="#6C63FF"/>
<path d="M226.581 16V18.4996H231.512V23.4996H226.581V26H238.905V16H226.581Z" fill="#6C63FF"/>
<path d="M226.581 117V119.25H231.512V123.75H226.581V126H238.905V117H226.581Z" fill="#6C63FF"/>
<path d="M93.0762 147H80.7527V157H93.0762V147Z" fill="#6C63FF"/>
<path d="M59.1864 150V152.5H64.1152V157.5H59.1864V160H71.51V150H59.1864Z" fill="#6C63FF"/>
<path d="M202.961 33H190.638V43H202.961V33Z" fill="#6C63FF"/>
<path d="M190.638 0V2.5004H195.568V7.50041H190.638V10H202.961V0H190.638Z" fill="#6C63FF"/>
<path d="M190.638 17V19.5004H195.568V24.4996H190.638V27H202.961V17H190.638Z" fill="#6C63FF"/>
<path d="M202.961 67H190.638V77H202.961V67Z" fill="#6C63FF"/>
<path d="M190.638 50V52.4998H195.568V57.5002H190.638V60H202.961V50H190.638Z" fill="#6C63FF"/>
<path d="M202.961 100H190.638V110H202.961V100Z" fill="#6C63FF"/>
<path d="M190.638 83V85.4996H195.568V90.4996H190.638V93H202.961V83H190.638Z" fill="#6C63FF"/>
<path d="M202.961 133H190.638V143H202.961V133Z" fill="#6C63FF"/>
<path d="M190.638 117V119.25H195.568V123.75H190.638V126H202.961V117H190.638Z" fill="#6C63FF"/>
<path d="M190.638 150V152.5H195.568V157.5H190.638V160H202.961V150H190.638Z" fill="#6C63FF"/>
<path d="M260.471 33H248.148V43H260.471V33Z" fill="#6C63FF"/>
<path d="M248.148 0V2.5004H253.078V7.50041H248.148V10H260.471V0H248.148Z" fill="#6C63FF"/>
<path d="M248.148 17V19.5004H253.078V24.4996H248.148V27H260.471V17H248.148Z" fill="#6C63FF"/>
<path d="M260.471 67H248.148V77H260.471V67Z" fill="#6C63FF"/>
<path d="M248.148 50V52.4998H253.078V57.5002H248.148V60H260.471V50H248.148Z" fill="#6C63FF"/>
<path d="M260.471 100H248.148V110H260.471V100Z" fill="#6C63FF"/>
<path d="M248.148 83V85.4996H253.078V90.4996H248.148V93H260.471V83H248.148Z" fill="#6C63FF"/>
<path d="M260.471 133H248.148V143H260.471V133Z" fill="#6C63FF"/>
<path d="M248.148 117V119.25H253.078V123.75H248.148V126H260.471V117H248.148Z" fill="#6C63FF"/>
<path d="M248.148 150V152.5H253.078V157.5H248.148V160H260.471V150H248.148Z" fill="#6C63FF"/>
<path d="M19.1348 33V35.4996H23.6528V40.4996H19.1348V43H30.4314V33H19.1348Z" fill="#6C63FF"/>
<path d="M19.1348 98V100.75H23.6528V106.25H19.1348V109H30.4314V98H19.1348Z" fill="#6C63FF"/>
<path d="M19.1348 115V117.5H23.6528V122.5H19.1348V125H30.4314V115H19.1348Z" fill="#6C63FF"/>
<path d="M19.1348 148V150.5H23.6528V155.5H19.1348V158H30.4314V148H19.1348Z" fill="#6C63FF"/>
<path d="M155.721 71H138.263V73H155.721V71Z" fill="#6C63FF"/>
<path d="M155.721 86H138.263V87H155.721V86Z" fill="#6C63FF"/>
<path d="M143.397 2V4.24982H148.326V8.75018H143.397V11H155.721V2H143.397Z" fill="#6C63FF"/>
<path d="M143.397 33V35.4996H148.326V40.4996H143.397V43H155.721V33H143.397Z" fill="#6C63FF"/>
<path d="M143.397 98V100.75H148.326V106.25H143.397V109H155.721V98H143.397Z" fill="#6C63FF"/>
<path d="M291.28 67H279.984V77H291.28V67Z" fill="#6C63FF"/>
<path d="M291.28 83H279.984V93H291.28V83Z" fill="#6C63FF"/>
<path d="M291.28 101H274.849V103H291.28V101Z" fill="#6C63FF"/>
<path d="M279.984 112V114.75H284.502V120.25H279.984V123H291.28V112H279.984Z" fill="#6C63FF"/>
<path d="M279.984 144V146.75H284.502V152.25H279.984V155H291.28V144H279.984Z" fill="#6C63FF"/>
<path d="M391.923 17H380.626V27H391.923V17Z" fill="#6C63FF"/>
<path d="M416.57 33H404.246V43H416.57V33Z" fill="#6C63FF"/>
<path d="M391.923 96H380.626V106H391.923V96Z" fill="#6C63FF"/>
<path d="M370.356 33H359.06V43H370.356V33Z" fill="#6C63FF"/>
<path d="M330.305 131H317.981V142H330.305V131Z" fill="#6C63FF"/>
<path d="M395.004 5H377.545V7H395.004V5Z" fill="#6C63FF"/>
<path d="M330.305 71H312.846V73H330.305V71Z" fill="#6C63FF"/>
<path d="M330.305 86H312.846V87H330.305V86Z" fill="#6C63FF"/>
<path d="M317.981 2V4.24982H322.912V8.75018H317.981V11H330.305V2H317.981Z" fill="#6C63FF"/>
<path d="M404.246 0V2.5004H409.175V7.50041H404.246V10H416.57V0H404.246Z" fill="#6C63FF"/>
<path d="M404.246 50V52.4998H409.175V57.5002H404.246V60H416.57V50H404.246Z" fill="#6C63FF"/>
<path d="M404.246 67V69.5004H409.175V74.5004H404.246V77H416.57V67H404.246Z" fill="#6C63FF"/>
<path d="M404.246 16V18.4996H409.175V23.4996H404.246V26H416.57V16H404.246Z" fill="#6C63FF"/>
<path d="M391.923 50H380.626V60H391.923V50Z" fill="#6C63FF"/>
<path d="M391.923 81H380.626V90H391.923V81Z" fill="#6C63FF"/>
<path d="M380.626 65V67.7496H385.144V73.2495H380.626V76H391.923V65H380.626Z" fill="#6C63FF"/>
<path d="M359.06 0V2.5004H363.578V7.50041H359.06V10H370.356V0H359.06Z" fill="#6C63FF"/>
<path d="M359.06 17V19.5004H363.578V24.4996H359.06V27H370.356V17H359.06Z" fill="#6C63FF"/>
<path d="M370.356 67H359.06V77H370.356V67Z" fill="#6C63FF"/>
<path d="M359.06 50V52.4998H363.578V57.5002H359.06V60H370.356V50H359.06Z" fill="#6C63FF"/>
<path d="M370.356 100H359.06V110H370.356V100Z" fill="#6C63FF"/>
<path d="M359.06 83V85.4996H363.578V90.4996H359.06V93H370.356V83H359.06Z" fill="#6C63FF"/>
<path d="M370.356 133H359.06V143H370.356V133Z" fill="#6C63FF"/>
<path d="M391.923 130H380.626V141H391.923V130Z" fill="#6C63FF"/>
<path d="M359.06 117V119.25H363.578V123.75H359.06V126H370.356V117H359.06Z" fill="#6C63FF"/>
<path d="M404.246 117V119.25H409.175V123.75H404.246V126H416.57V117H404.246Z" fill="#6C63FF"/>
<path d="M537.751 33H526.455V43H537.751V33Z" fill="#6C63FF"/>
<path d="M526.455 0V2.5004H530.973V7.50041H526.455V10H537.751V0H526.455Z" fill="#6C63FF"/>
<path d="M526.455 50V52.4998H530.973V57.5002H526.455V60H537.751V50H526.455Z" fill="#6C63FF"/>
<path d="M526.455 67V69.5004H530.973V74.5004H526.455V77H537.751V67H526.455Z" fill="#6C63FF"/>
<path d="M526.455 16V18.4996H530.973V23.4996H526.455V26H537.751V16H526.455Z" fill="#6C63FF"/>
<path d="M526.455 117V119.25H530.973V123.75H526.455V126H537.751V117H526.455Z" fill="#6C63FF"/>
<path d="M391.923 147H380.626V157H391.923V147Z" fill="#6C63FF"/>
<path d="M359.06 150V152.5H363.578V157.5H359.06V160H370.356V150H359.06Z" fill="#6C63FF"/>
<path d="M501.808 33H490.511V43H501.808V33Z" fill="#6C63FF"/>
<path d="M490.511 0V2.5004H495.031V7.50041H490.511V10H501.808V0H490.511Z" fill="#6C63FF"/>
<path d="M490.511 17V19.5004H495.031V24.4996H490.511V27H501.808V17H490.511Z" fill="#6C63FF"/>
<path d="M501.808 67H490.511V77H501.808V67Z" fill="#6C63FF"/>
<path d="M490.511 50V52.4998H495.031V57.5002H490.511V60H501.808V50H490.511Z" fill="#6C63FF"/>
<path d="M501.808 100H490.511V110H501.808V100Z" fill="#6C63FF"/>
<path d="M490.511 83V85.4996H495.031V90.4996H490.511V93H501.808V83H490.511Z" fill="#6C63FF"/>
<path d="M501.808 133H490.511V143H501.808V133Z" fill="#6C63FF"/>
<path d="M490.511 117V119.25H495.031V123.75H490.511V126H501.808V117H490.511Z" fill="#6C63FF"/>
<path d="M490.511 150V152.5H495.031V157.5H490.511V160H501.808V150H490.511Z" fill="#6C63FF"/>
<path d="M559.318 33H548.021V43H559.318V33Z" fill="#6C63FF"/>
<path d="M548.021 0V2.5004H552.541V7.50041H548.021V10H559.318V0H548.021Z" fill="#6C63FF"/>
<path d="M548.021 17V19.5004H552.541V24.4996H548.021V27H559.318V17H548.021Z" fill="#6C63FF"/>
<path d="M559.318 67H548.021V77H559.318V67Z" fill="#6C63FF"/>
<path d="M548.021 50V52.4998H552.541V57.5002H548.021V60H559.318V50H548.021Z" fill="#6C63FF"/>
<path d="M559.318 100H548.021V110H559.318V100Z" fill="#6C63FF"/>
<path d="M548.021 83V85.4996H552.541V90.4996H548.021V93H559.318V83H548.021Z" fill="#6C63FF"/>
<path d="M559.318 133H548.021V143H559.318V133Z" fill="#6C63FF"/>
<path d="M548.021 117V119.25H552.541V123.75H548.021V126H559.318V117H548.021Z" fill="#6C63FF"/>
<path d="M548.021 150V152.5H552.541V157.5H548.021V160H559.318V150H548.021Z" fill="#6C63FF"/>
<path d="M317.981 33V35.4996H322.912V40.4996H317.981V43H330.305V33H317.981Z" fill="#6C63FF"/>
<path d="M317.981 98V100.75H322.912V106.25H317.981V109H330.305V98H317.981Z" fill="#6C63FF"/>
<path d="M317.981 115V117.5H322.912V122.5H317.981V125H330.305V115H317.981Z" fill="#6C63FF"/>
<path d="M317.981 148V150.5H322.912V155.5H317.981V158H330.305V148H317.981Z" fill="#6C63FF"/>
<path d="M454.567 71H438.136V73H454.567V71Z" fill="#6C63FF"/>
<path d="M454.567 86H438.136V87H454.567V86Z" fill="#6C63FF"/>
<path d="M442.244 2V4.24982H447.174V8.75018H442.244V11H454.567V2H442.244Z" fill="#6C63FF"/>
<path d="M442.244 33V35.4996H447.174V40.4996H442.244V43H454.567V33H442.244Z" fill="#6C63FF"/>
<path d="M442.244 98V100.75H447.174V106.25H442.244V109H454.567V98H442.244Z" fill="#6C63FF"/>
<path d="M591.154 67H578.83V77H591.154V67Z" fill="#6C63FF"/>
<path d="M591.154 83H578.83V93H591.154V83Z" fill="#6C63FF"/>
<path d="M591.154 101H573.695V103H591.154V101Z" fill="#6C63FF"/>
<path d="M578.83 112V114.75H583.76V120.25H578.83V123H591.154V112H578.83Z" fill="#6C63FF"/>
<path d="M578.83 144V146.75H583.76V152.25H578.83V155H591.154V144H578.83Z" fill="#6C63FF"/>
<path d="M691.796 17H679.472V27H691.796V17Z" fill="#6C63FF"/>
<path d="M715.416 33H703.093V43H715.416V33Z" fill="#6C63FF"/>
<path d="M691.796 96H679.472V106H691.796V96Z" fill="#6C63FF"/>
<path d="M670.23 33H657.906V43H670.23V33Z" fill="#6C63FF"/>
<path d="M629.151 131H616.828V142H629.151V131Z" fill="#6C63FF"/>
<path d="M693.85 5H677.419V7H693.85V5Z" fill="#6C63FF"/>
<path d="M629.151 71H612.72V73H629.151V71Z" fill="#6C63FF"/>
<path d="M629.151 86H612.72V87H629.151V86Z" fill="#6C63FF"/>
<path d="M616.828 2V4.24982H621.757V8.75018H616.828V11H629.151V2H616.828Z" fill="#6C63FF"/>
<path d="M703.093 0V2.5004H708.021V7.50041H703.093V10H715.416V0H703.093Z" fill="#6C63FF"/>
<path d="M703.093 50V52.4998H708.021V57.5002H703.093V60H715.416V50H703.093Z" fill="#6C63FF"/>
<path d="M703.093 67V69.5004H708.021V74.5004H703.093V77H715.416V67H703.093Z" fill="#6C63FF"/>
<path d="M703.093 16V18.4996H708.021V23.4996H703.093V26H715.416V16H703.093Z" fill="#6C63FF"/>
<path d="M691.796 50H679.472V60H691.796V50Z" fill="#6C63FF"/>
<path d="M691.796 81H679.472V90H691.796V81Z" fill="#6C63FF"/>
<path d="M679.472 65V67.7496H684.401V73.2495H679.472V76H691.796V65H679.472Z" fill="#6C63FF"/>
<path d="M657.906 0V2.5004H662.835V7.50041H657.906V10H670.23V0H657.906Z" fill="#6C63FF"/>
<path d="M657.906 17V19.5004H662.835V24.4996H657.906V27H670.23V17H657.906Z" fill="#6C63FF"/>
<path d="M670.23 67H657.906V77H670.23V67Z" fill="#6C63FF"/>
<path d="M657.906 50V52.4998H662.835V57.5002H657.906V60H670.23V50H657.906Z" fill="#6C63FF"/>
<path d="M670.23 100H657.906V110H670.23V100Z" fill="#6C63FF"/>
<path d="M657.906 83V85.4996H662.835V90.4996H657.906V93H670.23V83H657.906Z" fill="#6C63FF"/>
<path d="M670.23 133H657.906V143H670.23V133Z" fill="#6C63FF"/>
<path d="M691.796 130H679.472V141H691.796V130Z" fill="#6C63FF"/>
<path d="M657.906 117V119.25H662.835V123.75H657.906V126H670.23V117H657.906Z" fill="#6C63FF"/>
<path d="M703.093 117V119.25H708.021V123.75H703.093V126H715.416V117H703.093Z" fill="#6C63FF"/>
<path d="M837.625 33H825.301V43H837.625V33Z" fill="#6C63FF"/>
<path d="M825.301 0V2.5004H830.23V7.50041H825.301V10H837.625V0H825.301Z" fill="#6C63FF"/>
<path d="M825.301 50V52.4998H830.23V57.5002H825.301V60H837.625V50H825.301Z" fill="#6C63FF"/>
<path d="M825.301 67V69.5004H830.23V74.5004H825.301V77H837.625V67H825.301Z" fill="#6C63FF"/>
<path d="M825.301 16V18.4996H830.23V23.4996H825.301V26H837.625V16H825.301Z" fill="#6C63FF"/>
<path d="M825.301 117V119.25H830.23V123.75H825.301V126H837.625V117H825.301Z" fill="#6C63FF"/>
<path d="M691.796 147H679.472V157H691.796V147Z" fill="#6C63FF"/>
<path d="M657.906 150V152.5H662.835V157.5H657.906V160H670.23V150H657.906Z" fill="#6C63FF"/>
<path d="M801.681 33H789.358V43H801.681V33Z" fill="#6C63FF"/>
<path d="M789.358 0V2.5004H794.286V7.50041H789.358V10H801.681V0H789.358Z" fill="#6C63FF"/>
<path d="M789.358 17V19.5004H794.286V24.4996H789.358V27H801.681V17H789.358Z" fill="#6C63FF"/>
<path d="M801.681 67H789.358V77H801.681V67Z" fill="#6C63FF"/>
<path d="M789.358 50V52.4998H794.286V57.5002H789.358V60H801.681V50H789.358Z" fill="#6C63FF"/>
<path d="M801.681 100H789.358V110H801.681V100Z" fill="#6C63FF"/>
<path d="M789.358 83V85.4996H794.286V90.4996H789.358V93H801.681V83H789.358Z" fill="#6C63FF"/>
<path d="M801.681 133H789.358V143H801.681V133Z" fill="#6C63FF"/>
<path d="M789.358 117V119.25H794.286V123.75H789.358V126H801.681V117H789.358Z" fill="#6C63FF"/>
<path d="M789.358 150V152.5H794.286V157.5H789.358V160H801.681V150H789.358Z" fill="#6C63FF"/>
<path d="M859.191 33H846.868V43H859.191V33Z" fill="#6C63FF"/>
<path d="M846.868 0V2.5004H851.796V7.50041H846.868V10H859.191V0H846.868Z" fill="#6C63FF"/>
<path d="M846.868 17V19.5004H851.796V24.4996H846.868V27H859.191V17H846.868Z" fill="#6C63FF"/>
<path d="M859.191 67H846.868V77H859.191V67Z" fill="#6C63FF"/>
<path d="M846.868 50V52.4998H851.796V57.5002H846.868V60H859.191V50H846.868Z" fill="#6C63FF"/>
<path d="M859.191 100H846.868V110H859.191V100Z" fill="#6C63FF"/>
<path d="M846.868 83V85.4996H851.796V90.4996H846.868V93H859.191V83H846.868Z" fill="#6C63FF"/>
<path d="M859.191 133H846.868V143H859.191V133Z" fill="#6C63FF"/>
<path d="M846.868 117V119.25H851.796V123.75H846.868V126H859.191V117H846.868Z" fill="#6C63FF"/>
<path d="M846.868 150V152.5H851.796V157.5H846.868V160H859.191V150H846.868Z" fill="#6C63FF"/>
<path d="M616.828 33V35.4996H621.757V40.4996H616.828V43H629.151V33H616.828Z" fill="#6C63FF"/>
<path d="M616.828 98V100.75H621.757V106.25H616.828V109H629.151V98H616.828Z" fill="#6C63FF"/>
<path d="M616.828 115V117.5H621.757V122.5H616.828V125H629.151V115H616.828Z" fill="#6C63FF"/>
<path d="M616.828 148V150.5H621.757V155.5H616.828V158H629.151V148H616.828Z" fill="#6C63FF"/>
<path d="M753.414 71H736.982V73H753.414V71Z" fill="#6C63FF"/>
<path d="M753.414 86H736.982V87H753.414V86Z" fill="#6C63FF"/>
<path d="M742.117 2V4.24982H746.637V8.75018H742.117V11H753.414V2H742.117Z" fill="#6C63FF"/>
<path d="M742.117 33V35.4996H746.637V40.4996H742.117V43H753.414V33H742.117Z" fill="#6C63FF"/>
<path d="M742.117 98V100.75H746.637V106.25H742.117V109H753.414V98H742.117Z" fill="#6C63FF"/>
<path d="M890 67H877.676V77H890V67Z" fill="#6C63FF"/>
<path d="M890 83H877.676V93H890V83Z" fill="#6C63FF"/>
<path d="M890 101H873.569V103H890V101Z" fill="#6C63FF"/>
<path d="M877.676 112V114.75H882.607V120.25H877.676V123H890V112H877.676Z" fill="#6C63FF"/>
<path d="M877.676 144V146.75H882.607V152.25H877.676V155H890V144H877.676Z" fill="#6C63FF"/>
<path d="M517.726 90C520.278 90 522.347 89.1046 522.347 88C522.347 86.8954 520.278 86 517.726 86C515.173 86 513.104 86.8954 513.104 88C513.104 89.1046 515.173 90 517.726 90Z" fill="#F2F2F2"/>
<path d="M519.266 88H516.185V127H519.266V88Z" fill="#3F3D56"/>
<path d="M26.9182 147.807H14.834V159.036H26.9182V147.807Z" fill="#6C63FF"/>
<path d="M68.0045 145H55.9203V156.229H68.0045V145Z" fill="#6C63FF"/>
<path d="M89.7564 145H77.6721V156.229H89.7564V145Z" fill="#6C63FF"/>
<path d="M89.7564 178.686H77.6721V189.915H89.7564V178.686Z" fill="#6C63FF"/>
<path d="M113.924 161.843H101.84V173.072H113.924V161.843Z" fill="#6C63FF"/>
<path d="M113.924 180.09H101.84V191.318H113.924V180.09Z" fill="#6C63FF"/>
<path d="M89.7564 215.179H77.6721V226.408H89.7564V215.179Z" fill="#6C63FF"/>
<path d="M113.924 233.427H101.84V244.655H113.924V233.427Z" fill="#6C63FF"/>
<path d="M89.7564 302.202H77.6721V313.431H89.7564V302.202Z" fill="#6C63FF"/>
<path d="M68.0045 233.427H55.9203V244.655H68.0045V233.427Z" fill="#6C63FF"/>
<path d="M26.9182 166.054H14.834V177.283H26.9182V166.054Z" fill="#6C63FF"/>
<path d="M26.9182 341.503H14.834V352.732H26.9182V341.503Z" fill="#6C63FF"/>
<path d="M26.9182 377.996H14.834V389.224H26.9182V377.996Z" fill="#6C63FF"/>
<path d="M26.9182 396.242H14.834V407.471H26.9182V396.242Z" fill="#6C63FF"/>
<path d="M26.9179 185.704H10V187.107H26.9179V185.704Z" fill="#6C63FF"/>
<path d="M92.1729 202.547H75.255V203.95H92.1729V202.547Z" fill="#6C63FF"/>
<path d="M26.9179 275.534H10V276.937H26.9179V275.534Z" fill="#6C63FF"/>
<path d="M26.9179 290.973H10V292.377H26.9179V290.973Z" fill="#6C63FF"/>
<path d="M92.1729 380.803H75.255V382.207H92.1729V380.803Z" fill="#6C63FF"/>
<path d="M72.8382 414.489H55.9203V415.893H72.8382V414.489Z" fill="#6C63FF"/>
<path d="M14.834 198.337V201.144H19.667V206.758H14.834V209.565H26.9181V198.337H14.834Z" fill="#6C63FF"/>
<path d="M55.9209 178.687V181.493H60.7539V187.108H55.9209V189.915H68.0051V178.687H55.9209Z" fill="#6C63FF"/>
<path d="M101.841 196.933V199.74H106.674V205.355H101.841V208.162H113.925V196.933H101.841Z" fill="#6C63FF"/>
<path d="M101.841 251.673V254.48H106.674V260.094H101.841V262.901H113.925V251.673H101.841Z" fill="#6C63FF"/>
<path d="M101.841 269.919V272.727H106.674V278.342H101.841V281.148H113.925V269.919H101.841Z" fill="#6C63FF"/>
<path d="M101.841 213.776V216.583H106.674V222.197H101.841V225.005H113.925V213.776H101.841Z" fill="#6C63FF"/>
<path d="M77.6709 161.843V164.651H82.5055V170.264H77.6709V173.072H89.7566V161.843H77.6709Z" fill="#6C63FF"/>
<path d="M89.7564 251.673H77.6721V262.902H89.7564V251.673Z" fill="#6C63FF"/>
<path d="M89.7564 285.359H77.6721V296.588H89.7564V285.359Z" fill="#6C63FF"/>
<path d="M77.6709 268.516V271.323H82.5055V276.937H77.6709V279.745H89.7566V268.516H77.6709Z" fill="#6C63FF"/>
<path d="M55.9209 196.933V199.74H60.7539V205.355H55.9209V208.162H68.0051V196.933H55.9209Z" fill="#6C63FF"/>
<path d="M55.9209 215.179V217.987H60.7539V223.601H55.9209V226.408H68.0051V215.179H55.9209Z" fill="#6C63FF"/>
<path d="M68.0045 269.919H55.9203V281.148H68.0045V269.919Z" fill="#6C63FF"/>
<path d="M55.9209 251.673V254.48H60.7539V260.094H55.9209V262.901H68.0051V251.673H55.9209Z" fill="#6C63FF"/>
<path d="M68.0045 306.413H55.9203V317.642H68.0045V306.413Z" fill="#6C63FF"/>
<path d="M55.9209 288.166V290.973H60.7539V296.587H55.9209V299.395H68.0051V288.166H55.9209Z" fill="#6C63FF"/>
<path d="M68.0045 342.906H55.9203V354.135H68.0045V342.906Z" fill="#6C63FF"/>
<path d="M89.7564 340.099H77.6721V351.328H89.7564V340.099Z" fill="#6C63FF"/>
<path d="M55.9209 324.659V327.467H60.7539V333.081H55.9209V335.888H68.0051V324.659H55.9209Z" fill="#6C63FF"/>
<path d="M101.841 324.659V327.467H106.674V333.081H101.841V335.888H113.925V324.659H101.841Z" fill="#6C63FF"/>
<path d="M237.184 161.843H225.1V173.072H237.184V161.843Z" fill="#6C63FF"/>
<path d="M237.184 180.09H225.1V191.318H237.184V180.09Z" fill="#6C63FF"/>
<path d="M237.184 233.427H225.1V244.655H237.184V233.427Z" fill="#6C63FF"/>
<path d="M225.099 196.933V199.74H229.934V205.355H225.099V208.162H237.183V196.933H225.099Z" fill="#6C63FF"/>
<path d="M225.099 251.673V254.48H229.934V260.094H225.099V262.901H237.183V251.673H225.099Z" fill="#6C63FF"/>
<path d="M225.099 269.919V272.727H229.934V278.342H225.099V281.148H237.183V269.919H225.099Z" fill="#6C63FF"/>
<path d="M225.099 213.776V216.583H229.934V222.197H225.099V225.005H237.183V213.776H225.099Z" fill="#6C63FF"/>
<path d="M225.099 324.659V327.467H229.934V333.081H225.099V335.888H237.183V324.659H225.099Z" fill="#6C63FF"/>
<path d="M68.0045 379.399H55.9203V390.628H68.0045V379.399Z" fill="#6C63FF"/>
<path d="M89.7564 358.346H77.6721V369.575H89.7564V358.346Z" fill="#6C63FF"/>
<path d="M68.0045 427.122H55.9203V438.35H68.0045V427.122Z" fill="#6C63FF"/>
<path d="M89.7564 393.435H77.6721V404.664H89.7564V393.435Z" fill="#6C63FF"/>
<path d="M55.9209 361.153V363.96H60.7539V369.574H55.9209V372.382H68.0051V361.153H55.9209Z" fill="#6C63FF"/>
<path d="M55.9209 446.772V449.579H60.7539V455.193H55.9209V458H68.0051V446.772H55.9209Z" fill="#6C63FF"/>
<path d="M200.931 145H188.847V156.229H200.931V145Z" fill="#6C63FF"/>
<path d="M200.931 233.427H188.847V244.655H200.931V233.427Z" fill="#6C63FF"/>
<path d="M205.765 414.489H188.847V415.893H205.765V414.489Z" fill="#6C63FF"/>
<path d="M188.847 178.687V181.493H193.681V187.108H188.847V189.915H200.931V178.687H188.847Z" fill="#6C63FF"/>
<path d="M188.847 196.933V199.74H193.681V205.355H188.847V208.162H200.931V196.933H188.847Z" fill="#6C63FF"/>
<path d="M188.847 215.179V217.987H193.681V223.601H188.847V226.408H200.931V215.179H188.847Z" fill="#6C63FF"/>
<path d="M200.931 269.919H188.847V281.148H200.931V269.919Z" fill="#6C63FF"/>
<path d="M188.847 251.673V254.48H193.681V260.094H188.847V262.901H200.931V251.673H188.847Z" fill="#6C63FF"/>
<path d="M200.931 306.413H188.847V317.642H200.931V306.413Z" fill="#6C63FF"/>
<path d="M188.847 288.166V290.973H193.681V296.587H188.847V299.395H200.931V288.166H188.847Z" fill="#6C63FF"/>
<path d="M200.931 342.906H188.847V354.135H200.931V342.906Z" fill="#6C63FF"/>
<path d="M188.847 324.659V327.467H193.681V333.081H188.847V335.888H200.931V324.659H188.847Z" fill="#6C63FF"/>
<path d="M200.931 379.399H188.847V390.628H200.931V379.399Z" fill="#6C63FF"/>
<path d="M200.931 427.122H188.847V438.35H200.931V427.122Z" fill="#6C63FF"/>
<path d="M188.847 361.153V363.96H193.681V369.574H188.847V372.382H200.931V361.153H188.847Z" fill="#6C63FF"/>
<path d="M188.847 446.772V449.579H193.681V455.193H188.847V458H200.931V446.772H188.847Z" fill="#6C63FF"/>
<path d="M258.935 145H246.851V156.229H258.935V145Z" fill="#6C63FF"/>
<path d="M258.935 233.427H246.851V244.655H258.935V233.427Z" fill="#6C63FF"/>
<path d="M263.769 414.489H246.851V415.893H263.769V414.489Z" fill="#6C63FF"/>
<path d="M246.851 178.687V181.493H251.685V187.108H246.851V189.915H258.935V178.687H246.851Z" fill="#6C63FF"/>
<path d="M246.851 196.933V199.74H251.685V205.355H246.851V208.162H258.935V196.933H246.851Z" fill="#6C63FF"/>
<path d="M246.851 215.179V217.987H251.685V223.601H246.851V226.408H258.935V215.179H246.851Z" fill="#6C63FF"/>
<path d="M258.935 269.919H246.851V281.148H258.935V269.919Z" fill="#6C63FF"/>
<path d="M246.851 251.673V254.48H251.685V260.094H246.851V262.901H258.935V251.673H246.851Z" fill="#6C63FF"/>
<path d="M258.935 306.413H246.851V317.642H258.935V306.413Z" fill="#6C63FF"/>
<path d="M246.851 288.166V290.973H251.685V296.587H246.851V299.395H258.935V288.166H246.851Z" fill="#6C63FF"/>
<path d="M258.935 342.906H246.851V354.135H258.935V342.906Z" fill="#6C63FF"/>
<path d="M246.851 324.659V327.467H251.685V333.081H246.851V335.888H258.935V324.659H246.851Z" fill="#6C63FF"/>
<path d="M258.935 379.399H246.851V390.628H258.935V379.399Z" fill="#6C63FF"/>
<path d="M258.935 427.122H246.851V438.35H258.935V427.122Z" fill="#6C63FF"/>
<path d="M246.851 361.153V363.96H251.685V369.574H246.851V372.382H258.935V361.153H246.851Z" fill="#6C63FF"/>
<path d="M246.851 446.772V449.579H251.685V455.193H246.851V458H258.935V446.772H246.851Z" fill="#6C63FF"/>
<path d="M77.6709 427.122V429.928H82.5055V435.543H77.6709V438.35H89.7566V427.122H77.6709Z" fill="#6C63FF"/>
<path d="M77.6709 445.368V448.175H82.5055V453.79H77.6709V456.596H89.7566V445.368H77.6709Z" fill="#6C63FF"/>
<path d="M14.834 233.427V236.233H19.667V241.848H14.834V244.656H26.9181V233.427H14.834Z" fill="#6C63FF"/>
<path d="M14.834 305.01V307.817H19.667V313.431H14.834V316.238H26.9181V305.01H14.834Z" fill="#6C63FF"/>
<path d="M14.834 323.255V326.063H19.667V331.678H14.834V334.484H26.9181V323.255H14.834Z" fill="#6C63FF"/>
<path d="M14.834 359.749V362.556H19.667V368.17H14.834V370.977H26.9181V359.749H14.834Z" fill="#6C63FF"/>
<path d="M14.834 411.682V414.489H19.667V420.104H14.834V422.911H26.9181V411.682H14.834Z" fill="#6C63FF"/>
<path d="M14.834 427.122V429.928H19.667V435.543H14.834V438.35H26.9181V427.122H14.834Z" fill="#6C63FF"/>
<path d="M152.594 147.807H140.51V159.036H152.594V147.807Z" fill="#6C63FF"/>
<path d="M152.594 166.054H140.51V177.283H152.594V166.054Z" fill="#6C63FF"/>
<path d="M152.594 185.704H135.676V187.107H152.594V185.704Z" fill="#6C63FF"/>
<path d="M152.594 275.534H135.676V276.937H152.594V275.534Z" fill="#6C63FF"/>
<path d="M152.594 290.973H135.676V292.377H152.594V290.973Z" fill="#6C63FF"/>
<path d="M140.51 198.337V201.144H145.343V206.758H140.51V209.565H152.594V198.337H140.51Z" fill="#6C63FF"/>
<path d="M140.51 233.427V236.233H145.343V241.848H140.51V244.656H152.594V233.427H140.51Z" fill="#6C63FF"/>
<path d="M140.51 305.01V307.817H145.343V313.431H140.51V316.238H152.594V305.01H140.51Z" fill="#6C63FF"/>
<path d="M290.355 269.919H278.27V281.148H290.355V269.919Z" fill="#6C63FF"/>
<path d="M290.355 288.166H278.27V299.394H290.355V288.166Z" fill="#6C63FF"/>
<path d="M290.354 307.817H273.436V309.22H290.354V307.817Z" fill="#6C63FF"/>
<path d="M290.354 397.646H273.436V399.049H290.354V397.646Z" fill="#6C63FF"/>
<path d="M290.354 413.085H273.436V414.489H290.354V413.085Z" fill="#6C63FF"/>
<path d="M278.27 320.449V323.256H283.103V328.87H278.27V331.678H290.355V320.449H278.27Z" fill="#6C63FF"/>
<path d="M278.27 355.538V358.346H283.103V363.96H278.27V366.767H290.355V355.538H278.27Z" fill="#6C63FF"/>
<path d="M278.27 427.122V429.928H283.103V435.543H278.27V438.35H290.355V427.122H278.27Z" fill="#6C63FF"/>
<path d="M329.024 147.807H316.94V159.036H329.024V147.807Z" fill="#6C63FF"/>
<path d="M370.111 145H358.026V156.229H370.111V145Z" fill="#6C63FF"/>
<path d="M391.862 145H379.778V156.229H391.862V145Z" fill="#6C63FF"/>
<path d="M391.862 178.686H379.778V189.915H391.862V178.686Z" fill="#6C63FF"/>
<path d="M416.03 161.843H403.946V173.072H416.03V161.843Z" fill="#6C63FF"/>
<path d="M416.03 180.09H403.946V191.318H416.03V180.09Z" fill="#6C63FF"/>
<path d="M391.862 215.179H379.778V226.408H391.862V215.179Z" fill="#6C63FF"/>
<path d="M416.03 233.427H403.946V244.655H416.03V233.427Z" fill="#6C63FF"/>
<path d="M391.862 302.202H379.778V313.431H391.862V302.202Z" fill="#6C63FF"/>
<path d="M370.111 233.427H358.026V244.655H370.111V233.427Z" fill="#6C63FF"/>
<path d="M329.024 166.054H316.94V177.283H329.024V166.054Z" fill="#6C63FF"/>
<path d="M329.024 341.503H316.94V352.732H329.024V341.503Z" fill="#6C63FF"/>
<path d="M329.024 377.996H316.94V389.224H329.024V377.996Z" fill="#6C63FF"/>
<path d="M329.024 396.242H316.94V407.471H329.024V396.242Z" fill="#6C63FF"/>
<path d="M329.024 185.704H312.106V187.107H329.024V185.704Z" fill="#6C63FF"/>
<path d="M394.279 202.547H377.361V203.95H394.279V202.547Z" fill="#6C63FF"/>
<path d="M329.024 275.534H312.106V276.937H329.024V275.534Z" fill="#6C63FF"/>
<path d="M329.024 290.973H312.106V292.377H329.024V290.973Z" fill="#6C63FF"/>
<path d="M394.279 380.803H377.361V382.207H394.279V380.803Z" fill="#6C63FF"/>
<path d="M374.944 414.489H358.026V415.893H374.944V414.489Z" fill="#6C63FF"/>
<path d="M316.94 198.337V201.144H321.774V206.758H316.94V209.565H329.024V198.337H316.94Z" fill="#6C63FF"/>
<path d="M358.026 178.687V181.493H362.859V187.108H358.026V189.915H370.111V178.687H358.026Z" fill="#6C63FF"/>
<path d="M403.947 196.933V199.74H408.78V205.355H403.947V208.162H416.031V196.933H403.947Z" fill="#6C63FF"/>
<path d="M403.947 251.673V254.48H408.78V260.094H403.947V262.901H416.031V251.673H403.947Z" fill="#6C63FF"/>
<path d="M403.947 269.919V272.727H408.78V278.342H403.947V281.148H416.031V269.919H403.947Z" fill="#6C63FF"/>
<path d="M403.947 213.776V216.583H408.78V222.197H403.947V225.005H416.031V213.776H403.947Z" fill="#6C63FF"/>
<path d="M379.778 161.843V164.651H384.611V170.264H379.778V173.072H391.862V161.843H379.778Z" fill="#6C63FF"/>
<path d="M391.862 251.673H379.778V262.902H391.862V251.673Z" fill="#6C63FF"/>
<path d="M391.862 285.359H379.778V296.588H391.862V285.359Z" fill="#6C63FF"/>
<path d="M379.778 268.516V271.323H384.611V276.937H379.778V279.745H391.862V268.516H379.778Z" fill="#6C63FF"/>
<path d="M358.026 196.933V199.74H362.859V205.355H358.026V208.162H370.111V196.933H358.026Z" fill="#6C63FF"/>
<path d="M358.026 215.179V217.987H362.859V223.601H358.026V226.408H370.111V215.179H358.026Z" fill="#6C63FF"/>
<path d="M370.111 269.919H358.026V281.148H370.111V269.919Z" fill="#6C63FF"/>
<path d="M358.026 251.673V254.48H362.859V260.094H358.026V262.901H370.111V251.673H358.026Z" fill="#6C63FF"/>
<path d="M370.111 306.413H358.026V317.642H370.111V306.413Z" fill="#6C63FF"/>
<path d="M358.026 288.166V290.973H362.859V296.587H358.026V299.395H370.111V288.166H358.026Z" fill="#6C63FF"/>
<path d="M370.111 342.906H358.026V354.135H370.111V342.906Z" fill="#6C63FF"/>
<path d="M391.862 340.099H379.778V351.328H391.862V340.099Z" fill="#6C63FF"/>
<path d="M358.026 324.659V327.467H362.859V333.081H358.026V335.888H370.111V324.659H358.026Z" fill="#6C63FF"/>
<path d="M403.947 324.659V327.467H408.78V333.081H403.947V335.888H416.031V324.659H403.947Z" fill="#6C63FF"/>
<path d="M539.29 161.843H527.206V173.072H539.29V161.843Z" fill="#6C63FF"/>
<path d="M539.29 180.09H527.206V191.318H539.29V180.09Z" fill="#6C63FF"/>
<path d="M539.29 233.427H527.206V244.655H539.29V233.427Z" fill="#6C63FF"/>
<path d="M527.206 196.933V199.74H532.039V205.355H527.206V208.162H539.29V196.933H527.206Z" fill="#6C63FF"/>
<path d="M527.206 251.673V254.48H532.039V260.094H527.206V262.901H539.29V251.673H527.206Z" fill="#6C63FF"/>
<path d="M527.206 269.919V272.727H532.039V278.342H527.206V281.148H539.29V269.919H527.206Z" fill="#6C63FF"/>
<path d="M527.206 213.776V216.583H532.039V222.197H527.206V225.005H539.29V213.776H527.206Z" fill="#6C63FF"/>
<path d="M527.206 324.659V327.467H532.039V333.081H527.206V335.888H539.29V324.659H527.206Z" fill="#6C63FF"/>
<path d="M370.111 379.399H358.026V390.628H370.111V379.399Z" fill="#6C63FF"/>
<path d="M391.862 358.346H379.778V369.575H391.862V358.346Z" fill="#6C63FF"/>
<path d="M370.111 427.122H358.026V438.35H370.111V427.122Z" fill="#6C63FF"/>
<path d="M391.862 393.435H379.778V404.664H391.862V393.435Z" fill="#6C63FF"/>
<path d="M358.026 361.153V363.96H362.859V369.574H358.026V372.382H370.111V361.153H358.026Z" fill="#6C63FF"/>
<path d="M358.026 446.772V449.579H362.859V455.193H358.026V458H370.111V446.772H358.026Z" fill="#6C63FF"/>
<path d="M503.037 145H490.953V156.229H503.037V145Z" fill="#6C63FF"/>
<path d="M503.037 233.427H490.953V244.655H503.037V233.427Z" fill="#6C63FF"/>
<path d="M507.871 414.489H490.953V415.893H507.871V414.489Z" fill="#6C63FF"/>
<path d="M490.952 178.687V181.493H495.787V187.108H490.952V189.915H503.036V178.687H490.952Z" fill="#6C63FF"/>
<path d="M490.952 196.933V199.74H495.787V205.355H490.952V208.162H503.036V196.933H490.952Z" fill="#6C63FF"/>
<path d="M490.952 215.179V217.987H495.787V223.601H490.952V226.408H503.036V215.179H490.952Z" fill="#6C63FF"/>
<path d="M503.037 269.919H490.953V281.148H503.037V269.919Z" fill="#6C63FF"/>
<path d="M490.952 251.673V254.48H495.787V260.094H490.952V262.901H503.036V251.673H490.952Z" fill="#6C63FF"/>
<path d="M503.037 306.413H490.953V317.642H503.037V306.413Z" fill="#6C63FF"/>
<path d="M490.952 288.166V290.973H495.787V296.587H490.952V299.395H503.036V288.166H490.952Z" fill="#6C63FF"/>
<path d="M503.037 342.906H490.953V354.135H503.037V342.906Z" fill="#6C63FF"/>
<path d="M490.952 324.659V327.467H495.787V333.081H490.952V335.888H503.036V324.659H490.952Z" fill="#6C63FF"/>
<path d="M503.037 379.399H490.953V390.628H503.037V379.399Z" fill="#6C63FF"/>
<path d="M503.037 427.122H490.953V438.35H503.037V427.122Z" fill="#6C63FF"/>
<path d="M490.952 361.153V363.96H495.787V369.574H490.952V372.382H503.036V361.153H490.952Z" fill="#6C63FF"/>
<path d="M490.952 446.772V449.579H495.787V455.193H490.952V458H503.036V446.772H490.952Z" fill="#6C63FF"/>
<path d="M561.042 145H548.957V156.229H561.042V145Z" fill="#6C63FF"/>
<path d="M561.042 233.427H548.957V244.655H561.042V233.427Z" fill="#6C63FF"/>
<path d="M565.875 414.489H548.957V415.893H565.875V414.489Z" fill="#6C63FF"/>
<path d="M548.956 178.687V181.493H553.791V187.108H548.956V189.915H561.041V178.687H548.956Z" fill="#6C63FF"/>
<path d="M548.956 196.933V199.74H553.791V205.355H548.956V208.162H561.041V196.933H548.956Z" fill="#6C63FF"/>
<path d="M548.956 215.179V217.987H553.791V223.601H548.956V226.408H561.041V215.179H548.956Z" fill="#6C63FF"/>
<path d="M561.042 269.919H548.957V281.148H561.042V269.919Z" fill="#6C63FF"/>
<path d="M548.956 251.673V254.48H553.791V260.094H548.956V262.901H561.041V251.673H548.956Z" fill="#6C63FF"/>
<path d="M561.042 306.413H548.957V317.642H561.042V306.413Z" fill="#6C63FF"/>
<path d="M548.956 288.166V290.973H553.791V296.587H548.956V299.395H561.041V288.166H548.956Z" fill="#6C63FF"/>
<path d="M561.042 342.906H548.957V354.135H561.042V342.906Z" fill="#6C63FF"/>
<path d="M548.956 324.659V327.467H553.791V333.081H548.956V335.888H561.041V324.659H548.956Z" fill="#6C63FF"/>
<path d="M561.042 379.399H548.957V390.628H561.042V379.399Z" fill="#6C63FF"/>
<path d="M561.042 427.122H548.957V438.35H561.042V427.122Z" fill="#6C63FF"/>
<path d="M548.956 361.153V363.96H553.791V369.574H548.956V372.382H561.041V361.153H548.956Z" fill="#6C63FF"/>
<path d="M548.956 446.772V449.579H553.791V455.193H548.956V458H561.041V446.772H548.956Z" fill="#6C63FF"/>
<path d="M379.778 427.122V429.928H384.611V435.543H379.778V438.35H391.862V427.122H379.778Z" fill="#6C63FF"/>
<path d="M379.778 445.368V448.175H384.611V453.79H379.778V456.596H391.862V445.368H379.778Z" fill="#6C63FF"/>
<path d="M316.94 233.427V236.233H321.774V241.848H316.94V244.656H329.024V233.427H316.94Z" fill="#6C63FF"/>
<path d="M316.94 305.01V307.817H321.774V313.431H316.94V316.238H329.024V305.01H316.94Z" fill="#6C63FF"/>
<path d="M316.94 323.255V326.063H321.774V331.678H316.94V334.484H329.024V323.255H316.94Z" fill="#6C63FF"/>
<path d="M316.94 359.749V362.556H321.774V368.17H316.94V370.977H329.024V359.749H316.94Z" fill="#6C63FF"/>
<path d="M316.94 411.682V414.489H321.774V420.104H316.94V422.911H329.024V411.682H316.94Z" fill="#6C63FF"/>
<path d="M316.94 427.122V429.928H321.774V435.543H316.94V438.35H329.024V427.122H316.94Z" fill="#6C63FF"/>
<path d="M454.7 147.807H442.616V159.036H454.7V147.807Z" fill="#6C63FF"/>
<path d="M454.7 166.054H442.616V177.283H454.7V166.054Z" fill="#6C63FF"/>
<path d="M454.7 185.704H437.782V187.107H454.7V185.704Z" fill="#6C63FF"/>
<path d="M454.7 275.534H437.782V276.937H454.7V275.534Z" fill="#6C63FF"/>
<path d="M454.7 290.973H437.782V292.377H454.7V290.973Z" fill="#6C63FF"/>
<path d="M442.616 198.337V201.144H447.45V206.758H442.616V209.565H454.7V198.337H442.616Z" fill="#6C63FF"/>
<path d="M442.616 233.427V236.233H447.45V241.848H442.616V244.656H454.7V233.427H442.616Z" fill="#6C63FF"/>
<path d="M442.616 305.01V307.817H447.45V313.431H442.616V316.238H454.7V305.01H442.616Z" fill="#6C63FF"/>
<path d="M592.46 269.919H580.376V281.148H592.46V269.919Z" fill="#6C63FF"/>
<path d="M592.46 288.166H580.376V299.394H592.46V288.166Z" fill="#6C63FF"/>
<path d="M592.46 307.817H575.542V309.22H592.46V307.817Z" fill="#6C63FF"/>
<path d="M592.46 397.646H575.542V399.049H592.46V397.646Z" fill="#6C63FF"/>
<path d="M592.46 413.085H575.542V414.489H592.46V413.085Z" fill="#6C63FF"/>
<path d="M580.376 320.449V323.256H585.211V328.87H580.376V331.678H592.46V320.449H580.376Z" fill="#6C63FF"/>
<path d="M580.376 355.538V358.346H585.211V363.96H580.376V366.767H592.46V355.538H580.376Z" fill="#6C63FF"/>
<path d="M580.376 427.122V429.928H585.211V435.543H580.376V438.35H592.46V427.122H580.376Z" fill="#6C63FF"/>
<path d="M631.13 147.807H619.045V159.036H631.13V147.807Z" fill="#6C63FF"/>
<path d="M672.216 145H660.132V156.229H672.216V145Z" fill="#6C63FF"/>
<path d="M693.968 145H681.884V156.229H693.968V145Z" fill="#6C63FF"/>
<path d="M693.968 178.686H681.884V189.915H693.968V178.686Z" fill="#6C63FF"/>
<path d="M718.137 161.843H706.052V173.072H718.137V161.843Z" fill="#6C63FF"/>
<path d="M718.137 180.09H706.052V191.318H718.137V180.09Z" fill="#6C63FF"/>
<path d="M693.968 215.179H681.884V226.408H693.968V215.179Z" fill="#6C63FF"/>
<path d="M718.137 233.427H706.052V244.655H718.137V233.427Z" fill="#6C63FF"/>
<path d="M693.968 302.202H681.884V313.431H693.968V302.202Z" fill="#6C63FF"/>
<path d="M672.216 233.427H660.132V244.655H672.216V233.427Z" fill="#6C63FF"/>
<path d="M631.13 166.054H619.045V177.283H631.13V166.054Z" fill="#6C63FF"/>
<path d="M631.13 341.503H619.045V352.732H631.13V341.503Z" fill="#6C63FF"/>
<path d="M631.13 377.996H619.045V389.224H631.13V377.996Z" fill="#6C63FF"/>
<path d="M631.13 396.242H619.045V407.471H631.13V396.242Z" fill="#6C63FF"/>
<path d="M631.13 185.704H614.212V187.107H631.13V185.704Z" fill="#6C63FF"/>
<path d="M696.385 202.547H679.467V203.95H696.385V202.547Z" fill="#6C63FF"/>
<path d="M631.13 275.534H614.212V276.937H631.13V275.534Z" fill="#6C63FF"/>
<path d="M631.13 290.973H614.212V292.377H631.13V290.973Z" fill="#6C63FF"/>
<path d="M696.385 380.803H679.467V382.207H696.385V380.803Z" fill="#6C63FF"/>
<path d="M677.05 414.489H660.132V415.893H677.05V414.489Z" fill="#6C63FF"/>
<path d="M619.045 198.337V201.144H623.879V206.758H619.045V209.565H631.131V198.337H619.045Z" fill="#6C63FF"/>
<path d="M660.132 178.687V181.493H664.965V187.108H660.132V189.915H672.216V178.687H660.132Z" fill="#6C63FF"/>
<path d="M706.052 196.933V199.74H710.885V205.355H706.052V208.162H718.136V196.933H706.052Z" fill="#6C63FF"/>
<path d="M706.052 251.673V254.48H710.885V260.094H706.052V262.901H718.136V251.673H706.052Z" fill="#6C63FF"/>
<path d="M706.052 269.919V272.727H710.885V278.342H706.052V281.148H718.136V269.919H706.052Z" fill="#6C63FF"/>
<path d="M706.052 213.776V216.583H710.885V222.197H706.052V225.005H718.136V213.776H706.052Z" fill="#6C63FF"/>
<path d="M681.884 161.843V164.651H686.717V170.264H681.884V173.072H693.968V161.843H681.884Z" fill="#6C63FF"/>
<path d="M693.968 251.673H681.884V262.902H693.968V251.673Z" fill="#6C63FF"/>
<path d="M693.968 285.359H681.884V296.588H693.968V285.359Z" fill="#6C63FF"/>
<path d="M681.884 268.516V271.323H686.717V276.937H681.884V279.745H693.968V268.516H681.884Z" fill="#6C63FF"/>
<path d="M660.132 196.933V199.74H664.965V205.355H660.132V208.162H672.216V196.933H660.132Z" fill="#6C63FF"/>
<path d="M660.132 215.179V217.987H664.965V223.601H660.132V226.408H672.216V215.179H660.132Z" fill="#6C63FF"/>
<path d="M672.216 269.919H660.132V281.148H672.216V269.919Z" fill="#6C63FF"/>
<path d="M660.132 251.673V254.48H664.965V260.094H660.132V262.901H672.216V251.673H660.132Z" fill="#6C63FF"/>
<path d="M672.216 306.413H660.132V317.642H672.216V306.413Z" fill="#6C63FF"/>
<path d="M660.132 288.166V290.973H664.965V296.587H660.132V299.395H672.216V288.166H660.132Z" fill="#6C63FF"/>
<path d="M672.216 342.906H660.132V354.135H672.216V342.906Z" fill="#6C63FF"/>
<path d="M693.968 340.099H681.884V351.328H693.968V340.099Z" fill="#6C63FF"/>
<path d="M660.132 324.659V327.467H664.965V333.081H660.132V335.888H672.216V324.659H660.132Z" fill="#6C63FF"/>
<path d="M706.052 324.659V327.467H710.885V333.081H706.052V335.888H718.136V324.659H706.052Z" fill="#6C63FF"/>
<path d="M841.396 161.843H829.311V173.072H841.396V161.843Z" fill="#6C63FF"/>
<path d="M841.396 180.09H829.311V191.318H841.396V180.09Z" fill="#6C63FF"/>
<path d="M841.396 233.427H829.311V244.655H841.396V233.427Z" fill="#6C63FF"/>
<path d="M829.312 196.933V199.74H834.145V205.355H829.312V208.162H841.396V196.933H829.312Z" fill="#6C63FF"/>
<path d="M829.312 251.673V254.48H834.145V260.094H829.312V262.901H841.396V251.673H829.312Z" fill="#6C63FF"/>
<path d="M829.312 269.919V272.727H834.145V278.342H829.312V281.148H841.396V269.919H829.312Z" fill="#6C63FF"/>
<path d="M829.312 213.776V216.583H834.145V222.197H829.312V225.005H841.396V213.776H829.312Z" fill="#6C63FF"/>
<path d="M829.312 324.659V327.467H834.145V333.081H829.312V335.888H841.396V324.659H829.312Z" fill="#6C63FF"/>
<path d="M672.216 379.399H660.132V390.628H672.216V379.399Z" fill="#6C63FF"/>
<path d="M693.968 358.346H681.884V369.575H693.968V358.346Z" fill="#6C63FF"/>
<path d="M672.216 427.122H660.132V438.35H672.216V427.122Z" fill="#6C63FF"/>
<path d="M693.968 393.435H681.884V404.664H693.968V393.435Z" fill="#6C63FF"/>
<path d="M660.132 361.153V363.96H664.965V369.574H660.132V372.382H672.216V361.153H660.132Z" fill="#6C63FF"/>
<path d="M660.132 446.772V449.579H664.965V455.193H660.132V458H672.216V446.772H660.132Z" fill="#6C63FF"/>
<path d="M805.143 145H793.059V156.229H805.143V145Z" fill="#6C63FF"/>
<path d="M805.143 233.427H793.059V244.655H805.143V233.427Z" fill="#6C63FF"/>
<path d="M809.977 414.489H793.059V415.893H809.977V414.489Z" fill="#6C63FF"/>
<path d="M793.059 178.687V181.493H797.892V187.108H793.059V189.915H805.144V178.687H793.059Z" fill="#6C63FF"/>
<path d="M793.059 196.933V199.74H797.892V205.355H793.059V208.162H805.144V196.933H793.059Z" fill="#6C63FF"/>
<path d="M793.059 215.179V217.987H797.892V223.601H793.059V226.408H805.144V215.179H793.059Z" fill="#6C63FF"/>
<path d="M805.143 269.919H793.059V281.148H805.143V269.919Z" fill="#6C63FF"/>
<path d="M793.059 251.673V254.48H797.892V260.094H793.059V262.901H805.144V251.673H793.059Z" fill="#6C63FF"/>
<path d="M805.143 306.413H793.059V317.642H805.143V306.413Z" fill="#6C63FF"/>
<path d="M793.059 288.166V290.973H797.892V296.587H793.059V299.395H805.144V288.166H793.059Z" fill="#6C63FF"/>
<path d="M805.143 342.906H793.059V354.135H805.143V342.906Z" fill="#6C63FF"/>
<path d="M793.059 324.659V327.467H797.892V333.081H793.059V335.888H805.144V324.659H793.059Z" fill="#6C63FF"/>
<path d="M805.143 379.399H793.059V390.628H805.143V379.399Z" fill="#6C63FF"/>
<path d="M805.143 427.122H793.059V438.35H805.143V427.122Z" fill="#6C63FF"/>
<path d="M793.059 361.153V363.96H797.892V369.574H793.059V372.382H805.144V361.153H793.059Z" fill="#6C63FF"/>
<path d="M793.059 446.772V449.579H797.892V455.193H793.059V458H805.144V446.772H793.059Z" fill="#6C63FF"/>
<path d="M863.147 145H851.063V156.229H863.147V145Z" fill="#6C63FF"/>
<path d="M863.147 233.427H851.063V244.655H863.147V233.427Z" fill="#6C63FF"/>
<path d="M867.981 414.489H851.063V415.893H867.981V414.489Z" fill="#6C63FF"/>
<path d="M851.063 178.687V181.493H855.896V187.108H851.063V189.915H863.147V178.687H851.063Z" fill="#6C63FF"/>
<path d="M851.063 196.933V199.74H855.896V205.355H851.063V208.162H863.147V196.933H851.063Z" fill="#6C63FF"/>
<path d="M851.063 215.179V217.987H855.896V223.601H851.063V226.408H863.147V215.179H851.063Z" fill="#6C63FF"/>
<path d="M863.147 269.919H851.063V281.148H863.147V269.919Z" fill="#6C63FF"/>
<path d="M851.063 251.673V254.48H855.896V260.094H851.063V262.901H863.147V251.673H851.063Z" fill="#6C63FF"/>
<path d="M863.147 306.413H851.063V317.642H863.147V306.413Z" fill="#6C63FF"/>
<path d="M851.063 288.166V290.973H855.896V296.587H851.063V299.395H863.147V288.166H851.063Z" fill="#6C63FF"/>
<path d="M863.147 342.906H851.063V354.135H863.147V342.906Z" fill="#6C63FF"/>
<path d="M851.063 324.659V327.467H855.896V333.081H851.063V335.888H863.147V324.659H851.063Z" fill="#6C63FF"/>
<path d="M863.147 379.399H851.063V390.628H863.147V379.399Z" fill="#6C63FF"/>
<path d="M863.147 427.122H851.063V438.35H863.147V427.122Z" fill="#6C63FF"/>
<path d="M851.063 361.153V363.96H855.896V369.574H851.063V372.382H863.147V361.153H851.063Z" fill="#6C63FF"/>
<path d="M851.063 446.772V449.579H855.896V455.193H851.063V458H863.147V446.772H851.063Z" fill="#6C63FF"/>
<path d="M681.884 427.122V429.928H686.717V435.543H681.884V438.35H693.968V427.122H681.884Z" fill="#6C63FF"/>
<path d="M681.884 445.368V448.175H686.717V453.79H681.884V456.596H693.968V445.368H681.884Z" fill="#6C63FF"/>
<path d="M619.045 233.427V236.233H623.879V241.848H619.045V244.656H631.131V233.427H619.045Z" fill="#6C63FF"/>
<path d="M619.045 305.01V307.817H623.879V313.431H619.045V316.238H631.131V305.01H619.045Z" fill="#6C63FF"/>
<path d="M619.045 323.255V326.063H623.879V331.678H619.045V334.484H631.131V323.255H619.045Z" fill="#6C63FF"/>
<path d="M619.045 359.749V362.556H623.879V368.17H619.045V370.977H631.131V359.749H619.045Z" fill="#6C63FF"/>
<path d="M619.045 411.682V414.489H623.879V420.104H619.045V422.911H631.131V411.682H619.045Z" fill="#6C63FF"/>
<path d="M619.045 427.122V429.928H623.879V435.543H619.045V438.35H631.131V427.122H619.045Z" fill="#6C63FF"/>
<path d="M756.806 147.807H744.722V159.036H756.806V147.807Z" fill="#6C63FF"/>
<path d="M756.806 166.054H744.722V177.283H756.806V166.054Z" fill="#6C63FF"/>
<path d="M756.806 185.704H739.888V187.107H756.806V185.704Z" fill="#6C63FF"/>
<path d="M756.806 275.534H739.888V276.937H756.806V275.534Z" fill="#6C63FF"/>
<path d="M756.806 290.973H739.888V292.377H756.806V290.973Z" fill="#6C63FF"/>
<path d="M744.721 198.337V201.144H749.556V206.758H744.721V209.565H756.805V198.337H744.721Z" fill="#6C63FF"/>
<path d="M744.721 233.427V236.233H749.556V241.848H744.721V244.656H756.805V233.427H744.721Z" fill="#6C63FF"/>
<path d="M744.721 305.01V307.817H749.556V313.431H744.721V316.238H756.805V305.01H744.721Z" fill="#6C63FF"/>
<path d="M894.566 269.919H882.482V281.148H894.566V269.919Z" fill="#6C63FF"/>
<path d="M894.566 288.166H882.482V299.394H894.566V288.166Z" fill="#6C63FF"/>
<path d="M894.566 307.817H877.648V309.22H894.566V307.817Z" fill="#6C63FF"/>
<path d="M894.566 397.646H877.648V399.049H894.566V397.646Z" fill="#6C63FF"/>
<path d="M894.566 413.085H877.648V414.489H894.566V413.085Z" fill="#6C63FF"/>
<path d="M882.481 320.449V323.256H887.316V328.87H882.481V331.678H894.565V320.449H882.481Z" fill="#6C63FF"/>
<path d="M882.481 355.538V358.346H887.316V363.96H882.481V366.767H894.565V355.538H882.481Z" fill="#6C63FF"/>
<path d="M882.481 427.122V429.928H887.316V435.543H882.481V438.35H894.565V427.122H882.481Z" fill="#6C63FF"/>
<path d="M518.843 296.498C521.438 296.498 523.542 295.276 523.542 293.769C523.542 292.263 521.438 291.041 518.843 291.041C516.248 291.041 514.145 292.263 514.145 293.769C514.145 295.276 516.248 296.498 518.843 296.498Z" fill="#F2F2F2"/>
<path d="M520.409 293.77H517.277V336.517H520.409V293.77Z" fill="#3F3D56"/>
<path d="M561.654 608.078C500.902 596.553 434.468 598.469 364.78 608.078C396.543 579.497 423.956 550.916 392.193 522.334C454.15 535.958 462.828 534.579 531.749 522.334C515.763 550.916 545.668 579.497 561.654 608.078Z" fill="#6C63FF"/>
<path opacity="0.2" d="M561.654 608.078C500.902 596.553 434.468 598.469 364.78 608.078C396.543 579.497 423.956 550.916 392.193 522.334C454.15 535.958 462.828 534.579 531.749 522.334C515.763 550.916 545.668 579.497 561.654 608.078Z" fill="black"/>
<path d="M546.835 595.884C495.229 586.685 438.795 588.214 379.599 595.884C406.58 573.07 429.866 550.256 402.885 527.442C455.515 538.317 462.886 537.216 521.432 527.442C507.853 550.256 533.256 573.07 546.835 595.884Z" fill="#6C63FF"/>
<path d="M527.179 559.125C542.365 559.125 554.676 546.003 554.676 529.816C554.676 513.629 542.365 500.507 527.179 500.507C511.993 500.507 499.682 513.629 499.682 529.816C499.682 546.003 511.993 559.125 527.179 559.125Z" fill="#2F2E41"/>
<path d="M402.355 495.821L421.408 499.206L430.934 528.539L403.414 546.591L371.66 495.821H401.297H402.355Z" fill="#A0616A"/>
<path d="M456.337 540.95C480.889 540.95 500.792 519.735 500.792 493.565C500.792 467.395 480.889 446.18 456.337 446.18C431.785 446.18 411.882 467.395 411.882 493.565C411.882 519.735 431.785 540.95 456.337 540.95Z" fill="#A0616A"/>
<path d="M210.775 320.949C210.775 320.949 102.812 333.359 83.7595 331.103C64.7073 328.846 56.2396 326.59 56.2396 326.59C56.2396 326.59 43.538 344.641 49.8888 352.539C53.4455 357.09 57.7495 360.913 62.5903 363.821C62.5903 363.821 74.2334 360.436 82.7011 363.821C91.1688 367.206 176.904 381.872 191.722 368.334C206.541 354.795 210.775 320.949 210.775 320.949Z" fill="#2F2E41"/>
<path d="M218.184 572.54C218.184 572.54 147.267 551.104 134.565 456.334V447.308C134.565 447.308 120.534 473.547 115.513 478.898C109.692 485.103 89.0518 540.95 90.1102 546.591C91.1687 552.232 90.1102 554.488 90.1102 554.488L59.4149 551.104V540.95C59.4149 540.95 75.821 488.488 76.8795 476.078C77.938 463.667 117.63 377.359 117.63 377.359C117.63 377.359 132.449 344.641 157.852 377.359C183.255 410.078 185.372 432.642 185.372 432.642L218.184 500.334L218.184 572.54Z" fill="#2F2E41"/>
<path d="M59.4149 323.205L25.5443 310.795C25.5443 310.795 -6.20953 285.974 1.19969 310.795C8.6089 335.616 42.4796 389.77 52.0057 384.129C61.5318 378.488 72.9885 364.485 70.4356 362.461C67.8826 360.436 50.9473 345.77 59.4149 323.205Z" fill="#2F2E41"/>
<path d="M63.5091 534.289L36.167 548.522C36.167 548.522 3.10226 553.944 21.5422 564.11C39.9822 574.277 90.8511 585.121 93.3945 575.632C95.938 566.144 94.9288 550.396 92.2541 550.814C89.5794 551.233 71.1394 553.266 63.5091 534.289Z" fill="#2F2E41"/>
<path d="M204.424 498.078C204.424 498.078 190.664 561.257 213.95 574.796C237.236 588.334 400.239 590.591 412.94 565.77C425.642 540.949 419.291 540.95 419.291 540.95L385.42 500.334L412.94 498.078C412.94 498.078 412.94 489.052 403.414 487.924C393.888 486.796 364.251 475.513 338.848 483.411C313.445 491.308 298.627 467.616 298.627 467.616L204.424 498.078Z" fill="#575A89"/>
<path d="M186.43 300.641L168.436 405.565L292.276 389.77L314.503 295L186.43 300.641Z" fill="#3F3D56"/>
<path d="M190.135 304.59L175.317 398.231L288.042 384.129L309.74 298.949L190.135 304.59Z" fill="white"/>
<path d="M172.67 406.693L168.436 405.565L166.319 410.077L200.19 510.488L203.376 509.19L204.423 502.591L172.67 406.693Z" fill="#B3B3B3"/>
<path d="M168.436 404.436L202.307 509.36L330.38 489.052L292.276 389.77L168.436 404.436Z" fill="#D0CDE1"/>
<path d="M185.372 401.052V406.693L279.574 395.411L278.516 389.77L185.372 401.052Z" fill="#3F3D56"/>
<path d="M187.488 412.334L202.307 456.334L298.627 443.924L281.692 402.18L187.488 412.334Z" fill="#3F3D56"/>
<path d="M308.153 474.385L304.977 465.36C304.977 465.36 280.633 420.231 267.931 429.257C255.23 438.283 294.393 482.283 294.393 482.283H307.094L308.153 474.385Z" fill="#A0616A"/>
<path d="M227.71 481.155L224.535 467.616C224.535 467.616 216.067 425.872 230.885 428.129C245.704 430.385 249.938 469.873 249.938 469.873L248.879 478.898L227.71 481.155Z" fill="#A0616A"/>
<path d="M253.113 475.514C253.113 475.514 225.593 471.001 224.534 477.77C223.476 484.539 218.184 586.078 244.645 589.463C271.107 592.847 402.356 607.514 388.596 572.54C374.836 537.565 353.666 542.078 353.666 542.078L263.697 552.232L253.113 475.514Z" fill="#575A89"/>
<path d="M336.202 488.488L308.153 467.616L289.63 482.847L312.916 509.924L336.202 488.488Z" fill="#575A89"/>
<path opacity="0.2" d="M261.052 508.796L265.285 551.668L338.319 547.155L274.811 546.027L261.052 508.796Z" fill="black"/>
<path d="M478.282 558.585C507.51 558.585 531.205 533.329 531.205 502.175C531.205 471.02 507.51 445.764 478.282 445.764C449.053 445.764 425.359 471.02 425.359 502.175C425.359 533.329 449.053 558.585 478.282 558.585Z" fill="#2F2E41"/>
<path d="M185.901 372.282L285.396 368.898L286.455 364.385L186.959 368.118L185.901 372.282Z" fill="#E6E6E6"/>
<path d="M336.128 313.109H677.319V129H336.128V313.109Z" fill="#3F3D56"/>
<path d="M432.143 190.954H397.386V194.041H432.143V190.954Z" fill="#6C63FF"/>
<path d="M478.484 190.954H443.728V194.041H478.484V190.954Z" fill="#6C63FF"/>
<path d="M545.825 219.51H511.068V222.598H545.825V219.51Z" fill="#6C63FF"/>
<path d="M592.891 219.51H558.134V222.598H592.891V219.51Z" fill="#6C63FF"/>
<path d="M592.891 190.954H490.794V194.041H592.891V190.954Z" fill="#6C63FF"/>
<path d="M499.483 219.51H397.386V222.598H499.483V219.51Z" fill="#6C63FF"/>
<path d="M499.483 248.067H397.386V251.155H499.483V248.067Z" fill="#6C63FF"/>
<path d="M592.891 248.067H521.93V251.155H592.891V248.067Z" fill="#6C63FF"/>
<path d="M387.618 203.987L375.389 190.954L387.618 177.92L390.063 180.528L380.282 190.954L390.063 201.379L387.618 203.987Z" fill="#6C63FF"/>
<path d="M625.831 264.188L623.384 261.581L633.166 251.154L623.384 240.728L625.831 238.121L638.058 251.154L625.831 264.188Z" fill="#6C63FF"/>
<path d="M612.958 237.499L605.716 262.968L609.028 264.038L616.269 238.569L612.958 237.499Z" fill="#6C63FF"/>
<path d="M671.416 562.048L668.134 577.167L729.157 596.156L734.001 573.843L671.416 562.048Z" fill="#FFB6B6"/>
<path d="M677.551 559.191L671.087 588.964L671.087 588.965C669.994 593.997 666.801 598.418 662.21 601.256C657.618 604.095 652.005 605.117 646.604 604.1L645.942 603.975L656.525 555.229L677.551 559.191Z" fill="#2F2E41"/>
<path d="M740.568 353.806C763.452 353.806 782.003 336.521 782.003 315.2C782.003 293.879 763.452 276.594 740.568 276.594C717.684 276.594 699.133 293.879 699.133 315.2C699.133 336.521 717.684 353.806 740.568 353.806Z" fill="#FEB8B8"/>
<path d="M779.268 281.894C773.073 272.522 763.376 265.615 752.044 262.505L746.957 265.963V261.472C744.236 261.084 741.481 260.935 738.73 261.026L734.341 264.726V261.333C727.843 262.086 721.583 264.084 715.956 267.203C710.328 270.322 705.455 274.493 701.644 279.454C692.114 292.255 690.505 310.065 699.879 322.969C702.452 315.6 705.575 308.687 708.149 301.32C710.171 301.576 712.221 301.586 714.246 301.347L717.377 294.541L718.251 301.059C727.955 300.272 742.348 298.542 751.547 296.957L750.653 291.957L756.005 296.112C758.823 295.508 760.496 294.959 760.358 294.54C767.2 304.817 775.573 311.38 782.414 321.657C785.012 307.166 788.003 295.118 779.268 281.894Z" fill="#2F2E41"/>
<path d="M754.049 567.828C812.972 567.828 860.738 555.379 860.738 540.023C860.738 524.666 812.972 512.218 754.049 512.218C695.127 512.218 647.361 524.666 647.361 540.023C647.361 555.379 695.127 567.828 754.049 567.828Z" fill="#2F2E41"/>
<path d="M829.682 414.476C828.257 406.489 826.788 398.349 822.804 391.154C820.186 386.442 816.029 381.951 810.426 381.019C809.323 380.927 808.238 380.693 807.203 380.324C805.562 379.587 783.5 367.853 779.994 365.809C776.983 364.055 772.23 360.806 769.834 360.806C767.423 360.757 758.179 362.761 722.097 360.133C716.028 362.403 710.151 365.096 704.515 368.188C704.399 368.116 667.066 386.795 665.663 386.746C663.007 386.642 660.538 388.226 659.015 390.222C657.493 392.217 656.779 394.687 656.031 397.076C664.185 413.995 671.646 430.936 679.801 447.855C680.183 448.493 680.386 449.209 680.391 449.939C680.227 450.697 679.88 451.409 679.376 452.023C675.377 458.009 675.504 465.537 675.941 472.572C676.378 479.606 676.919 487.037 673.545 493.342C672.627 495.074 671.433 496.658 670.56 498.389C668.516 502.31 667.778 514.85 668.971 519.063L818.561 523.056C815.345 514.818 829.682 414.476 829.682 414.476Z" fill="#6C63FF"/>
<path d="M643.101 448.605C642.802 450.617 642.772 452.656 643.011 454.674L645.155 483.362C645.357 486.066 645.555 488.764 645.827 491.461C646.341 496.695 647.11 501.888 648.064 507.073C648.085 507.809 648.419 508.508 648.993 509.015C649.566 509.522 650.332 509.796 651.122 509.777C660.56 511.638 670.311 511.563 679.943 511.057C694.641 510.292 732.244 508.846 734.542 506.066C736.839 503.285 735.5 498.787 732.505 496.539C729.509 494.291 679.886 488.809 679.886 488.809C680.371 485.229 681.834 481.858 683.221 478.459C685.714 472.43 688.041 466.204 688.086 459.746C688.131 453.288 685.52 446.498 679.842 442.798C675.171 439.761 669.158 439.197 663.466 439.322C659.325 439.433 652.17 438.509 648.388 440.017C645.395 441.245 643.66 445.875 643.101 448.605Z" fill="#FBBEBE"/>
<path d="M829.948 513.455C832.432 512.573 835.17 512.892 837.833 513.226C846.406 514.317 855.105 515.437 863.051 518.627C866.781 520.116 870.333 522.103 872.855 525.028C875.091 527.663 876.398 530.888 877.637 534.065L880.502 541.378C881.721 544.125 882.56 547.005 883.002 549.949C883.897 558.701 877.473 566.952 869.393 571.498C861.313 576.045 851.801 577.664 842.534 579.36C833.267 581.056 823.965 582.932 814.736 584.921C810.431 585.962 806.064 586.763 801.657 587.319C791.779 588.361 781.454 586.826 772.068 589.87C768.337 591.087 764.674 592.894 760.805 593.735C758.233 594.239 755.632 594.608 753.015 594.841L735.252 596.731C731.639 597.181 728.003 597.441 724.359 597.509C716.6 597.509 708.968 595.798 701.433 594.086C700.633 593.955 699.871 593.668 699.197 593.245C698.003 592.369 697.742 590.819 697.57 589.415C696.809 583.2 696.144 576.979 695.573 570.751C695.394 568.728 695.26 566.538 696.446 564.836C697.939 562.752 700.849 562.097 703.505 561.693C714.767 559.977 726.177 559.239 737.586 559.49C741.92 555.451 749.068 555.43 754.746 553.233C756.834 552.339 758.856 551.315 760.797 550.168C770.953 544.647 782.302 541.306 794.019 540.387C796.314 540.322 798.593 540.019 800.816 539.484C805.209 538.212 809.217 534.749 813.73 535.598C814.289 534.159 814.678 532.233 815.967 531.246C816.606 530.739 817.399 530.398 817.989 529.856C819.235 528.681 819.347 526.832 819.16 525.192C818.973 523.551 818.555 521.869 819.01 520.27C819.2 519.665 819.479 519.087 819.839 518.553C822.069 514.957 825.449 513.108 829.948 513.455Z" fill="#2F2E41"/>
<path d="M655.6 397.591C654.873 398.3 654.309 399.14 653.944 400.059C647.913 412.722 644.351 426.285 643.424 440.112C643.441 440.786 643.274 441.453 642.939 442.052C642.61 442.45 642.243 442.819 641.843 443.157C641.494 443.542 641.23 443.987 641.066 444.468C640.902 444.948 640.841 445.454 640.887 445.956C640.933 446.458 641.084 446.947 641.333 447.394C641.581 447.842 641.922 448.239 642.335 448.564C642.403 448.618 642.473 448.669 642.544 448.718C643.775 446.56 646.722 445.854 649.341 445.667C661.882 444.742 674.133 450.178 686.711 449.768C685.824 446.911 684.548 444.165 683.824 441.274C680.623 428.435 688.606 414.456 683.712 402.089C682.734 399.614 681.101 397.181 678.527 396.097C677.461 395.697 676.346 395.422 675.207 395.278C672.029 394.743 665.701 392.456 662.628 393.374C661.494 393.715 661.047 394.708 660.106 395.309C658.678 396.159 656.783 396.471 655.6 397.591Z" fill="#6C63FF"/>
<path d="M829.772 440.017C825.989 438.509 818.835 439.433 814.693 439.322C809.002 439.197 802.989 439.761 798.318 442.798C792.64 446.498 790.029 453.288 790.074 459.746C790.118 466.204 792.446 472.43 794.938 478.459C796.326 481.858 797.788 485.229 798.273 488.809C798.273 488.809 748.651 494.291 745.655 496.539C742.66 498.787 741.321 503.285 743.618 506.066C745.916 508.846 817.6 511.638 827.037 509.777C827.828 509.796 828.594 509.522 829.167 509.015C829.74 508.508 830.075 507.809 830.096 507.073C831.05 501.888 831.818 496.695 832.333 491.461C832.605 488.764 832.803 486.066 833.005 483.362L835.149 454.674C835.388 452.656 835.358 450.617 835.059 448.605C834.5 445.875 832.765 441.245 829.772 440.017Z" fill="#FBBEBE"/>
<path d="M818.053 395.309C817.113 394.708 816.666 393.715 815.531 393.374C812.458 392.456 806.131 394.743 802.953 395.278C801.814 395.422 800.699 395.697 799.633 396.097C797.059 397.181 795.426 399.614 794.448 402.089C789.554 414.456 797.537 428.435 794.336 441.274C793.612 444.165 792.336 446.911 791.448 449.768C804.027 450.178 816.278 444.742 828.819 445.667C831.438 445.854 834.385 446.56 835.616 448.718C835.687 448.669 835.757 448.618 835.825 448.564C836.238 448.239 836.579 447.842 836.827 447.394C837.076 446.947 837.227 446.458 837.273 445.956C837.319 445.454 837.258 444.948 837.094 444.468C836.93 443.987 836.666 443.542 836.317 443.157C835.917 442.819 835.55 442.45 835.22 442.052C834.886 441.453 834.719 440.786 834.736 440.112C833.809 426.285 830.247 412.722 824.216 400.059C823.85 399.14 823.287 398.3 822.56 397.591C821.376 396.471 819.482 396.159 818.053 395.309Z" fill="#6C63FF"/>
<path d="M839.031 583.63L836.851 598.919L772.516 598.357L775.736 575.791L839.031 583.63Z" fill="#FFB6B6"/>
<path d="M855.495 581.7L848.462 631L847.793 630.917C842.331 630.241 837.381 627.57 834.032 623.494C830.683 619.417 829.209 614.268 829.934 609.178L829.935 609.177L834.23 579.066L855.495 581.7Z" fill="#2F2E41"/>
<path d="M687.679 521.193C687.679 521.888 686.508 521.193 686.401 520.449C685.58 514.825 680.79 510.188 675.209 507.936C669.629 505.684 663.272 505.565 657.229 506.101C648.09 506.907 637.831 510.167 634.489 518.126C633.698 519.987 626.29 536.554 627.013 540.28C628.96 550.221 636.257 558.722 645.098 564.61C653.939 570.498 664.269 574.015 674.574 577.188C701.818 585.56 729.77 591.78 758.134 595.783C762.73 596.43 767.371 597.027 771.772 598.403C775.711 599.634 779.397 601.476 783.247 602.922C792.2 606.271 801.832 607.468 811.374 608.643C813 608.838 814.865 608.976 816.067 607.948C817.619 606.608 817.105 604.27 816.663 602.345C815.044 595.024 816.403 587.403 820.476 580.963C822.074 578.461 824.151 575.895 823.849 572.999C823.491 569.621 819.88 567.23 816.283 566.687C812.687 566.145 809.032 566.945 805.42 567.382C804.182 567.647 802.885 567.528 801.727 567.042C801.19 566.704 800.703 566.302 800.279 565.846C797.792 563.61 794.608 562.166 791.185 561.72C787.762 561.274 784.275 561.85 781.225 563.365C779.889 564.06 777.87 562.51 776.48 561.926L760.789 555.308C742.764 547.711 724.65 540.078 705.58 535.268C704.058 534.989 702.612 534.428 701.327 533.62C700.38 532.925 699.701 531.982 698.828 531.208C696.925 529.532 694.275 528.865 691.994 527.676C689.713 526.487 687.156 523.577 687.679 521.193Z" fill="#2F2E41"/>
<path d="M728.296 511.147C734.472 511.147 739.479 506.482 739.479 500.728C739.479 494.973 734.472 490.308 728.296 490.308C722.12 490.308 717.113 494.973 717.113 500.728C717.113 506.482 722.12 511.147 728.296 511.147Z" fill="#FBBEBE"/>
<path d="M753.059 511.147C759.235 511.147 764.242 506.482 764.242 500.728C764.242 494.973 759.235 490.308 753.059 490.308C746.883 490.308 741.876 494.973 741.876 500.728C741.876 506.482 746.883 511.147 753.059 511.147Z" fill="#FBBEBE"/>
<path d="M822.091 524.207H668.449C666.656 524.205 664.936 523.54 663.667 522.359C662.399 521.177 661.685 519.575 661.683 517.903V431.058C661.685 429.386 662.399 427.784 663.667 426.602C664.936 425.421 666.656 424.756 668.449 424.754H822.091C823.884 424.756 825.604 425.421 826.872 426.602C828.141 427.784 828.854 429.386 828.857 431.058V517.903C828.854 519.575 828.141 521.177 826.872 522.359C825.604 523.54 823.884 524.205 822.091 524.207Z" fill="#3F3D56"/>
<path d="M744.897 478.652C747.37 478.652 749.374 476.784 749.374 474.481C749.374 472.177 747.37 470.31 744.897 470.31C742.425 470.31 740.421 472.177 740.421 474.481C740.421 476.784 742.425 478.652 744.897 478.652Z" fill="white"/>
</svg>
