<svg width="997" height="631" viewBox="0 0 997 631" fill="none" xmlns="http://www.w3.org/2000/svg">
<path d="M195.076 17H182.753V27H195.076V17Z" fill="#6C63FF"/>
<path d="M218.696 33H207.4V43H218.696V33Z" fill="#6C63FF"/>
<path d="M195.076 96H182.753V106H195.076V96Z" fill="#6C63FF"/>
<path d="M173.51 33H161.186V43H173.51V33Z" fill="#6C63FF"/>
<path d="M132.431 131H121.135V142H132.431V131Z" fill="#6C63FF"/>
<path d="M197.13 5H180.699V7H197.13V5Z" fill="#6C63FF"/>
<path d="M132.431 71H116V73H132.431V71Z" fill="#6C63FF"/>
<path d="M132.431 86H116V87H132.431V86Z" fill="#6C63FF"/>
<path d="M121.135 2V4.24982H125.653V8.75018H121.135V11H132.431V2H121.135Z" fill="#6C63FF"/>
<path d="M207.4 0V2.5004H211.918V7.50041H207.4V10H218.696V0H207.4Z" fill="#6C63FF"/>
<path d="M207.4 50V52.4998H211.918V57.5002H207.4V60H218.696V50H207.4Z" fill="#6C63FF"/>
<path d="M207.4 67V69.5004H211.918V74.5004H207.4V77H218.696V67H207.4Z" fill="#6C63FF"/>
<path d="M207.4 16V18.4996H211.918V23.4996H207.4V26H218.696V16H207.4Z" fill="#6C63FF"/>
<path d="M195.076 50H182.753V60H195.076V50Z" fill="#6C63FF"/>
<path d="M195.076 81H182.753V90H195.076V81Z" fill="#6C63FF"/>
<path d="M182.753 65V67.7496H187.682V73.2495H182.753V76H195.076V65H182.753Z" fill="#6C63FF"/>
<path d="M161.186 0V2.5004H166.115V7.50041H161.186V10H173.51V0H161.186Z" fill="#6C63FF"/>
<path d="M161.186 17V19.5004H166.115V24.4996H161.186V27H173.51V17H161.186Z" fill="#6C63FF"/>
<path d="M173.51 67H161.186V77H173.51V67Z" fill="#6C63FF"/>
<path d="M161.186 50V52.4998H166.115V57.5002H161.186V60H173.51V50H161.186Z" fill="#6C63FF"/>
<path d="M173.51 100H161.186V110H173.51V100Z" fill="#6C63FF"/>
<path d="M161.186 83V85.4996H166.115V90.4996H161.186V93H173.51V83H161.186Z" fill="#6C63FF"/>
<path d="M173.51 133H161.186V143H173.51V133Z" fill="#6C63FF"/>
<path d="M195.076 130H182.753V141H195.076V130Z" fill="#6C63FF"/>
<path d="M161.186 117V119.25H166.115V123.75H161.186V126H173.51V117H161.186Z" fill="#6C63FF"/>
<path d="M207.4 117V119.25H211.918V123.75H207.4V126H218.696V117H207.4Z" fill="#6C63FF"/>
<path d="M340.905 33H328.581V43H340.905V33Z" fill="#6C63FF"/>
<path d="M328.581 0V2.5004H333.512V7.50041H328.581V10H340.905V0H328.581Z" fill="#6C63FF"/>
<path d="M328.581 50V52.4998H333.512V57.5002H328.581V60H340.905V50H328.581Z" fill="#6C63FF"/>
<path d="M328.581 67V69.5004H333.512V74.5004H328.581V77H340.905V67H328.581Z" fill="#6C63FF"/>
<path d="M328.581 16V18.4996H333.512V23.4996H328.581V26H340.905V16H328.581Z" fill="#6C63FF"/>
<path d="M328.581 117V119.25H333.512V123.75H328.581V126H340.905V117H328.581Z" fill="#6C63FF"/>
<path d="M195.076 147H182.753V157H195.076V147Z" fill="#6C63FF"/>
<path d="M161.186 150V152.5H166.115V157.5H161.186V160H173.51V150H161.186Z" fill="#6C63FF"/>
<path d="M304.961 33H292.638V43H304.961V33Z" fill="#6C63FF"/>
<path d="M292.638 0V2.5004H297.568V7.50041H292.638V10H304.961V0H292.638Z" fill="#6C63FF"/>
<path d="M292.638 17V19.5004H297.568V24.4996H292.638V27H304.961V17H292.638Z" fill="#6C63FF"/>
<path d="M304.961 67H292.638V77H304.961V67Z" fill="#6C63FF"/>
<path d="M292.638 50V52.4998H297.568V57.5002H292.638V60H304.961V50H292.638Z" fill="#6C63FF"/>
<path d="M304.961 100H292.638V110H304.961V100Z" fill="#6C63FF"/>
<path d="M292.638 83V85.4996H297.568V90.4996H292.638V93H304.961V83H292.638Z" fill="#6C63FF"/>
<path d="M304.961 133H292.638V143H304.961V133Z" fill="#6C63FF"/>
<path d="M292.638 117V119.25H297.568V123.75H292.638V126H304.961V117H292.638Z" fill="#6C63FF"/>
<path d="M292.638 150V152.5H297.568V157.5H292.638V160H304.961V150H292.638Z" fill="#6C63FF"/>
<path d="M362.471 33H350.148V43H362.471V33Z" fill="#6C63FF"/>
<path d="M350.148 0V2.5004H355.078V7.50041H350.148V10H362.471V0H350.148Z" fill="#6C63FF"/>
<path d="M350.148 17V19.5004H355.078V24.4996H350.148V27H362.471V17H350.148Z" fill="#6C63FF"/>
<path d="M362.471 67H350.148V77H362.471V67Z" fill="#6C63FF"/>
<path d="M350.148 50V52.4998H355.078V57.5002H350.148V60H362.471V50H350.148Z" fill="#6C63FF"/>
<path d="M362.471 100H350.148V110H362.471V100Z" fill="#6C63FF"/>
<path d="M350.148 83V85.4996H355.078V90.4996H350.148V93H362.471V83H350.148Z" fill="#6C63FF"/>
<path d="M362.471 133H350.148V143H362.471V133Z" fill="#6C63FF"/>
<path d="M350.148 117V119.25H355.078V123.75H350.148V126H362.471V117H350.148Z" fill="#6C63FF"/>
<path d="M350.148 150V152.5H355.078V157.5H350.148V160H362.471V150H350.148Z" fill="#6C63FF"/>
<path d="M121.135 33V35.4996H125.653V40.4996H121.135V43H132.431V33H121.135Z" fill="#6C63FF"/>
<path d="M121.135 98V100.75H125.653V106.25H121.135V109H132.431V98H121.135Z" fill="#6C63FF"/>
<path d="M121.135 115V117.5H125.653V122.5H121.135V125H132.431V115H121.135Z" fill="#6C63FF"/>
<path d="M121.135 148V150.5H125.653V155.5H121.135V158H132.431V148H121.135Z" fill="#6C63FF"/>
<path d="M257.721 71H240.263V73H257.721V71Z" fill="#6C63FF"/>
<path d="M257.721 86H240.263V87H257.721V86Z" fill="#6C63FF"/>
<path d="M245.397 2V4.24982H250.326V8.75018H245.397V11H257.721V2H245.397Z" fill="#6C63FF"/>
<path d="M245.397 33V35.4996H250.326V40.4996H245.397V43H257.721V33H245.397Z" fill="#6C63FF"/>
<path d="M245.397 98V100.75H250.326V106.25H245.397V109H257.721V98H245.397Z" fill="#6C63FF"/>
<path d="M393.28 67H381.984V77H393.28V67Z" fill="#6C63FF"/>
<path d="M393.28 83H381.984V93H393.28V83Z" fill="#6C63FF"/>
<path d="M393.28 101H376.849V103H393.28V101Z" fill="#6C63FF"/>
<path d="M381.984 112V114.75H386.502V120.25H381.984V123H393.28V112H381.984Z" fill="#6C63FF"/>
<path d="M381.984 144V146.75H386.502V152.25H381.984V155H393.28V144H381.984Z" fill="#6C63FF"/>
<path d="M493.923 17H482.626V27H493.923V17Z" fill="#6C63FF"/>
<path d="M518.57 33H506.246V43H518.57V33Z" fill="#6C63FF"/>
<path d="M493.923 96H482.626V106H493.923V96Z" fill="#6C63FF"/>
<path d="M472.356 33H461.06V43H472.356V33Z" fill="#6C63FF"/>
<path d="M432.305 131H419.981V142H432.305V131Z" fill="#6C63FF"/>
<path d="M497.004 5H479.545V7H497.004V5Z" fill="#6C63FF"/>
<path d="M432.305 71H414.846V73H432.305V71Z" fill="#6C63FF"/>
<path d="M432.305 86H414.846V87H432.305V86Z" fill="#6C63FF"/>
<path d="M419.981 2V4.24982H424.912V8.75018H419.981V11H432.305V2H419.981Z" fill="#6C63FF"/>
<path d="M506.246 0V2.5004H511.175V7.50041H506.246V10H518.57V0H506.246Z" fill="#6C63FF"/>
<path d="M506.246 50V52.4998H511.175V57.5002H506.246V60H518.57V50H506.246Z" fill="#6C63FF"/>
<path d="M506.246 67V69.5004H511.175V74.5004H506.246V77H518.57V67H506.246Z" fill="#6C63FF"/>
<path d="M506.246 16V18.4996H511.175V23.4996H506.246V26H518.57V16H506.246Z" fill="#6C63FF"/>
<path d="M493.923 50H482.626V60H493.923V50Z" fill="#6C63FF"/>
<path d="M493.923 81H482.626V90H493.923V81Z" fill="#6C63FF"/>
<path d="M482.626 65V67.7496H487.144V73.2495H482.626V76H493.923V65H482.626Z" fill="#6C63FF"/>
<path d="M461.06 0V2.5004H465.578V7.50041H461.06V10H472.356V0H461.06Z" fill="#6C63FF"/>
<path d="M461.06 17V19.5004H465.578V24.4996H461.06V27H472.356V17H461.06Z" fill="#6C63FF"/>
<path d="M472.356 67H461.06V77H472.356V67Z" fill="#6C63FF"/>
<path d="M461.06 50V52.4998H465.578V57.5002H461.06V60H472.356V50H461.06Z" fill="#6C63FF"/>
<path d="M472.356 100H461.06V110H472.356V100Z" fill="#6C63FF"/>
<path d="M461.06 83V85.4996H465.578V90.4996H461.06V93H472.356V83H461.06Z" fill="#6C63FF"/>
<path d="M472.356 133H461.06V143H472.356V133Z" fill="#6C63FF"/>
<path d="M493.923 130H482.626V141H493.923V130Z" fill="#6C63FF"/>
<path d="M461.06 117V119.25H465.578V123.75H461.06V126H472.356V117H461.06Z" fill="#6C63FF"/>
<path d="M506.246 117V119.25H511.175V123.75H506.246V126H518.57V117H506.246Z" fill="#6C63FF"/>
<path d="M639.751 33H628.455V43H639.751V33Z" fill="#6C63FF"/>
<path d="M628.455 0V2.5004H632.973V7.50041H628.455V10H639.751V0H628.455Z" fill="#6C63FF"/>
<path d="M628.455 50V52.4998H632.973V57.5002H628.455V60H639.751V50H628.455Z" fill="#6C63FF"/>
<path d="M628.455 67V69.5004H632.973V74.5004H628.455V77H639.751V67H628.455Z" fill="#6C63FF"/>
<path d="M628.455 16V18.4996H632.973V23.4996H628.455V26H639.751V16H628.455Z" fill="#6C63FF"/>
<path d="M628.455 117V119.25H632.973V123.75H628.455V126H639.751V117H628.455Z" fill="#6C63FF"/>
<path d="M493.923 147H482.626V157H493.923V147Z" fill="#6C63FF"/>
<path d="M461.06 150V152.5H465.578V157.5H461.06V160H472.356V150H461.06Z" fill="#6C63FF"/>
<path d="M603.808 33H592.511V43H603.808V33Z" fill="#6C63FF"/>
<path d="M592.511 0V2.5004H597.031V7.50041H592.511V10H603.808V0H592.511Z" fill="#6C63FF"/>
<path d="M592.511 17V19.5004H597.031V24.4996H592.511V27H603.808V17H592.511Z" fill="#6C63FF"/>
<path d="M603.808 67H592.511V77H603.808V67Z" fill="#6C63FF"/>
<path d="M592.511 50V52.4998H597.031V57.5002H592.511V60H603.808V50H592.511Z" fill="#6C63FF"/>
<path d="M603.808 100H592.511V110H603.808V100Z" fill="#6C63FF"/>
<path d="M592.511 83V85.4996H597.031V90.4996H592.511V93H603.808V83H592.511Z" fill="#6C63FF"/>
<path d="M603.808 133H592.511V143H603.808V133Z" fill="#6C63FF"/>
<path d="M592.511 117V119.25H597.031V123.75H592.511V126H603.808V117H592.511Z" fill="#6C63FF"/>
<path d="M592.511 150V152.5H597.031V157.5H592.511V160H603.808V150H592.511Z" fill="#6C63FF"/>
<path d="M661.318 33H650.021V43H661.318V33Z" fill="#6C63FF"/>
<path d="M650.021 0V2.5004H654.541V7.50041H650.021V10H661.318V0H650.021Z" fill="#6C63FF"/>
<path d="M650.021 17V19.5004H654.541V24.4996H650.021V27H661.318V17H650.021Z" fill="#6C63FF"/>
<path d="M661.318 67H650.021V77H661.318V67Z" fill="#6C63FF"/>
<path d="M650.021 50V52.4998H654.541V57.5002H650.021V60H661.318V50H650.021Z" fill="#6C63FF"/>
<path d="M661.318 100H650.021V110H661.318V100Z" fill="#6C63FF"/>
<path d="M650.021 83V85.4996H654.541V90.4996H650.021V93H661.318V83H650.021Z" fill="#6C63FF"/>
<path d="M661.318 133H650.021V143H661.318V133Z" fill="#6C63FF"/>
<path d="M650.021 117V119.25H654.541V123.75H650.021V126H661.318V117H650.021Z" fill="#6C63FF"/>
<path d="M650.021 150V152.5H654.541V157.5H650.021V160H661.318V150H650.021Z" fill="#6C63FF"/>
<path d="M419.981 33V35.4996H424.912V40.4996H419.981V43H432.305V33H419.981Z" fill="#6C63FF"/>
<path d="M419.981 98V100.75H424.912V106.25H419.981V109H432.305V98H419.981Z" fill="#6C63FF"/>
<path d="M419.981 115V117.5H424.912V122.5H419.981V125H432.305V115H419.981Z" fill="#6C63FF"/>
<path d="M419.981 148V150.5H424.912V155.5H419.981V158H432.305V148H419.981Z" fill="#6C63FF"/>
<path d="M556.567 71H540.136V73H556.567V71Z" fill="#6C63FF"/>
<path d="M556.567 86H540.136V87H556.567V86Z" fill="#6C63FF"/>
<path d="M544.244 2V4.24982H549.174V8.75018H544.244V11H556.567V2H544.244Z" fill="#6C63FF"/>
<path d="M544.244 33V35.4996H549.174V40.4996H544.244V43H556.567V33H544.244Z" fill="#6C63FF"/>
<path d="M544.244 98V100.75H549.174V106.25H544.244V109H556.567V98H544.244Z" fill="#6C63FF"/>
<path d="M693.154 67H680.83V77H693.154V67Z" fill="#6C63FF"/>
<path d="M693.154 83H680.83V93H693.154V83Z" fill="#6C63FF"/>
<path d="M693.154 101H675.695V103H693.154V101Z" fill="#6C63FF"/>
<path d="M680.83 112V114.75H685.76V120.25H680.83V123H693.154V112H680.83Z" fill="#6C63FF"/>
<path d="M680.83 144V146.75H685.76V152.25H680.83V155H693.154V144H680.83Z" fill="#6C63FF"/>
<path d="M793.796 17H781.472V27H793.796V17Z" fill="#6C63FF"/>
<path d="M817.416 33H805.093V43H817.416V33Z" fill="#6C63FF"/>
<path d="M793.796 96H781.472V106H793.796V96Z" fill="#6C63FF"/>
<path d="M772.23 33H759.906V43H772.23V33Z" fill="#6C63FF"/>
<path d="M731.151 131H718.828V142H731.151V131Z" fill="#6C63FF"/>
<path d="M795.85 5H779.419V7H795.85V5Z" fill="#6C63FF"/>
<path d="M731.151 71H714.72V73H731.151V71Z" fill="#6C63FF"/>
<path d="M731.151 86H714.72V87H731.151V86Z" fill="#6C63FF"/>
<path d="M718.828 2V4.24982H723.757V8.75018H718.828V11H731.151V2H718.828Z" fill="#6C63FF"/>
<path d="M805.093 0V2.5004H810.021V7.50041H805.093V10H817.416V0H805.093Z" fill="#6C63FF"/>
<path d="M805.093 50V52.4998H810.021V57.5002H805.093V60H817.416V50H805.093Z" fill="#6C63FF"/>
<path d="M805.093 67V69.5004H810.021V74.5004H805.093V77H817.416V67H805.093Z" fill="#6C63FF"/>
<path d="M805.093 16V18.4996H810.021V23.4996H805.093V26H817.416V16H805.093Z" fill="#6C63FF"/>
<path d="M793.796 50H781.472V60H793.796V50Z" fill="#6C63FF"/>
<path d="M793.796 81H781.472V90H793.796V81Z" fill="#6C63FF"/>
<path d="M781.472 65V67.7496H786.401V73.2495H781.472V76H793.796V65H781.472Z" fill="#6C63FF"/>
<path d="M759.906 0V2.5004H764.835V7.50041H759.906V10H772.23V0H759.906Z" fill="#6C63FF"/>
<path d="M759.906 17V19.5004H764.835V24.4996H759.906V27H772.23V17H759.906Z" fill="#6C63FF"/>
<path d="M772.23 67H759.906V77H772.23V67Z" fill="#6C63FF"/>
<path d="M759.906 50V52.4998H764.835V57.5002H759.906V60H772.23V50H759.906Z" fill="#6C63FF"/>
<path d="M772.23 100H759.906V110H772.23V100Z" fill="#6C63FF"/>
<path d="M759.906 83V85.4996H764.835V90.4996H759.906V93H772.23V83H759.906Z" fill="#6C63FF"/>
<path d="M772.23 133H759.906V143H772.23V133Z" fill="#6C63FF"/>
<path d="M793.796 130H781.472V141H793.796V130Z" fill="#6C63FF"/>
<path d="M759.906 117V119.25H764.835V123.75H759.906V126H772.23V117H759.906Z" fill="#6C63FF"/>
<path d="M805.093 117V119.25H810.021V123.75H805.093V126H817.416V117H805.093Z" fill="#6C63FF"/>
<path d="M939.625 33H927.301V43H939.625V33Z" fill="#6C63FF"/>
<path d="M927.301 0V2.5004H932.23V7.50041H927.301V10H939.625V0H927.301Z" fill="#6C63FF"/>
<path d="M927.301 50V52.4998H932.23V57.5002H927.301V60H939.625V50H927.301Z" fill="#6C63FF"/>
<path d="M927.301 67V69.5004H932.23V74.5004H927.301V77H939.625V67H927.301Z" fill="#6C63FF"/>
<path d="M927.301 16V18.4996H932.23V23.4996H927.301V26H939.625V16H927.301Z" fill="#6C63FF"/>
<path d="M927.301 117V119.25H932.23V123.75H927.301V126H939.625V117H927.301Z" fill="#6C63FF"/>
<path d="M793.796 147H781.472V157H793.796V147Z" fill="#6C63FF"/>
<path d="M759.906 150V152.5H764.835V157.5H759.906V160H772.23V150H759.906Z" fill="#6C63FF"/>
<path d="M903.681 33H891.358V43H903.681V33Z" fill="#6C63FF"/>
<path d="M891.358 0V2.5004H896.286V7.50041H891.358V10H903.681V0H891.358Z" fill="#6C63FF"/>
<path d="M891.358 17V19.5004H896.286V24.4996H891.358V27H903.681V17H891.358Z" fill="#6C63FF"/>
<path d="M903.681 67H891.358V77H903.681V67Z" fill="#6C63FF"/>
<path d="M891.358 50V52.4998H896.286V57.5002H891.358V60H903.681V50H891.358Z" fill="#6C63FF"/>
<path d="M903.681 100H891.358V110H903.681V100Z" fill="#6C63FF"/>
<path d="M891.358 83V85.4996H896.286V90.4996H891.358V93H903.681V83H891.358Z" fill="#6C63FF"/>
<path d="M903.681 133H891.358V143H903.681V133Z" fill="#6C63FF"/>
<path d="M891.358 117V119.25H896.286V123.75H891.358V126H903.681V117H891.358Z" fill="#6C63FF"/>
<path d="M891.358 150V152.5H896.286V157.5H891.358V160H903.681V150H891.358Z" fill="#6C63FF"/>
<path d="M961.191 33H948.868V43H961.191V33Z" fill="#6C63FF"/>
<path d="M948.868 0V2.5004H953.796V7.50041H948.868V10H961.191V0H948.868Z" fill="#6C63FF"/>
<path d="M948.868 17V19.5004H953.796V24.4996H948.868V27H961.191V17H948.868Z" fill="#6C63FF"/>
<path d="M961.191 67H948.868V77H961.191V67Z" fill="#6C63FF"/>
<path d="M948.868 50V52.4998H953.796V57.5002H948.868V60H961.191V50H948.868Z" fill="#6C63FF"/>
<path d="M961.191 100H948.868V110H961.191V100Z" fill="#6C63FF"/>
<path d="M948.868 83V85.4996H953.796V90.4996H948.868V93H961.191V83H948.868Z" fill="#6C63FF"/>
<path d="M961.191 133H948.868V143H961.191V133Z" fill="#6C63FF"/>
<path d="M948.868 117V119.25H953.796V123.75H948.868V126H961.191V117H948.868Z" fill="#6C63FF"/>
<path d="M948.868 150V152.5H953.796V157.5H948.868V160H961.191V150H948.868Z" fill="#6C63FF"/>
<path d="M718.828 33V35.4996H723.757V40.4996H718.828V43H731.151V33H718.828Z" fill="#6C63FF"/>
<path d="M718.828 98V100.75H723.757V106.25H718.828V109H731.151V98H718.828Z" fill="#6C63FF"/>
<path d="M718.828 115V117.5H723.757V122.5H718.828V125H731.151V115H718.828Z" fill="#6C63FF"/>
<path d="M718.828 148V150.5H723.757V155.5H718.828V158H731.151V148H718.828Z" fill="#6C63FF"/>
<path d="M855.414 71H838.982V73H855.414V71Z" fill="#6C63FF"/>
<path d="M855.414 86H838.982V87H855.414V86Z" fill="#6C63FF"/>
<path d="M844.117 2V4.24982H848.637V8.75018H844.117V11H855.414V2H844.117Z" fill="#6C63FF"/>
<path d="M844.117 33V35.4996H848.637V40.4996H844.117V43H855.414V33H844.117Z" fill="#6C63FF"/>
<path d="M844.117 98V100.75H848.637V106.25H844.117V109H855.414V98H844.117Z" fill="#6C63FF"/>
<path d="M992 67H979.676V77H992V67Z" fill="#6C63FF"/>
<path d="M992 83H979.676V93H992V83Z" fill="#6C63FF"/>
<path d="M992 101H975.569V103H992V101Z" fill="#6C63FF"/>
<path d="M979.676 112V114.75H984.607V120.25H979.676V123H992V112H979.676Z" fill="#6C63FF"/>
<path d="M979.676 144V146.75H984.607V152.25H979.676V155H992V144H979.676Z" fill="#6C63FF"/>
<path d="M619.726 90C622.278 90 624.347 89.1046 624.347 88C624.347 86.8954 622.278 86 619.726 86C617.173 86 615.104 86.8954 615.104 88C615.104 89.1046 617.173 90 619.726 90Z" fill="#F2F2F2"/>
<path d="M621.266 88H618.185V127H621.266V88Z" fill="#3F3D56"/>
<path d="M128.918 147.807H116.834V159.036H128.918V147.807Z" fill="#6C63FF"/>
<path d="M170.005 145H157.92V156.229H170.005V145Z" fill="#6C63FF"/>
<path d="M191.756 145H179.672V156.229H191.756V145Z" fill="#6C63FF"/>
<path d="M191.756 178.686H179.672V189.915H191.756V178.686Z" fill="#6C63FF"/>
<path d="M215.924 161.843H203.84V173.072H215.924V161.843Z" fill="#6C63FF"/>
<path d="M215.924 180.09H203.84V191.318H215.924V180.09Z" fill="#6C63FF"/>
<path d="M191.756 215.179H179.672V226.408H191.756V215.179Z" fill="#6C63FF"/>
<path d="M215.924 233.427H203.84V244.655H215.924V233.427Z" fill="#6C63FF"/>
<path d="M191.756 302.202H179.672V313.431H191.756V302.202Z" fill="#6C63FF"/>
<path d="M170.005 233.427H157.92V244.655H170.005V233.427Z" fill="#6C63FF"/>
<path d="M128.918 166.054H116.834V177.283H128.918V166.054Z" fill="#6C63FF"/>
<path d="M128.918 341.503H116.834V352.732H128.918V341.503Z" fill="#6C63FF"/>
<path d="M128.918 377.996H116.834V389.224H128.918V377.996Z" fill="#6C63FF"/>
<path d="M128.918 396.242H116.834V407.471H128.918V396.242Z" fill="#6C63FF"/>
<path d="M128.918 185.704H112V187.107H128.918V185.704Z" fill="#6C63FF"/>
<path d="M194.173 202.547H177.255V203.95H194.173V202.547Z" fill="#6C63FF"/>
<path d="M128.918 275.534H112V276.937H128.918V275.534Z" fill="#6C63FF"/>
<path d="M128.918 290.973H112V292.377H128.918V290.973Z" fill="#6C63FF"/>
<path d="M194.173 380.803H177.255V382.207H194.173V380.803Z" fill="#6C63FF"/>
<path d="M174.838 414.489H157.92V415.893H174.838V414.489Z" fill="#6C63FF"/>
<path d="M116.834 198.337V201.144H121.667V206.758H116.834V209.565H128.918V198.337H116.834Z" fill="#6C63FF"/>
<path d="M157.921 178.687V181.493H162.754V187.108H157.921V189.915H170.005V178.687H157.921Z" fill="#6C63FF"/>
<path d="M203.841 196.933V199.74H208.674V205.355H203.841V208.162H215.925V196.933H203.841Z" fill="#6C63FF"/>
<path d="M203.841 251.673V254.48H208.674V260.094H203.841V262.901H215.925V251.673H203.841Z" fill="#6C63FF"/>
<path d="M203.841 269.919V272.727H208.674V278.342H203.841V281.148H215.925V269.919H203.841Z" fill="#6C63FF"/>
<path d="M203.841 213.776V216.583H208.674V222.197H203.841V225.005H215.925V213.776H203.841Z" fill="#6C63FF"/>
<path d="M179.671 161.843V164.651H184.506V170.264H179.671V173.072H191.757V161.843H179.671Z" fill="#6C63FF"/>
<path d="M191.756 251.673H179.672V262.902H191.756V251.673Z" fill="#6C63FF"/>
<path d="M191.756 285.359H179.672V296.588H191.756V285.359Z" fill="#6C63FF"/>
<path d="M179.671 268.516V271.323H184.506V276.937H179.671V279.745H191.757V268.516H179.671Z" fill="#6C63FF"/>
<path d="M157.921 196.933V199.74H162.754V205.355H157.921V208.162H170.005V196.933H157.921Z" fill="#6C63FF"/>
<path d="M157.921 215.179V217.987H162.754V223.601H157.921V226.408H170.005V215.179H157.921Z" fill="#6C63FF"/>
<path d="M170.005 269.919H157.92V281.148H170.005V269.919Z" fill="#6C63FF"/>
<path d="M157.921 251.673V254.48H162.754V260.094H157.921V262.901H170.005V251.673H157.921Z" fill="#6C63FF"/>
<path d="M170.005 306.413H157.92V317.642H170.005V306.413Z" fill="#6C63FF"/>
<path d="M157.921 288.166V290.973H162.754V296.587H157.921V299.395H170.005V288.166H157.921Z" fill="#6C63FF"/>
<path d="M170.005 342.906H157.92V354.135H170.005V342.906Z" fill="#6C63FF"/>
<path d="M191.756 340.099H179.672V351.328H191.756V340.099Z" fill="#6C63FF"/>
<path d="M157.921 324.659V327.467H162.754V333.081H157.921V335.888H170.005V324.659H157.921Z" fill="#6C63FF"/>
<path d="M203.841 324.659V327.467H208.674V333.081H203.841V335.888H215.925V324.659H203.841Z" fill="#6C63FF"/>
<path d="M339.184 161.843H327.1V173.072H339.184V161.843Z" fill="#6C63FF"/>
<path d="M339.184 180.09H327.1V191.318H339.184V180.09Z" fill="#6C63FF"/>
<path d="M339.184 233.427H327.1V244.655H339.184V233.427Z" fill="#6C63FF"/>
<path d="M327.099 196.933V199.74H331.934V205.355H327.099V208.162H339.183V196.933H327.099Z" fill="#6C63FF"/>
<path d="M327.099 251.673V254.48H331.934V260.094H327.099V262.901H339.183V251.673H327.099Z" fill="#6C63FF"/>
<path d="M327.099 269.919V272.727H331.934V278.342H327.099V281.148H339.183V269.919H327.099Z" fill="#6C63FF"/>
<path d="M327.099 213.776V216.583H331.934V222.197H327.099V225.005H339.183V213.776H327.099Z" fill="#6C63FF"/>
<path d="M327.099 324.659V327.467H331.934V333.081H327.099V335.888H339.183V324.659H327.099Z" fill="#6C63FF"/>
<path d="M170.005 379.399H157.92V390.628H170.005V379.399Z" fill="#6C63FF"/>
<path d="M191.756 358.346H179.672V369.575H191.756V358.346Z" fill="#6C63FF"/>
<path d="M170.005 427.122H157.92V438.35H170.005V427.122Z" fill="#6C63FF"/>
<path d="M191.756 393.435H179.672V404.664H191.756V393.435Z" fill="#6C63FF"/>
<path d="M157.921 361.153V363.96H162.754V369.574H157.921V372.382H170.005V361.153H157.921Z" fill="#6C63FF"/>
<path d="M157.921 446.772V449.579H162.754V455.193H157.921V458H170.005V446.772H157.921Z" fill="#6C63FF"/>
<path d="M302.931 145H290.847V156.229H302.931V145Z" fill="#6C63FF"/>
<path d="M302.931 233.427H290.847V244.655H302.931V233.427Z" fill="#6C63FF"/>
<path d="M307.765 414.489H290.847V415.893H307.765V414.489Z" fill="#6C63FF"/>
<path d="M290.847 178.687V181.493H295.681V187.108H290.847V189.915H302.931V178.687H290.847Z" fill="#6C63FF"/>
<path d="M290.847 196.933V199.74H295.681V205.355H290.847V208.162H302.931V196.933H290.847Z" fill="#6C63FF"/>
<path d="M290.847 215.179V217.987H295.681V223.601H290.847V226.408H302.931V215.179H290.847Z" fill="#6C63FF"/>
<path d="M302.931 269.919H290.847V281.148H302.931V269.919Z" fill="#6C63FF"/>
<path d="M290.847 251.673V254.48H295.681V260.094H290.847V262.901H302.931V251.673H290.847Z" fill="#6C63FF"/>
<path d="M302.931 306.413H290.847V317.642H302.931V306.413Z" fill="#6C63FF"/>
<path d="M290.847 288.166V290.973H295.681V296.587H290.847V299.395H302.931V288.166H290.847Z" fill="#6C63FF"/>
<path d="M302.931 342.906H290.847V354.135H302.931V342.906Z" fill="#6C63FF"/>
<path d="M290.847 324.659V327.467H295.681V333.081H290.847V335.888H302.931V324.659H290.847Z" fill="#6C63FF"/>
<path d="M302.931 379.399H290.847V390.628H302.931V379.399Z" fill="#6C63FF"/>
<path d="M302.931 427.122H290.847V438.35H302.931V427.122Z" fill="#6C63FF"/>
<path d="M290.847 361.153V363.96H295.681V369.574H290.847V372.382H302.931V361.153H290.847Z" fill="#6C63FF"/>
<path d="M290.847 446.772V449.579H295.681V455.193H290.847V458H302.931V446.772H290.847Z" fill="#6C63FF"/>
<path d="M360.935 145H348.851V156.229H360.935V145Z" fill="#6C63FF"/>
<path d="M360.935 233.427H348.851V244.655H360.935V233.427Z" fill="#6C63FF"/>
<path d="M365.769 414.489H348.851V415.893H365.769V414.489Z" fill="#6C63FF"/>
<path d="M348.851 178.687V181.493H353.685V187.108H348.851V189.915H360.935V178.687H348.851Z" fill="#6C63FF"/>
<path d="M348.851 196.933V199.74H353.685V205.355H348.851V208.162H360.935V196.933H348.851Z" fill="#6C63FF"/>
<path d="M348.851 215.179V217.987H353.685V223.601H348.851V226.408H360.935V215.179H348.851Z" fill="#6C63FF"/>
<path d="M360.935 269.919H348.851V281.148H360.935V269.919Z" fill="#6C63FF"/>
<path d="M348.851 251.673V254.48H353.685V260.094H348.851V262.901H360.935V251.673H348.851Z" fill="#6C63FF"/>
<path d="M360.935 306.413H348.851V317.642H360.935V306.413Z" fill="#6C63FF"/>
<path d="M348.851 288.166V290.973H353.685V296.587H348.851V299.395H360.935V288.166H348.851Z" fill="#6C63FF"/>
<path d="M360.935 342.906H348.851V354.135H360.935V342.906Z" fill="#6C63FF"/>
<path d="M348.851 324.659V327.467H353.685V333.081H348.851V335.888H360.935V324.659H348.851Z" fill="#6C63FF"/>
<path d="M360.935 379.399H348.851V390.628H360.935V379.399Z" fill="#6C63FF"/>
<path d="M360.935 427.122H348.851V438.35H360.935V427.122Z" fill="#6C63FF"/>
<path d="M348.851 361.153V363.96H353.685V369.574H348.851V372.382H360.935V361.153H348.851Z" fill="#6C63FF"/>
<path d="M348.851 446.772V449.579H353.685V455.193H348.851V458H360.935V446.772H348.851Z" fill="#6C63FF"/>
<path d="M179.671 427.122V429.928H184.506V435.543H179.671V438.35H191.757V427.122H179.671Z" fill="#6C63FF"/>
<path d="M179.671 445.368V448.175H184.506V453.79H179.671V456.596H191.757V445.368H179.671Z" fill="#6C63FF"/>
<path d="M116.834 233.427V236.233H121.667V241.848H116.834V244.656H128.918V233.427H116.834Z" fill="#6C63FF"/>
<path d="M116.834 305.01V307.817H121.667V313.431H116.834V316.238H128.918V305.01H116.834Z" fill="#6C63FF"/>
<path d="M116.834 323.255V326.063H121.667V331.678H116.834V334.484H128.918V323.255H116.834Z" fill="#6C63FF"/>
<path d="M116.834 359.749V362.556H121.667V368.17H116.834V370.977H128.918V359.749H116.834Z" fill="#6C63FF"/>
<path d="M116.834 411.682V414.489H121.667V420.104H116.834V422.911H128.918V411.682H116.834Z" fill="#6C63FF"/>
<path d="M116.834 427.122V429.928H121.667V435.543H116.834V438.35H128.918V427.122H116.834Z" fill="#6C63FF"/>
<path d="M254.594 147.807H242.51V159.036H254.594V147.807Z" fill="#6C63FF"/>
<path d="M254.594 166.054H242.51V177.283H254.594V166.054Z" fill="#6C63FF"/>
<path d="M254.594 185.704H237.676V187.107H254.594V185.704Z" fill="#6C63FF"/>
<path d="M254.594 275.534H237.676V276.937H254.594V275.534Z" fill="#6C63FF"/>
<path d="M254.594 290.973H237.676V292.377H254.594V290.973Z" fill="#6C63FF"/>
<path d="M242.51 198.337V201.144H247.343V206.758H242.51V209.565H254.594V198.337H242.51Z" fill="#6C63FF"/>
<path d="M242.51 233.427V236.233H247.343V241.848H242.51V244.656H254.594V233.427H242.51Z" fill="#6C63FF"/>
<path d="M242.51 305.01V307.817H247.343V313.431H242.51V316.238H254.594V305.01H242.51Z" fill="#6C63FF"/>
<path d="M392.355 269.919H380.27V281.148H392.355V269.919Z" fill="#6C63FF"/>
<path d="M392.355 288.166H380.27V299.394H392.355V288.166Z" fill="#6C63FF"/>
<path d="M392.354 307.817H375.436V309.22H392.354V307.817Z" fill="#6C63FF"/>
<path d="M392.354 397.646H375.436V399.049H392.354V397.646Z" fill="#6C63FF"/>
<path d="M392.354 413.085H375.436V414.489H392.354V413.085Z" fill="#6C63FF"/>
<path d="M380.27 320.449V323.256H385.103V328.87H380.27V331.678H392.355V320.449H380.27Z" fill="#6C63FF"/>
<path d="M380.27 355.538V358.346H385.103V363.96H380.27V366.767H392.355V355.538H380.27Z" fill="#6C63FF"/>
<path d="M380.27 427.122V429.928H385.103V435.543H380.27V438.35H392.355V427.122H380.27Z" fill="#6C63FF"/>
<path d="M431.024 147.807H418.94V159.036H431.024V147.807Z" fill="#6C63FF"/>
<path d="M472.111 145H460.026V156.229H472.111V145Z" fill="#6C63FF"/>
<path d="M493.862 145H481.778V156.229H493.862V145Z" fill="#6C63FF"/>
<path d="M493.862 178.686H481.778V189.915H493.862V178.686Z" fill="#6C63FF"/>
<path d="M518.03 161.843H505.946V173.072H518.03V161.843Z" fill="#6C63FF"/>
<path d="M518.03 180.09H505.946V191.318H518.03V180.09Z" fill="#6C63FF"/>
<path d="M493.862 215.179H481.778V226.408H493.862V215.179Z" fill="#6C63FF"/>
<path d="M518.03 233.427H505.946V244.655H518.03V233.427Z" fill="#6C63FF"/>
<path d="M493.862 302.202H481.778V313.431H493.862V302.202Z" fill="#6C63FF"/>
<path d="M472.111 233.427H460.026V244.655H472.111V233.427Z" fill="#6C63FF"/>
<path d="M431.024 166.054H418.94V177.283H431.024V166.054Z" fill="#6C63FF"/>
<path d="M431.024 341.503H418.94V352.732H431.024V341.503Z" fill="#6C63FF"/>
<path d="M431.024 377.996H418.94V389.224H431.024V377.996Z" fill="#6C63FF"/>
<path d="M431.024 396.242H418.94V407.471H431.024V396.242Z" fill="#6C63FF"/>
<path d="M431.024 185.704H414.106V187.107H431.024V185.704Z" fill="#6C63FF"/>
<path d="M496.279 202.547H479.361V203.95H496.279V202.547Z" fill="#6C63FF"/>
<path d="M431.024 275.534H414.106V276.937H431.024V275.534Z" fill="#6C63FF"/>
<path d="M431.024 290.973H414.106V292.377H431.024V290.973Z" fill="#6C63FF"/>
<path d="M496.279 380.803H479.361V382.207H496.279V380.803Z" fill="#6C63FF"/>
<path d="M476.944 414.489H460.026V415.893H476.944V414.489Z" fill="#6C63FF"/>
<path d="M418.94 198.337V201.144H423.774V206.758H418.94V209.565H431.024V198.337H418.94Z" fill="#6C63FF"/>
<path d="M460.026 178.687V181.493H464.859V187.108H460.026V189.915H472.111V178.687H460.026Z" fill="#6C63FF"/>
<path d="M505.947 196.933V199.74H510.78V205.355H505.947V208.162H518.031V196.933H505.947Z" fill="#6C63FF"/>
<path d="M505.947 251.673V254.48H510.78V260.094H505.947V262.901H518.031V251.673H505.947Z" fill="#6C63FF"/>
<path d="M505.947 269.919V272.727H510.78V278.342H505.947V281.148H518.031V269.919H505.947Z" fill="#6C63FF"/>
<path d="M505.947 213.776V216.583H510.78V222.197H505.947V225.005H518.031V213.776H505.947Z" fill="#6C63FF"/>
<path d="M481.778 161.843V164.651H486.611V170.264H481.778V173.072H493.862V161.843H481.778Z" fill="#6C63FF"/>
<path d="M493.862 251.673H481.778V262.902H493.862V251.673Z" fill="#6C63FF"/>
<path d="M493.862 285.359H481.778V296.588H493.862V285.359Z" fill="#6C63FF"/>
<path d="M481.778 268.516V271.323H486.611V276.937H481.778V279.745H493.862V268.516H481.778Z" fill="#6C63FF"/>
<path d="M460.026 196.933V199.74H464.859V205.355H460.026V208.162H472.111V196.933H460.026Z" fill="#6C63FF"/>
<path d="M460.026 215.179V217.987H464.859V223.601H460.026V226.408H472.111V215.179H460.026Z" fill="#6C63FF"/>
<path d="M472.111 269.919H460.026V281.148H472.111V269.919Z" fill="#6C63FF"/>
<path d="M460.026 251.673V254.48H464.859V260.094H460.026V262.901H472.111V251.673H460.026Z" fill="#6C63FF"/>
<path d="M472.111 306.413H460.026V317.642H472.111V306.413Z" fill="#6C63FF"/>
<path d="M460.026 288.166V290.973H464.859V296.587H460.026V299.395H472.111V288.166H460.026Z" fill="#6C63FF"/>
<path d="M472.111 342.906H460.026V354.135H472.111V342.906Z" fill="#6C63FF"/>
<path d="M493.862 340.099H481.778V351.328H493.862V340.099Z" fill="#6C63FF"/>
<path d="M460.026 324.659V327.467H464.859V333.081H460.026V335.888H472.111V324.659H460.026Z" fill="#6C63FF"/>
<path d="M505.947 324.659V327.467H510.78V333.081H505.947V335.888H518.031V324.659H505.947Z" fill="#6C63FF"/>
<path d="M641.29 161.843H629.206V173.072H641.29V161.843Z" fill="#6C63FF"/>
<path d="M641.29 180.09H629.206V191.318H641.29V180.09Z" fill="#6C63FF"/>
<path d="M641.29 233.427H629.206V244.655H641.29V233.427Z" fill="#6C63FF"/>
<path d="M629.206 196.933V199.74H634.039V205.355H629.206V208.162H641.29V196.933H629.206Z" fill="#6C63FF"/>
<path d="M629.206 251.673V254.48H634.039V260.094H629.206V262.901H641.29V251.673H629.206Z" fill="#6C63FF"/>
<path d="M629.206 269.919V272.727H634.039V278.342H629.206V281.148H641.29V269.919H629.206Z" fill="#6C63FF"/>
<path d="M629.206 213.776V216.583H634.039V222.197H629.206V225.005H641.29V213.776H629.206Z" fill="#6C63FF"/>
<path d="M629.206 324.659V327.467H634.039V333.081H629.206V335.888H641.29V324.659H629.206Z" fill="#6C63FF"/>
<path d="M472.111 379.399H460.026V390.628H472.111V379.399Z" fill="#6C63FF"/>
<path d="M493.862 358.346H481.778V369.575H493.862V358.346Z" fill="#6C63FF"/>
<path d="M472.111 427.122H460.026V438.35H472.111V427.122Z" fill="#6C63FF"/>
<path d="M493.862 393.435H481.778V404.664H493.862V393.435Z" fill="#6C63FF"/>
<path d="M460.026 361.153V363.96H464.859V369.574H460.026V372.382H472.111V361.153H460.026Z" fill="#6C63FF"/>
<path d="M460.026 446.772V449.579H464.859V455.193H460.026V458H472.111V446.772H460.026Z" fill="#6C63FF"/>
<path d="M605.037 145H592.953V156.229H605.037V145Z" fill="#6C63FF"/>
<path d="M605.037 233.427H592.953V244.655H605.037V233.427Z" fill="#6C63FF"/>
<path d="M609.871 414.489H592.953V415.893H609.871V414.489Z" fill="#6C63FF"/>
<path d="M592.952 178.687V181.493H597.787V187.108H592.952V189.915H605.036V178.687H592.952Z" fill="#6C63FF"/>
<path d="M592.952 196.933V199.74H597.787V205.355H592.952V208.162H605.036V196.933H592.952Z" fill="#6C63FF"/>
<path d="M592.952 215.179V217.987H597.787V223.601H592.952V226.408H605.036V215.179H592.952Z" fill="#6C63FF"/>
<path d="M605.037 269.919H592.953V281.148H605.037V269.919Z" fill="#6C63FF"/>
<path d="M592.952 251.673V254.48H597.787V260.094H592.952V262.901H605.036V251.673H592.952Z" fill="#6C63FF"/>
<path d="M605.037 306.413H592.953V317.642H605.037V306.413Z" fill="#6C63FF"/>
<path d="M592.952 288.166V290.973H597.787V296.587H592.952V299.395H605.036V288.166H592.952Z" fill="#6C63FF"/>
<path d="M605.037 342.906H592.953V354.135H605.037V342.906Z" fill="#6C63FF"/>
<path d="M592.952 324.659V327.467H597.787V333.081H592.952V335.888H605.036V324.659H592.952Z" fill="#6C63FF"/>
<path d="M605.037 379.399H592.953V390.628H605.037V379.399Z" fill="#6C63FF"/>
<path d="M605.037 427.122H592.953V438.35H605.037V427.122Z" fill="#6C63FF"/>
<path d="M592.952 361.153V363.96H597.787V369.574H592.952V372.382H605.036V361.153H592.952Z" fill="#6C63FF"/>
<path d="M592.952 446.772V449.579H597.787V455.193H592.952V458H605.036V446.772H592.952Z" fill="#6C63FF"/>
<path d="M663.042 145H650.957V156.229H663.042V145Z" fill="#6C63FF"/>
<path d="M663.042 233.427H650.957V244.655H663.042V233.427Z" fill="#6C63FF"/>
<path d="M667.875 414.489H650.957V415.893H667.875V414.489Z" fill="#6C63FF"/>
<path d="M650.956 178.687V181.493H655.791V187.108H650.956V189.915H663.041V178.687H650.956Z" fill="#6C63FF"/>
<path d="M650.956 196.933V199.74H655.791V205.355H650.956V208.162H663.041V196.933H650.956Z" fill="#6C63FF"/>
<path d="M650.956 215.179V217.987H655.791V223.601H650.956V226.408H663.041V215.179H650.956Z" fill="#6C63FF"/>
<path d="M663.042 269.919H650.957V281.148H663.042V269.919Z" fill="#6C63FF"/>
<path d="M650.956 251.673V254.48H655.791V260.094H650.956V262.901H663.041V251.673H650.956Z" fill="#6C63FF"/>
<path d="M663.042 306.413H650.957V317.642H663.042V306.413Z" fill="#6C63FF"/>
<path d="M650.956 288.166V290.973H655.791V296.587H650.956V299.395H663.041V288.166H650.956Z" fill="#6C63FF"/>
<path d="M663.042 342.906H650.957V354.135H663.042V342.906Z" fill="#6C63FF"/>
<path d="M650.956 324.659V327.467H655.791V333.081H650.956V335.888H663.041V324.659H650.956Z" fill="#6C63FF"/>
<path d="M663.042 379.399H650.957V390.628H663.042V379.399Z" fill="#6C63FF"/>
<path d="M663.042 427.122H650.957V438.35H663.042V427.122Z" fill="#6C63FF"/>
<path d="M650.956 361.153V363.96H655.791V369.574H650.956V372.382H663.041V361.153H650.956Z" fill="#6C63FF"/>
<path d="M650.956 446.772V449.579H655.791V455.193H650.956V458H663.041V446.772H650.956Z" fill="#6C63FF"/>
<path d="M481.778 427.122V429.928H486.611V435.543H481.778V438.35H493.862V427.122H481.778Z" fill="#6C63FF"/>
<path d="M481.778 445.368V448.175H486.611V453.79H481.778V456.596H493.862V445.368H481.778Z" fill="#6C63FF"/>
<path d="M418.94 233.427V236.233H423.774V241.848H418.94V244.656H431.024V233.427H418.94Z" fill="#6C63FF"/>
<path d="M418.94 305.01V307.817H423.774V313.431H418.94V316.238H431.024V305.01H418.94Z" fill="#6C63FF"/>
<path d="M418.94 323.255V326.063H423.774V331.678H418.94V334.484H431.024V323.255H418.94Z" fill="#6C63FF"/>
<path d="M418.94 359.749V362.556H423.774V368.17H418.94V370.977H431.024V359.749H418.94Z" fill="#6C63FF"/>
<path d="M418.94 411.682V414.489H423.774V420.104H418.94V422.911H431.024V411.682H418.94Z" fill="#6C63FF"/>
<path d="M418.94 427.122V429.928H423.774V435.543H418.94V438.35H431.024V427.122H418.94Z" fill="#6C63FF"/>
<path d="M556.7 147.807H544.616V159.036H556.7V147.807Z" fill="#6C63FF"/>
<path d="M556.7 166.054H544.616V177.283H556.7V166.054Z" fill="#6C63FF"/>
<path d="M556.7 185.704H539.782V187.107H556.7V185.704Z" fill="#6C63FF"/>
<path d="M556.7 275.534H539.782V276.937H556.7V275.534Z" fill="#6C63FF"/>
<path d="M556.7 290.973H539.782V292.377H556.7V290.973Z" fill="#6C63FF"/>
<path d="M544.616 198.337V201.144H549.45V206.758H544.616V209.565H556.7V198.337H544.616Z" fill="#6C63FF"/>
<path d="M544.616 233.427V236.233H549.45V241.848H544.616V244.656H556.7V233.427H544.616Z" fill="#6C63FF"/>
<path d="M544.616 305.01V307.817H549.45V313.431H544.616V316.238H556.7V305.01H544.616Z" fill="#6C63FF"/>
<path d="M694.46 269.919H682.376V281.148H694.46V269.919Z" fill="#6C63FF"/>
<path d="M694.46 288.166H682.376V299.394H694.46V288.166Z" fill="#6C63FF"/>
<path d="M694.46 307.817H677.542V309.22H694.46V307.817Z" fill="#6C63FF"/>
<path d="M694.46 397.646H677.542V399.049H694.46V397.646Z" fill="#6C63FF"/>
<path d="M694.46 413.085H677.542V414.489H694.46V413.085Z" fill="#6C63FF"/>
<path d="M682.376 320.449V323.256H687.211V328.87H682.376V331.678H694.46V320.449H682.376Z" fill="#6C63FF"/>
<path d="M682.376 355.538V358.346H687.211V363.96H682.376V366.767H694.46V355.538H682.376Z" fill="#6C63FF"/>
<path d="M682.376 427.122V429.928H687.211V435.543H682.376V438.35H694.46V427.122H682.376Z" fill="#6C63FF"/>
<path d="M733.13 147.807H721.045V159.036H733.13V147.807Z" fill="#6C63FF"/>
<path d="M774.216 145H762.132V156.229H774.216V145Z" fill="#6C63FF"/>
<path d="M795.968 145H783.884V156.229H795.968V145Z" fill="#6C63FF"/>
<path d="M795.968 178.686H783.884V189.915H795.968V178.686Z" fill="#6C63FF"/>
<path d="M820.137 161.843H808.052V173.072H820.137V161.843Z" fill="#6C63FF"/>
<path d="M820.137 180.09H808.052V191.318H820.137V180.09Z" fill="#6C63FF"/>
<path d="M795.968 215.179H783.884V226.408H795.968V215.179Z" fill="#6C63FF"/>
<path d="M820.137 233.427H808.052V244.655H820.137V233.427Z" fill="#6C63FF"/>
<path d="M795.968 302.202H783.884V313.431H795.968V302.202Z" fill="#6C63FF"/>
<path d="M774.216 233.427H762.132V244.655H774.216V233.427Z" fill="#6C63FF"/>
<path d="M733.13 166.054H721.045V177.283H733.13V166.054Z" fill="#6C63FF"/>
<path d="M733.13 341.503H721.045V352.732H733.13V341.503Z" fill="#6C63FF"/>
<path d="M733.13 377.996H721.045V389.224H733.13V377.996Z" fill="#6C63FF"/>
<path d="M733.13 396.242H721.045V407.471H733.13V396.242Z" fill="#6C63FF"/>
<path d="M733.13 185.704H716.212V187.107H733.13V185.704Z" fill="#6C63FF"/>
<path d="M798.385 202.547H781.467V203.95H798.385V202.547Z" fill="#6C63FF"/>
<path d="M733.13 275.534H716.212V276.937H733.13V275.534Z" fill="#6C63FF"/>
<path d="M733.13 290.973H716.212V292.377H733.13V290.973Z" fill="#6C63FF"/>
<path d="M798.385 380.803H781.467V382.207H798.385V380.803Z" fill="#6C63FF"/>
<path d="M779.05 414.489H762.132V415.893H779.05V414.489Z" fill="#6C63FF"/>
<path d="M721.045 198.337V201.144H725.879V206.758H721.045V209.565H733.131V198.337H721.045Z" fill="#6C63FF"/>
<path d="M762.132 178.687V181.493H766.965V187.108H762.132V189.915H774.216V178.687H762.132Z" fill="#6C63FF"/>
<path d="M808.052 196.933V199.74H812.885V205.355H808.052V208.162H820.136V196.933H808.052Z" fill="#6C63FF"/>
<path d="M808.052 251.673V254.48H812.885V260.094H808.052V262.901H820.136V251.673H808.052Z" fill="#6C63FF"/>
<path d="M808.052 269.919V272.727H812.885V278.342H808.052V281.148H820.136V269.919H808.052Z" fill="#6C63FF"/>
<path d="M808.052 213.776V216.583H812.885V222.197H808.052V225.005H820.136V213.776H808.052Z" fill="#6C63FF"/>
<path d="M783.884 161.843V164.651H788.717V170.264H783.884V173.072H795.968V161.843H783.884Z" fill="#6C63FF"/>
<path d="M795.968 251.673H783.884V262.902H795.968V251.673Z" fill="#6C63FF"/>
<path d="M795.968 285.359H783.884V296.588H795.968V285.359Z" fill="#6C63FF"/>
<path d="M783.884 268.516V271.323H788.717V276.937H783.884V279.745H795.968V268.516H783.884Z" fill="#6C63FF"/>
<path d="M762.132 196.933V199.74H766.965V205.355H762.132V208.162H774.216V196.933H762.132Z" fill="#6C63FF"/>
<path d="M762.132 215.179V217.987H766.965V223.601H762.132V226.408H774.216V215.179H762.132Z" fill="#6C63FF"/>
<path d="M774.216 269.919H762.132V281.148H774.216V269.919Z" fill="#6C63FF"/>
<path d="M762.132 251.673V254.48H766.965V260.094H762.132V262.901H774.216V251.673H762.132Z" fill="#6C63FF"/>
<path d="M774.216 306.413H762.132V317.642H774.216V306.413Z" fill="#6C63FF"/>
<path d="M762.132 288.166V290.973H766.965V296.587H762.132V299.395H774.216V288.166H762.132Z" fill="#6C63FF"/>
<path d="M774.216 342.906H762.132V354.135H774.216V342.906Z" fill="#6C63FF"/>
<path d="M795.968 340.099H783.884V351.328H795.968V340.099Z" fill="#6C63FF"/>
<path d="M762.132 324.659V327.467H766.965V333.081H762.132V335.888H774.216V324.659H762.132Z" fill="#6C63FF"/>
<path d="M808.052 324.659V327.467H812.885V333.081H808.052V335.888H820.136V324.659H808.052Z" fill="#6C63FF"/>
<path d="M943.396 161.843H931.311V173.072H943.396V161.843Z" fill="#6C63FF"/>
<path d="M943.396 180.09H931.311V191.318H943.396V180.09Z" fill="#6C63FF"/>
<path d="M943.396 233.427H931.311V244.655H943.396V233.427Z" fill="#6C63FF"/>
<path d="M931.312 196.933V199.74H936.145V205.355H931.312V208.162H943.396V196.933H931.312Z" fill="#6C63FF"/>
<path d="M931.312 251.673V254.48H936.145V260.094H931.312V262.901H943.396V251.673H931.312Z" fill="#6C63FF"/>
<path d="M931.312 269.919V272.727H936.145V278.342H931.312V281.148H943.396V269.919H931.312Z" fill="#6C63FF"/>
<path d="M931.312 213.776V216.583H936.145V222.197H931.312V225.005H943.396V213.776H931.312Z" fill="#6C63FF"/>
<path d="M931.312 324.659V327.467H936.145V333.081H931.312V335.888H943.396V324.659H931.312Z" fill="#6C63FF"/>
<path d="M774.216 379.399H762.132V390.628H774.216V379.399Z" fill="#6C63FF"/>
<path d="M795.968 358.346H783.884V369.575H795.968V358.346Z" fill="#6C63FF"/>
<path d="M774.216 427.122H762.132V438.35H774.216V427.122Z" fill="#6C63FF"/>
<path d="M795.968 393.435H783.884V404.664H795.968V393.435Z" fill="#6C63FF"/>
<path d="M762.132 361.153V363.96H766.965V369.574H762.132V372.382H774.216V361.153H762.132Z" fill="#6C63FF"/>
<path d="M762.132 446.772V449.579H766.965V455.193H762.132V458H774.216V446.772H762.132Z" fill="#6C63FF"/>
<path d="M907.143 145H895.059V156.229H907.143V145Z" fill="#6C63FF"/>
<path d="M907.143 233.427H895.059V244.655H907.143V233.427Z" fill="#6C63FF"/>
<path d="M911.977 414.489H895.059V415.893H911.977V414.489Z" fill="#6C63FF"/>
<path d="M895.059 178.687V181.493H899.892V187.108H895.059V189.915H907.144V178.687H895.059Z" fill="#6C63FF"/>
<path d="M895.059 196.933V199.74H899.892V205.355H895.059V208.162H907.144V196.933H895.059Z" fill="#6C63FF"/>
<path d="M895.059 215.179V217.987H899.892V223.601H895.059V226.408H907.144V215.179H895.059Z" fill="#6C63FF"/>
<path d="M907.143 269.919H895.059V281.148H907.143V269.919Z" fill="#6C63FF"/>
<path d="M895.059 251.673V254.48H899.892V260.094H895.059V262.901H907.144V251.673H895.059Z" fill="#6C63FF"/>
<path d="M907.143 306.413H895.059V317.642H907.143V306.413Z" fill="#6C63FF"/>
<path d="M895.059 288.166V290.973H899.892V296.587H895.059V299.395H907.144V288.166H895.059Z" fill="#6C63FF"/>
<path d="M907.143 342.906H895.059V354.135H907.143V342.906Z" fill="#6C63FF"/>
<path d="M895.059 324.659V327.467H899.892V333.081H895.059V335.888H907.144V324.659H895.059Z" fill="#6C63FF"/>
<path d="M907.143 379.399H895.059V390.628H907.143V379.399Z" fill="#6C63FF"/>
<path d="M907.143 427.122H895.059V438.35H907.143V427.122Z" fill="#6C63FF"/>
<path d="M895.059 361.153V363.96H899.892V369.574H895.059V372.382H907.144V361.153H895.059Z" fill="#6C63FF"/>
<path d="M895.059 446.772V449.579H899.892V455.193H895.059V458H907.144V446.772H895.059Z" fill="#6C63FF"/>
<path d="M965.147 145H953.063V156.229H965.147V145Z" fill="#6C63FF"/>
<path d="M965.147 233.427H953.063V244.655H965.147V233.427Z" fill="#6C63FF"/>
<path d="M969.981 414.489H953.063V415.893H969.981V414.489Z" fill="#6C63FF"/>
<path d="M953.063 178.687V181.493H957.896V187.108H953.063V189.915H965.147V178.687H953.063Z" fill="#6C63FF"/>
<path d="M953.063 196.933V199.74H957.896V205.355H953.063V208.162H965.147V196.933H953.063Z" fill="#6C63FF"/>
<path d="M953.063 215.179V217.987H957.896V223.601H953.063V226.408H965.147V215.179H953.063Z" fill="#6C63FF"/>
<path d="M965.147 269.919H953.063V281.148H965.147V269.919Z" fill="#6C63FF"/>
<path d="M953.063 251.673V254.48H957.896V260.094H953.063V262.901H965.147V251.673H953.063Z" fill="#6C63FF"/>
<path d="M965.147 306.413H953.063V317.642H965.147V306.413Z" fill="#6C63FF"/>
<path d="M953.063 288.166V290.973H957.896V296.587H953.063V299.395H965.147V288.166H953.063Z" fill="#6C63FF"/>
<path d="M965.147 342.906H953.063V354.135H965.147V342.906Z" fill="#6C63FF"/>
<path d="M953.063 324.659V327.467H957.896V333.081H953.063V335.888H965.147V324.659H953.063Z" fill="#6C63FF"/>
<path d="M965.147 379.399H953.063V390.628H965.147V379.399Z" fill="#6C63FF"/>
<path d="M965.147 427.122H953.063V438.35H965.147V427.122Z" fill="#6C63FF"/>
<path d="M953.063 361.153V363.96H957.896V369.574H953.063V372.382H965.147V361.153H953.063Z" fill="#6C63FF"/>
<path d="M953.063 446.772V449.579H957.896V455.193H953.063V458H965.147V446.772H953.063Z" fill="#6C63FF"/>
<path d="M783.884 427.122V429.928H788.717V435.543H783.884V438.35H795.968V427.122H783.884Z" fill="#6C63FF"/>
<path d="M783.884 445.368V448.175H788.717V453.79H783.884V456.596H795.968V445.368H783.884Z" fill="#6C63FF"/>
<path d="M721.045 233.427V236.233H725.879V241.848H721.045V244.656H733.131V233.427H721.045Z" fill="#6C63FF"/>
<path d="M721.045 305.01V307.817H725.879V313.431H721.045V316.238H733.131V305.01H721.045Z" fill="#6C63FF"/>
<path d="M721.045 323.255V326.063H725.879V331.678H721.045V334.484H733.131V323.255H721.045Z" fill="#6C63FF"/>
<path d="M721.045 359.749V362.556H725.879V368.17H721.045V370.977H733.131V359.749H721.045Z" fill="#6C63FF"/>
<path d="M721.045 411.682V414.489H725.879V420.104H721.045V422.911H733.131V411.682H721.045Z" fill="#6C63FF"/>
<path d="M721.045 427.122V429.928H725.879V435.543H721.045V438.35H733.131V427.122H721.045Z" fill="#6C63FF"/>
<path d="M858.806 147.807H846.722V159.036H858.806V147.807Z" fill="#6C63FF"/>
<path d="M858.806 166.054H846.722V177.283H858.806V166.054Z" fill="#6C63FF"/>
<path d="M858.806 185.704H841.888V187.107H858.806V185.704Z" fill="#6C63FF"/>
<path d="M858.806 275.534H841.888V276.937H858.806V275.534Z" fill="#6C63FF"/>
<path d="M858.806 290.973H841.888V292.377H858.806V290.973Z" fill="#6C63FF"/>
<path d="M846.721 198.337V201.144H851.556V206.758H846.721V209.565H858.805V198.337H846.721Z" fill="#6C63FF"/>
<path d="M846.721 233.427V236.233H851.556V241.848H846.721V244.656H858.805V233.427H846.721Z" fill="#6C63FF"/>
<path d="M846.721 305.01V307.817H851.556V313.431H846.721V316.238H858.805V305.01H846.721Z" fill="#6C63FF"/>
<path d="M996.566 269.919H984.482V281.148H996.566V269.919Z" fill="#6C63FF"/>
<path d="M996.566 288.166H984.482V299.394H996.566V288.166Z" fill="#6C63FF"/>
<path d="M996.566 307.817H979.648V309.22H996.566V307.817Z" fill="#6C63FF"/>
<path d="M996.566 397.646H979.648V399.049H996.566V397.646Z" fill="#6C63FF"/>
<path d="M996.566 413.085H979.648V414.489H996.566V413.085Z" fill="#6C63FF"/>
<path d="M984.481 320.449V323.256H989.316V328.87H984.481V331.678H996.565V320.449H984.481Z" fill="#6C63FF"/>
<path d="M984.481 355.538V358.346H989.316V363.96H984.481V366.767H996.565V355.538H984.481Z" fill="#6C63FF"/>
<path d="M984.481 427.122V429.928H989.316V435.543H984.481V438.35H996.565V427.122H984.481Z" fill="#6C63FF"/>
<path d="M620.843 296.498C623.438 296.498 625.542 295.276 625.542 293.769C625.542 292.263 623.438 291.041 620.843 291.041C618.248 291.041 616.145 292.263 616.145 293.769C616.145 295.276 618.248 296.498 620.843 296.498Z" fill="#F2F2F2"/>
<path d="M622.409 293.77H619.277V336.517H622.409V293.77Z" fill="#3F3D56"/>
<path d="M372.577 620.488C578.346 620.488 745.155 607.86 745.155 592.283C745.155 576.706 578.346 564.078 372.577 564.078C166.809 564.078 0 576.706 0 592.283C0 607.86 166.809 620.488 372.577 620.488Z" fill="#E6E6E6"/>
<path d="M663.654 608.078C602.902 596.553 536.468 598.469 466.78 608.078C498.543 579.497 525.956 550.916 494.193 522.334C556.15 535.958 564.828 534.579 633.749 522.334C617.763 550.916 647.668 579.497 663.654 608.078Z" fill="#6C63FF"/>
<path opacity="0.2" d="M663.654 608.078C602.902 596.553 536.468 598.469 466.78 608.078C498.543 579.497 525.956 550.916 494.193 522.334C556.15 535.958 564.828 534.579 633.749 522.334C617.763 550.916 647.668 579.497 663.654 608.078Z" fill="black"/>
<path d="M648.835 595.884C597.229 586.685 540.795 588.214 481.599 595.884C508.58 573.07 531.866 550.256 504.885 527.442C557.515 538.317 564.886 537.216 623.432 527.442C609.853 550.256 635.256 573.07 648.835 595.884Z" fill="#6C63FF"/>
<path d="M629.179 559.125C644.365 559.125 656.676 546.003 656.676 529.816C656.676 513.629 644.365 500.507 629.179 500.507C613.993 500.507 601.682 513.629 601.682 529.816C601.682 546.003 613.993 559.125 629.179 559.125Z" fill="#2F2E41"/>
<path d="M504.355 495.821L523.408 499.206L532.934 528.539L505.414 546.591L473.66 495.821H503.297H504.355Z" fill="#A0616A"/>
<path d="M558.337 540.95C582.889 540.95 602.792 519.735 602.792 493.565C602.792 467.395 582.889 446.18 558.337 446.18C533.785 446.18 513.882 467.395 513.882 493.565C513.882 519.735 533.785 540.95 558.337 540.95Z" fill="#A0616A"/>
<path d="M312.775 320.949C312.775 320.949 204.812 333.359 185.76 331.103C166.707 328.846 158.24 326.59 158.24 326.59C158.24 326.59 145.538 344.641 151.889 352.539C155.446 357.09 159.749 360.913 164.59 363.821C164.59 363.821 176.233 360.436 184.701 363.821C193.169 367.206 278.904 381.872 293.722 368.334C308.541 354.795 312.775 320.949 312.775 320.949Z" fill="#2F2E41"/>
<path d="M320.184 572.54C320.184 572.54 249.267 551.104 236.566 456.334V447.308C236.566 447.308 222.534 473.547 217.513 478.898C211.692 485.103 191.052 540.95 192.11 546.591C193.169 552.232 192.11 554.488 192.11 554.488L161.415 551.104V540.95C161.415 540.95 177.821 488.488 178.879 476.078C179.938 463.667 219.63 377.359 219.63 377.359C219.63 377.359 234.449 344.641 259.852 377.359C285.255 410.078 287.372 432.642 287.372 432.642L320.184 500.334L320.184 572.54Z" fill="#2F2E41"/>
<path d="M161.415 323.205L127.544 310.795C127.544 310.795 95.7905 285.974 103.2 310.795C110.609 335.616 144.48 389.77 154.006 384.129C163.532 378.488 174.989 364.485 172.436 362.461C169.883 360.436 152.947 345.77 161.415 323.205Z" fill="#2F2E41"/>
<path d="M165.509 534.289L138.167 548.522C138.167 548.522 105.102 553.944 123.542 564.11C141.982 574.277 192.851 585.121 195.395 575.632C197.938 566.144 196.929 550.396 194.254 550.814C191.579 551.233 173.139 553.266 165.509 534.289Z" fill="#2F2E41"/>
<path d="M306.424 498.078C306.424 498.078 292.664 561.257 315.95 574.796C339.236 588.334 502.239 590.591 514.94 565.77C527.642 540.949 521.291 540.95 521.291 540.95L487.42 500.334L514.94 498.078C514.94 498.078 514.94 489.052 505.414 487.924C495.888 486.796 466.251 475.513 440.848 483.411C415.445 491.308 400.627 467.616 400.627 467.616L306.424 498.078Z" fill="#575A89"/>
<path d="M288.43 300.641L270.436 405.565L394.276 389.77L416.503 295L288.43 300.641Z" fill="#3F3D56"/>
<path d="M292.135 304.59L277.317 398.231L390.042 384.129L411.74 298.949L292.135 304.59Z" fill="white"/>
<path d="M274.67 406.693L270.436 405.565L268.319 410.077L302.19 510.488L305.376 509.19L306.423 502.591L274.67 406.693Z" fill="#B3B3B3"/>
<path d="M270.436 404.436L304.307 509.36L432.38 489.052L394.276 389.77L270.436 404.436Z" fill="#D0CDE1"/>
<path d="M287.372 401.052V406.693L381.574 395.411L380.516 389.77L287.372 401.052Z" fill="#3F3D56"/>
<path d="M289.488 412.334L304.307 456.334L400.627 443.924L383.692 402.18L289.488 412.334Z" fill="#3F3D56"/>
<path d="M410.153 474.385L406.977 465.36C406.977 465.36 382.633 420.231 369.931 429.257C357.23 438.283 396.393 482.283 396.393 482.283H409.094L410.153 474.385Z" fill="#A0616A"/>
<path d="M329.71 481.155L326.535 467.616C326.535 467.616 318.067 425.872 332.885 428.129C347.704 430.385 351.938 469.873 351.938 469.873L350.879 478.898L329.71 481.155Z" fill="#A0616A"/>
<path d="M355.113 475.514C355.113 475.514 327.593 471.001 326.535 477.77C325.476 484.539 320.184 586.078 346.645 589.463C373.107 592.847 504.356 607.514 490.596 572.54C476.836 537.565 455.667 542.078 455.667 542.078L365.698 552.232L355.113 475.514Z" fill="#575A89"/>
<path d="M438.202 488.488L410.153 467.616L391.63 482.847L414.916 509.924L438.202 488.488Z" fill="#575A89"/>
<path opacity="0.2" d="M363.052 508.796L367.285 551.668L440.319 547.155L376.811 546.027L363.052 508.796Z" fill="black"/>
<path d="M580.282 558.585C609.51 558.585 633.205 533.329 633.205 502.175C633.205 471.02 609.51 445.764 580.282 445.764C551.053 445.764 527.359 471.02 527.359 502.175C527.359 533.329 551.053 558.585 580.282 558.585Z" fill="#2F2E41"/>
<path d="M287.901 372.282L387.396 368.898L388.455 364.385L288.959 368.118L287.901 372.282Z" fill="#E6E6E6"/>
<path d="M438.128 313.109H779.319V129H438.128V313.109Z" fill="#3F3D56"/>
<path d="M534.143 190.954H499.386V194.041H534.143V190.954Z" fill="#6C63FF"/>
<path d="M580.484 190.954H545.728V194.041H580.484V190.954Z" fill="#6C63FF"/>
<path d="M647.825 219.51H613.068V222.598H647.825V219.51Z" fill="#6C63FF"/>
<path d="M694.891 219.51H660.135V222.598H694.891V219.51Z" fill="#6C63FF"/>
<path d="M694.891 190.954H592.794V194.041H694.891V190.954Z" fill="#6C63FF"/>
<path d="M601.483 219.51H499.386V222.598H601.483V219.51Z" fill="#6C63FF"/>
<path d="M601.483 248.067H499.386V251.155H601.483V248.067Z" fill="#6C63FF"/>
<path d="M694.891 248.067H623.93V251.155H694.891V248.067Z" fill="#6C63FF"/>
<path d="M489.618 203.987L477.389 190.954L489.618 177.92L492.063 180.528L482.282 190.954L492.063 201.379L489.618 203.987Z" fill="#6C63FF"/>
<path d="M727.831 264.188L725.384 261.581L735.166 251.154L725.384 240.728L727.831 238.121L740.058 251.154L727.831 264.188Z" fill="#6C63FF"/>
<path d="M714.958 237.499L707.716 262.968L711.028 264.038L718.269 238.569L714.958 237.499Z" fill="#6C63FF"/>
<path d="M773.416 562.048L770.134 577.167L831.157 596.156L836.001 573.843L773.416 562.048Z" fill="#FFB6B6"/>
<path d="M779.551 559.191L773.087 588.964L773.087 588.965C771.994 593.997 768.801 598.418 764.21 601.256C759.618 604.095 754.005 605.117 748.604 604.1L747.942 603.975L758.525 555.229L779.551 559.191Z" fill="#2F2E41"/>
<path d="M842.568 353.806C865.452 353.806 884.003 336.521 884.003 315.2C884.003 293.879 865.452 276.594 842.568 276.594C819.684 276.594 801.133 293.879 801.133 315.2C801.133 336.521 819.684 353.806 842.568 353.806Z" fill="#FEB8B8"/>
<path d="M881.268 281.894C875.073 272.522 865.376 265.615 854.044 262.505L848.957 265.963V261.472C846.236 261.084 843.481 260.935 840.73 261.026L836.341 264.726V261.333C829.843 262.086 823.583 264.084 817.956 267.203C812.328 270.322 807.455 274.493 803.644 279.454C794.114 292.255 792.505 310.065 801.879 322.969C804.452 315.6 807.575 308.687 810.149 301.32C812.171 301.576 814.221 301.586 816.246 301.347L819.377 294.541L820.251 301.059C829.955 300.272 844.348 298.542 853.547 296.957L852.653 291.957L858.005 296.112C860.823 295.508 862.496 294.959 862.358 294.54C869.2 304.817 877.573 311.38 884.414 321.657C887.012 307.166 890.003 295.118 881.268 281.894Z" fill="#2F2E41"/>
<path d="M856.049 567.828C914.972 567.828 962.738 555.379 962.738 540.023C962.738 524.666 914.972 512.218 856.049 512.218C797.127 512.218 749.361 524.666 749.361 540.023C749.361 555.379 797.127 567.828 856.049 567.828Z" fill="#2F2E41"/>
<path d="M931.682 414.476C930.257 406.489 928.788 398.349 924.804 391.154C922.186 386.442 918.029 381.951 912.426 381.019C911.323 380.927 910.238 380.693 909.203 380.324C907.562 379.587 885.5 367.853 881.994 365.809C878.983 364.055 874.23 360.806 871.834 360.806C869.423 360.757 860.179 362.761 824.097 360.133C818.028 362.403 812.151 365.096 806.515 368.188C806.399 368.116 769.066 386.795 767.663 386.746C765.007 386.642 762.538 388.226 761.015 390.222C759.493 392.217 758.779 394.687 758.031 397.076C766.185 413.995 773.646 430.936 781.801 447.855C782.183 448.493 782.386 449.209 782.391 449.939C782.227 450.697 781.88 451.409 781.376 452.023C777.377 458.009 777.504 465.537 777.941 472.572C778.378 479.606 778.919 487.037 775.545 493.342C774.627 495.074 773.433 496.658 772.56 498.389C770.516 502.31 769.778 514.85 770.971 519.063L920.561 523.056C917.345 514.818 931.682 414.476 931.682 414.476Z" fill="#6C63FF"/>
<path d="M745.101 448.605C744.802 450.617 744.772 452.656 745.011 454.674L747.155 483.362C747.357 486.066 747.555 488.764 747.827 491.461C748.341 496.695 749.11 501.888 750.064 507.073C750.085 507.809 750.419 508.508 750.993 509.015C751.566 509.522 752.332 509.796 753.122 509.777C762.56 511.638 772.311 511.563 781.943 511.057C796.641 510.292 834.244 508.846 836.542 506.066C838.839 503.285 837.5 498.787 834.505 496.539C831.509 494.291 781.886 488.809 781.886 488.809C782.371 485.229 783.834 481.858 785.221 478.459C787.714 472.43 790.041 466.204 790.086 459.746C790.131 453.288 787.52 446.498 781.842 442.798C777.171 439.761 771.158 439.197 765.466 439.322C761.325 439.433 754.17 438.509 750.388 440.017C747.395 441.245 745.66 445.875 745.101 448.605Z" fill="#FBBEBE"/>
<path d="M931.948 513.455C934.432 512.573 937.17 512.892 939.833 513.226C948.406 514.317 957.105 515.437 965.051 518.627C968.781 520.116 972.333 522.103 974.855 525.028C977.091 527.663 978.398 530.888 979.637 534.065L982.502 541.378C983.721 544.125 984.56 547.005 985.002 549.949C985.897 558.701 979.473 566.952 971.393 571.498C963.313 576.045 953.801 577.664 944.534 579.36C935.267 581.056 925.965 582.932 916.736 584.921C912.431 585.962 908.064 586.763 903.657 587.319C893.779 588.361 883.454 586.826 874.068 589.87C870.337 591.087 866.674 592.894 862.805 593.735C860.233 594.239 857.632 594.608 855.015 594.841L837.252 596.731C833.639 597.181 830.003 597.441 826.359 597.509C818.6 597.509 810.968 595.798 803.433 594.086C802.633 593.955 801.871 593.668 801.197 593.245C800.003 592.369 799.742 590.819 799.57 589.415C798.809 583.2 798.144 576.979 797.573 570.751C797.394 568.728 797.26 566.538 798.446 564.836C799.939 562.752 802.849 562.097 805.505 561.693C816.767 559.977 828.177 559.239 839.586 559.49C843.92 555.451 851.068 555.43 856.746 553.233C858.834 552.339 860.856 551.315 862.797 550.168C872.953 544.647 884.302 541.306 896.019 540.387C898.314 540.322 900.593 540.019 902.816 539.484C907.209 538.212 911.217 534.749 915.73 535.598C916.289 534.159 916.678 532.233 917.967 531.246C918.606 530.739 919.399 530.398 919.989 529.856C921.235 528.681 921.347 526.832 921.16 525.192C920.973 523.551 920.555 521.869 921.01 520.27C921.2 519.665 921.479 519.087 921.839 518.553C924.069 514.957 927.449 513.108 931.948 513.455Z" fill="#2F2E41"/>
<path d="M757.6 397.591C756.873 398.3 756.309 399.14 755.944 400.059C749.913 412.722 746.351 426.285 745.424 440.112C745.441 440.786 745.274 441.453 744.939 442.052C744.61 442.45 744.243 442.819 743.843 443.157C743.494 443.542 743.23 443.987 743.066 444.468C742.902 444.948 742.841 445.454 742.887 445.956C742.933 446.458 743.084 446.947 743.333 447.394C743.581 447.842 743.922 448.239 744.335 448.564C744.403 448.618 744.473 448.669 744.544 448.718C745.775 446.56 748.722 445.854 751.341 445.667C763.882 444.742 776.133 450.178 788.711 449.768C787.824 446.911 786.548 444.165 785.824 441.274C782.623 428.435 790.606 414.456 785.712 402.089C784.734 399.614 783.101 397.181 780.527 396.097C779.461 395.697 778.346 395.422 777.207 395.278C774.029 394.743 767.701 392.456 764.628 393.374C763.494 393.715 763.047 394.708 762.106 395.309C760.678 396.159 758.783 396.471 757.6 397.591Z" fill="#6C63FF"/>
<path d="M931.772 440.017C927.989 438.509 920.835 439.433 916.693 439.322C911.002 439.197 904.989 439.761 900.318 442.798C894.64 446.498 892.029 453.288 892.074 459.746C892.118 466.204 894.446 472.43 896.938 478.459C898.326 481.858 899.788 485.229 900.273 488.809C900.273 488.809 850.651 494.291 847.655 496.539C844.66 498.787 843.321 503.285 845.618 506.066C847.916 508.846 919.6 511.638 929.037 509.777C929.828 509.796 930.594 509.522 931.167 509.015C931.74 508.508 932.075 507.809 932.096 507.073C933.05 501.888 933.818 496.695 934.333 491.461C934.605 488.764 934.803 486.066 935.005 483.362L937.149 454.674C937.388 452.656 937.358 450.617 937.059 448.605C936.5 445.875 934.765 441.245 931.772 440.017Z" fill="#FBBEBE"/>
<path d="M920.053 395.309C919.113 394.708 918.666 393.715 917.531 393.374C914.458 392.456 908.131 394.743 904.953 395.278C903.814 395.422 902.699 395.697 901.633 396.097C899.059 397.181 897.426 399.614 896.448 402.089C891.554 414.456 899.537 428.435 896.336 441.274C895.612 444.165 894.336 446.911 893.448 449.768C906.027 450.178 918.278 444.742 930.819 445.667C933.438 445.854 936.385 446.56 937.616 448.718C937.687 448.669 937.757 448.618 937.825 448.564C938.238 448.239 938.579 447.842 938.827 447.394C939.076 446.947 939.227 446.458 939.273 445.956C939.319 445.454 939.258 444.948 939.094 444.468C938.93 443.987 938.666 443.542 938.317 443.157C937.917 442.819 937.55 442.45 937.22 442.052C936.886 441.453 936.719 440.786 936.736 440.112C935.809 426.285 932.247 412.722 926.216 400.059C925.85 399.14 925.287 398.3 924.56 397.591C923.376 396.471 921.482 396.159 920.053 395.309Z" fill="#6C63FF"/>
<path d="M941.031 583.63L938.851 598.919L874.516 598.357L877.736 575.791L941.031 583.63Z" fill="#FFB6B6"/>
<path d="M957.495 581.7L950.462 631L949.793 630.917C944.331 630.241 939.381 627.57 936.032 623.494C932.683 619.417 931.209 614.268 931.934 609.178L931.935 609.177L936.23 579.066L957.495 581.7Z" fill="#2F2E41"/>
<path d="M789.679 521.193C789.679 521.888 788.508 521.193 788.401 520.449C787.58 514.825 782.79 510.188 777.209 507.936C771.629 505.684 765.272 505.565 759.229 506.101C750.09 506.907 739.831 510.167 736.489 518.126C735.698 519.987 728.29 536.554 729.013 540.28C730.96 550.221 738.257 558.722 747.098 564.61C755.939 570.498 766.269 574.015 776.574 577.188C803.818 585.56 831.77 591.78 860.134 595.783C864.73 596.43 869.371 597.027 873.772 598.403C877.711 599.634 881.397 601.476 885.247 602.922C894.2 606.271 903.832 607.468 913.374 608.643C915 608.838 916.865 608.976 918.067 607.948C919.619 606.608 919.105 604.27 918.663 602.345C917.044 595.024 918.403 587.403 922.476 580.963C924.074 578.461 926.151 575.895 925.849 572.999C925.491 569.621 921.879 567.23 918.283 566.687C914.687 566.145 911.032 566.945 907.42 567.382C906.182 567.647 904.885 567.528 903.727 567.042C903.19 566.704 902.703 566.302 902.279 565.846C899.792 563.61 896.608 562.166 893.185 561.72C889.762 561.274 886.275 561.85 883.225 563.365C881.889 564.06 879.87 562.51 878.48 561.926L862.789 555.308C844.764 547.711 826.65 540.078 807.58 535.268C806.058 534.989 804.612 534.428 803.327 533.62C802.38 532.925 801.701 531.982 800.828 531.208C798.925 529.532 796.275 528.865 793.994 527.676C791.713 526.487 789.156 523.577 789.679 521.193Z" fill="#2F2E41"/>
<path d="M830.296 511.147C836.472 511.147 841.479 506.482 841.479 500.728C841.479 494.973 836.472 490.308 830.296 490.308C824.12 490.308 819.113 494.973 819.113 500.728C819.113 506.482 824.12 511.147 830.296 511.147Z" fill="#FBBEBE"/>
<path d="M855.059 511.147C861.235 511.147 866.242 506.482 866.242 500.728C866.242 494.973 861.235 490.308 855.059 490.308C848.883 490.308 843.876 494.973 843.876 500.728C843.876 506.482 848.883 511.147 855.059 511.147Z" fill="#FBBEBE"/>
<path d="M924.091 524.207H770.449C768.656 524.205 766.936 523.54 765.667 522.359C764.399 521.177 763.685 519.575 763.683 517.903V431.058C763.685 429.386 764.399 427.784 765.667 426.602C766.936 425.421 768.656 424.756 770.449 424.754H924.091C925.884 424.756 927.604 425.421 928.872 426.602C930.141 427.784 930.854 429.386 930.857 431.058V517.903C930.854 519.575 930.141 521.177 928.872 522.359C927.604 523.54 925.884 524.205 924.091 524.207Z" fill="#3F3D56"/>
<path d="M846.897 478.652C849.37 478.652 851.374 476.784 851.374 474.481C851.374 472.177 849.37 470.31 846.897 470.31C844.425 470.31 842.421 472.177 842.421 474.481C842.421 476.784 844.425 478.652 846.897 478.652Z" fill="white"/>
</svg>
