<svg width="229" height="80" viewBox="0 0 229 80" fill="none" xmlns="http://www.w3.org/2000/svg">
<path d="M1.73844 69.2C1.73844 67.2773 2.16777 65.56 3.02644 64.048C3.90377 62.5173 5.0891 61.332 6.58244 60.492C8.09444 59.6333 9.78377 59.204 11.6504 59.204C13.8344 59.204 15.7478 59.764 17.3904 60.884C19.0331 62.004 20.1811 63.5533 20.8344 65.532H16.3264C15.8784 64.5987 15.2438 63.8987 14.4224 63.432C13.6198 62.9653 12.6864 62.732 11.6224 62.732C10.4838 62.732 9.46644 63.0027 8.57044 63.544C7.69311 64.0667 7.00244 64.8133 6.49844 65.784C6.0131 66.7547 5.77044 67.8933 5.77044 69.2C5.77044 70.488 6.0131 71.6267 6.49844 72.616C7.00244 73.5867 7.69311 74.3427 8.57044 74.884C9.46644 75.4067 10.4838 75.668 11.6224 75.668C12.6864 75.668 13.6198 75.4347 14.4224 74.968C15.2438 74.4827 15.8784 73.7733 16.3264 72.84H20.8344C20.1811 74.8373 19.0331 76.396 17.3904 77.516C15.7664 78.6173 13.8531 79.168 11.6504 79.168C9.78377 79.168 8.09444 78.748 6.58244 77.908C5.0891 77.0493 3.90377 75.864 3.02644 74.352C2.16777 72.84 1.73844 71.1227 1.73844 69.2ZM34.6826 75.892H41.1226V79H30.7626V59.456H34.6826V75.892ZM62.1782 75.276H54.3942L53.1062 79H48.9902L56.0182 59.428H60.5822L67.6102 79H63.4662L62.1782 75.276ZM61.1142 72.14L58.2862 63.964L55.4582 72.14H61.1142ZM83.5652 79.196C82.2025 79.196 80.9705 78.9627 79.8692 78.496C78.7865 78.0293 77.9278 77.3573 77.2932 76.48C76.6585 75.6027 76.3318 74.5667 76.3132 73.372H80.5132C80.5692 74.1747 80.8492 74.8093 81.3532 75.276C81.8758 75.7427 82.5852 75.976 83.4812 75.976C84.3958 75.976 85.1145 75.7613 85.6372 75.332C86.1598 74.884 86.4212 74.3053 86.4212 73.596C86.4212 73.0173 86.2438 72.5413 85.8892 72.168C85.5345 71.7947 85.0865 71.5053 84.5452 71.3C84.0225 71.076 83.2945 70.8333 82.3612 70.572C81.0918 70.1987 80.0558 69.8347 79.2532 69.48C78.4692 69.1067 77.7878 68.556 77.2092 67.828C76.6492 67.0813 76.3692 66.092 76.3692 64.86C76.3692 63.7027 76.6585 62.6947 77.2372 61.836C77.8158 60.9773 78.6278 60.324 79.6732 59.876C80.7185 59.4093 81.9132 59.176 83.2572 59.176C85.2732 59.176 86.9065 59.6707 88.1572 60.66C89.4265 61.6307 90.1265 62.9933 90.2572 64.748H85.9452C85.9078 64.076 85.6185 63.5253 85.0772 63.096C84.5545 62.648 83.8545 62.424 82.9772 62.424C82.2118 62.424 81.5958 62.62 81.1292 63.012C80.6812 63.404 80.4572 63.9733 80.4572 64.72C80.4572 65.2427 80.6252 65.6813 80.9612 66.036C81.3158 66.372 81.7452 66.652 82.2492 66.876C82.7718 67.0813 83.4998 67.324 84.4332 67.604C85.7025 67.9773 86.7385 68.3507 87.5412 68.724C88.3438 69.0973 89.0345 69.6573 89.6132 70.404C90.1918 71.1507 90.4812 72.1307 90.4812 73.344C90.4812 74.3893 90.2105 75.36 89.6692 76.256C89.1278 77.152 88.3345 77.8707 87.2892 78.412C86.2438 78.9347 85.0025 79.196 83.5652 79.196ZM107.208 79.196C105.845 79.196 104.613 78.9627 103.512 78.496C102.429 78.0293 101.57 77.3573 100.936 76.48C100.301 75.6027 99.9743 74.5667 99.9557 73.372H104.156C104.212 74.1747 104.492 74.8093 104.996 75.276C105.518 75.7427 106.228 75.976 107.124 75.976C108.038 75.976 108.757 75.7613 109.28 75.332C109.802 74.884 110.064 74.3053 110.064 73.596C110.064 73.0173 109.886 72.5413 109.532 72.168C109.177 71.7947 108.729 71.5053 108.188 71.3C107.665 71.076 106.937 70.8333 106.004 70.572C104.734 70.1987 103.698 69.8347 102.896 69.48C102.112 69.1067 101.43 68.556 100.852 67.828C100.292 67.0813 100.012 66.092 100.012 64.86C100.012 63.7027 100.301 62.6947 100.88 61.836C101.458 60.9773 102.27 60.324 103.316 59.876C104.361 59.4093 105.556 59.176 106.9 59.176C108.916 59.176 110.549 59.6707 111.8 60.66C113.069 61.6307 113.769 62.9933 113.9 64.748H109.588C109.55 64.076 109.261 63.5253 108.72 63.096C108.197 62.648 107.497 62.424 106.62 62.424C105.854 62.424 105.238 62.62 104.772 63.012C104.324 63.404 104.1 63.9733 104.1 64.72C104.1 65.2427 104.268 65.6813 104.604 66.036C104.958 66.372 105.388 66.652 105.892 66.876C106.414 67.0813 107.142 67.324 108.076 67.604C109.345 67.9773 110.381 68.3507 111.184 68.724C111.986 69.0973 112.677 69.6573 113.256 70.404C113.834 71.1507 114.124 72.1307 114.124 73.344C114.124 74.3893 113.853 75.36 113.312 76.256C112.77 77.152 111.977 77.8707 110.932 78.412C109.886 78.9347 108.645 79.196 107.208 79.196ZM134.182 79L129.87 71.384H128.022V79H124.102V59.456H131.438C132.95 59.456 134.238 59.7267 135.302 60.268C136.366 60.7907 137.159 61.5093 137.682 62.424C138.223 63.32 138.494 64.328 138.494 65.448C138.494 66.736 138.121 67.9027 137.374 68.948C136.627 69.9747 135.517 70.684 134.042 71.076L138.718 79H134.182ZM128.022 68.444H131.298C132.362 68.444 133.155 68.192 133.678 67.688C134.201 67.1653 134.462 66.4467 134.462 65.532C134.462 64.636 134.201 63.9453 133.678 63.46C133.155 62.956 132.362 62.704 131.298 62.704H128.022V68.444ZM157.692 79.196C155.862 79.196 154.182 78.7667 152.652 77.908C151.121 77.0493 149.908 75.864 149.012 74.352C148.116 72.8213 147.668 71.0947 147.668 69.172C147.668 67.268 148.116 65.56 149.012 64.048C149.908 62.5173 151.121 61.3227 152.652 60.464C154.182 59.6053 155.862 59.176 157.692 59.176C159.54 59.176 161.22 59.6053 162.732 60.464C164.262 61.3227 165.466 62.5173 166.344 64.048C167.24 65.56 167.688 67.268 167.688 69.172C167.688 71.0947 167.24 72.8213 166.344 74.352C165.466 75.864 164.262 77.0493 162.732 77.908C161.201 78.7667 159.521 79.196 157.692 79.196ZM157.692 75.696C158.868 75.696 159.904 75.4347 160.8 74.912C161.696 74.3707 162.396 73.6053 162.9 72.616C163.404 71.6267 163.656 70.4787 163.656 69.172C163.656 67.8653 163.404 66.7267 162.9 65.756C162.396 64.7667 161.696 64.0107 160.8 63.488C159.904 62.9653 158.868 62.704 157.692 62.704C156.516 62.704 155.47 62.9653 154.556 63.488C153.66 64.0107 152.96 64.7667 152.456 65.756C151.952 66.7267 151.7 67.8653 151.7 69.172C151.7 70.4787 151.952 71.6267 152.456 72.616C152.96 73.6053 153.66 74.3707 154.556 74.912C155.47 75.4347 156.516 75.696 157.692 75.696ZM186.256 79.196C184.427 79.196 182.747 78.7667 181.216 77.908C179.685 77.0493 178.472 75.864 177.576 74.352C176.68 72.8213 176.232 71.0947 176.232 69.172C176.232 67.268 176.68 65.56 177.576 64.048C178.472 62.5173 179.685 61.3227 181.216 60.464C182.747 59.6053 184.427 59.176 186.256 59.176C188.104 59.176 189.784 59.6053 191.296 60.464C192.827 61.3227 194.031 62.5173 194.908 64.048C195.804 65.56 196.252 67.268 196.252 69.172C196.252 71.0947 195.804 72.8213 194.908 74.352C194.031 75.864 192.827 77.0493 191.296 77.908C189.765 78.7667 188.085 79.196 186.256 79.196ZM186.256 75.696C187.432 75.696 188.468 75.4347 189.364 74.912C190.26 74.3707 190.96 73.6053 191.464 72.616C191.968 71.6267 192.22 70.4787 192.22 69.172C192.22 67.8653 191.968 66.7267 191.464 65.756C190.96 64.7667 190.26 64.0107 189.364 63.488C188.468 62.9653 187.432 62.704 186.256 62.704C185.08 62.704 184.035 62.9653 183.12 63.488C182.224 64.0107 181.524 64.7667 181.02 65.756C180.516 66.7267 180.264 67.8653 180.264 69.172C180.264 70.4787 180.516 71.6267 181.02 72.616C181.524 73.6053 182.224 74.3707 183.12 74.912C184.035 75.4347 185.08 75.696 186.256 75.696ZM227.056 59.456V79H223.136V66.288L217.9 79H214.932L209.668 66.288V79H205.748V59.456H210.2L216.416 73.988L222.632 59.456H227.056Z" fill="#1E10F5"/>
<path d="M0.804 3.1H8.241L13.065 39.481H13.199L18.023 3.1H24.79L17.688 50H7.906L0.804 3.1ZM43.405 3.1H63.505V9.8H50.775V22.195H60.892V28.895H50.775V43.3H63.505V50H43.405V3.1ZM93.2049 50.67C89.6762 50.67 86.9739 49.665 85.0979 47.655C83.2665 45.645 82.3509 42.8087 82.3509 39.146V13.954C82.3509 10.2913 83.2665 7.455 85.0979 5.445C86.9739 3.435 89.6762 2.43 93.2049 2.43C96.7335 2.43 99.4135 3.435 101.245 5.445C103.121 7.455 104.059 10.2913 104.059 13.954V18.912H97.0909V13.485C97.0909 10.5817 95.8625 9.13 93.4059 9.13C90.9492 9.13 89.7209 10.5817 89.7209 13.485V39.682C89.7209 42.5407 90.9492 43.97 93.4059 43.97C95.8625 43.97 97.0909 42.5407 97.0909 39.682V32.513H104.059V39.146C104.059 42.8087 103.121 45.645 101.245 47.655C99.4135 49.665 96.7335 50.67 93.2049 50.67ZM129.305 9.8H121.6V3.1H144.38V9.8H136.675V50H129.305V9.8ZM173.415 50.67C169.797 50.67 167.028 49.6427 165.107 47.588C163.186 45.5333 162.226 42.63 162.226 38.878V14.222C162.226 10.47 163.186 7.56666 165.107 5.512C167.028 3.45733 169.797 2.43 173.415 2.43C177.033 2.43 179.802 3.45733 181.723 5.512C183.644 7.56666 184.604 10.47 184.604 14.222V38.878C184.604 42.63 183.644 45.5333 181.723 47.588C179.802 49.6427 177.033 50.67 173.415 50.67ZM173.415 43.97C175.961 43.97 177.234 42.429 177.234 39.347V13.753C177.234 10.671 175.961 9.13 173.415 9.13C170.869 9.13 169.596 10.671 169.596 13.753V39.347C169.596 42.429 170.869 43.97 173.415 43.97ZM204.663 3.1H215.584C219.381 3.1 222.15 3.99333 223.892 5.78C225.634 7.522 226.505 10.2243 226.505 13.887V16.768C226.505 21.6367 224.897 24.7187 221.681 26.014V26.148C223.468 26.684 224.718 27.7783 225.433 29.431C226.192 31.0837 226.572 33.2947 226.572 36.064V44.305C226.572 45.645 226.617 46.7393 226.706 47.588C226.795 48.392 227.019 49.196 227.376 50H219.872C219.604 49.2407 219.425 48.526 219.336 47.856C219.247 47.186 219.202 45.98 219.202 44.238V35.662C219.202 33.518 218.845 32.0217 218.13 31.173C217.46 30.3243 216.276 29.9 214.579 29.9H212.033V50H204.663V3.1ZM214.713 23.2C216.187 23.2 217.281 22.8203 217.996 22.061C218.755 21.3017 219.135 20.0287 219.135 18.242V14.624C219.135 12.9267 218.822 11.6983 218.197 10.939C217.616 10.1797 216.678 9.8 215.383 9.8H212.033V23.2H214.713Z" fill="black"/>
</svg>
