<svg width="816" height="529" viewBox="0 0 816 529" fill="none" xmlns="http://www.w3.org/2000/svg">
<path d="M753.238 0H49.0984C46.5533 -3.22741e-06 44.0331 0.559351 41.6817 1.64613C39.3303 2.7329 37.1937 4.32581 35.3941 6.33391C33.5944 8.34201 32.1668 10.726 31.1928 13.3497C30.2189 15.9734 29.7175 18.7855 29.7175 21.6254V459.395C29.7175 462.235 30.2188 465.047 31.1928 467.671C32.1668 470.295 33.5944 472.679 35.3941 474.687C37.1937 476.695 39.3303 478.288 41.6817 479.374C44.0331 480.461 46.5533 481.021 49.0984 481.021H753.238C758.378 481.021 763.308 478.742 766.942 474.687C770.577 470.631 772.619 465.131 772.619 459.395V21.6254C772.619 15.89 770.577 10.3895 766.942 6.33393C763.308 2.27838 758.378 3.25903e-06 753.238 0V0Z" fill="#3F3D56"/>
<path d="M747.305 38.135H55.0315V473.638H747.305V38.135Z" fill="white"/>
<path d="M401.164 25.8372C405.115 25.8372 408.317 22.5324 408.317 18.4558C408.317 14.3792 405.115 11.0744 401.164 11.0744C397.213 11.0744 394.01 14.3792 394.01 18.4558C394.01 22.5324 397.213 25.8372 401.164 25.8372Z" fill="white"/>
<path d="M792.404 465.407H724.924V459.958C724.924 459.816 724.899 459.675 724.851 459.544C724.802 459.413 724.731 459.294 724.642 459.194C724.552 459.093 724.446 459.014 724.329 458.959C724.212 458.905 724.087 458.877 723.96 458.877H700.824C700.697 458.877 700.572 458.905 700.455 458.959C700.338 459.014 700.232 459.093 700.142 459.193C700.053 459.294 699.982 459.413 699.933 459.544C699.885 459.675 699.86 459.816 699.86 459.957V465.407H685.4V459.958C685.4 459.816 685.375 459.675 685.327 459.544C685.278 459.413 685.207 459.294 685.118 459.193C685.028 459.093 684.922 459.014 684.805 458.959C684.688 458.905 684.563 458.877 684.436 458.877H661.3C661.174 458.877 661.048 458.905 660.931 458.959C660.815 459.014 660.708 459.093 660.619 459.194C660.529 459.294 660.458 459.413 660.41 459.544C660.361 459.675 660.336 459.816 660.336 459.958V459.958V465.407H645.877V459.958C645.877 459.816 645.852 459.675 645.803 459.544C645.755 459.413 645.684 459.294 645.594 459.194C645.505 459.093 645.398 459.014 645.281 458.959C645.164 458.905 645.039 458.877 644.913 458.877H621.777C621.65 458.877 621.525 458.905 621.408 458.959C621.291 459.014 621.184 459.093 621.095 459.193C621.005 459.294 620.934 459.413 620.886 459.544C620.837 459.675 620.813 459.816 620.813 459.958V459.958V465.407H606.353V459.958C606.353 459.816 606.328 459.675 606.279 459.544C606.231 459.413 606.16 459.294 606.07 459.193C605.981 459.093 605.875 459.014 605.758 458.959C605.641 458.905 605.515 458.877 605.389 458.877H582.253C582.126 458.877 582.001 458.905 581.884 458.959C581.767 459.014 581.661 459.093 581.571 459.193C581.482 459.294 581.411 459.413 581.362 459.544C581.314 459.675 581.289 459.816 581.289 459.957V465.407H566.829V459.958C566.829 459.816 566.804 459.675 566.756 459.544C566.707 459.413 566.636 459.294 566.547 459.193C566.457 459.093 566.351 459.014 566.234 458.959C566.117 458.905 565.992 458.877 565.865 458.877H542.729C542.602 458.877 542.477 458.905 542.36 458.959C542.243 459.014 542.137 459.093 542.047 459.194C541.958 459.294 541.887 459.413 541.838 459.544C541.79 459.675 541.765 459.816 541.765 459.958V459.958V465.407H527.305V459.958C527.305 459.816 527.28 459.675 527.232 459.544C527.183 459.413 527.112 459.294 527.023 459.194C526.933 459.093 526.827 459.014 526.71 458.959C526.593 458.905 526.468 458.877 526.341 458.877H503.205C503.079 458.877 502.953 458.905 502.836 458.959C502.719 459.014 502.613 459.093 502.524 459.193C502.434 459.294 502.363 459.413 502.315 459.544C502.266 459.675 502.241 459.816 502.241 459.958V459.958V465.407H487.781V459.958C487.781 459.816 487.756 459.675 487.708 459.544C487.66 459.413 487.589 459.294 487.499 459.193C487.409 459.093 487.303 459.014 487.186 458.959C487.069 458.905 486.944 458.877 486.817 458.877H305.586C305.46 458.877 305.334 458.905 305.217 458.959C305.1 459.014 304.994 459.093 304.905 459.194C304.815 459.294 304.744 459.413 304.696 459.544C304.647 459.675 304.622 459.816 304.622 459.958V459.958V465.407H290.162V459.958C290.162 459.816 290.137 459.675 290.089 459.544C290.041 459.413 289.97 459.294 289.88 459.194C289.791 459.093 289.684 459.014 289.567 458.959C289.45 458.905 289.325 458.877 289.198 458.877H266.063C265.936 458.877 265.811 458.905 265.694 458.959C265.577 459.014 265.47 459.093 265.381 459.193C265.291 459.294 265.22 459.413 265.172 459.544C265.124 459.675 265.099 459.816 265.099 459.958V459.958V465.407H250.639V459.958C250.639 459.816 250.614 459.675 250.565 459.544C250.517 459.413 250.446 459.294 250.356 459.194C250.267 459.093 250.161 459.014 250.044 458.959C249.927 458.905 249.801 458.877 249.675 458.877H226.539C226.412 458.877 226.287 458.905 226.17 458.959C226.053 459.014 225.947 459.093 225.857 459.194C225.768 459.294 225.697 459.413 225.648 459.544C225.6 459.675 225.575 459.816 225.575 459.958V459.958V465.407H211.115V459.958C211.115 459.816 211.09 459.675 211.041 459.544C210.993 459.413 210.922 459.294 210.832 459.194C210.743 459.093 210.637 459.014 210.52 458.959C210.403 458.905 210.277 458.877 210.151 458.877H187.015C186.888 458.877 186.763 458.905 186.646 458.959C186.529 459.014 186.423 459.093 186.333 459.193C186.244 459.294 186.173 459.413 186.124 459.544C186.076 459.675 186.051 459.816 186.051 459.958V459.958V465.407H171.591V459.958C171.591 459.816 171.566 459.675 171.518 459.544C171.469 459.413 171.398 459.294 171.309 459.194C171.219 459.093 171.113 459.014 170.996 458.959C170.879 458.905 170.754 458.877 170.627 458.877H147.491C147.365 458.877 147.239 458.905 147.122 458.959C147.005 459.014 146.899 459.093 146.81 459.193C146.72 459.294 146.649 459.413 146.601 459.544C146.552 459.675 146.527 459.816 146.527 459.958V459.958V465.407H132.067V459.958C132.067 459.816 132.042 459.675 131.994 459.544C131.945 459.413 131.874 459.294 131.785 459.193C131.695 459.093 131.589 459.014 131.472 458.959C131.355 458.905 131.23 458.877 131.103 458.877H107.967C107.712 458.877 107.467 458.991 107.286 459.193C107.105 459.396 107.003 459.671 107.003 459.957V465.407H92.5435V459.958C92.5435 459.816 92.5186 459.675 92.4701 459.544C92.4217 459.413 92.3507 459.294 92.2612 459.194C92.1717 459.093 92.0654 459.014 91.9484 458.959C91.8315 458.905 91.7061 458.877 91.5795 458.877H68.4436C68.188 458.877 67.9428 458.991 67.762 459.194C67.5812 459.396 67.4797 459.671 67.4797 459.958V465.407H23.1358C16.9998 465.407 11.1152 468.14 6.77634 473.003C2.43753 477.866 0 484.463 0 491.34V503.067C1.46144e-05 509.945 2.43753 516.541 6.77634 521.404C11.1151 526.268 16.9998 529 23.1358 529H792.404C798.54 529 804.424 526.268 808.763 521.404C813.102 516.541 815.539 509.945 815.539 503.067V491.34C815.539 487.935 814.941 484.563 813.778 481.416C812.616 478.27 810.911 475.411 808.763 473.003C806.615 470.595 804.064 468.685 801.257 467.381C798.45 466.078 795.442 465.407 792.404 465.407V465.407Z" fill="#3F3D56"/>
<path d="M156.281 428.121C192.751 428.121 222.316 394.798 222.316 353.692C222.316 312.586 192.751 279.263 156.281 279.263C119.81 279.263 90.2451 312.586 90.2451 353.692C90.2451 394.798 119.81 428.121 156.281 428.121Z" fill="#6C63FF"/>
<path d="M171.698 431.813C155.372 431.813 139.413 426.402 125.838 416.263C112.264 406.125 101.684 391.715 95.4362 374.855C89.1886 357.995 87.5539 339.443 90.739 321.545C93.924 303.647 101.786 287.207 113.33 274.303C124.874 261.399 139.582 252.611 155.594 249.051C171.606 245.491 188.203 247.318 203.286 254.302C218.369 261.285 231.261 273.111 240.331 288.285C249.401 303.458 254.242 321.297 254.242 339.546C254.242 351.663 252.107 363.661 247.959 374.855C243.811 386.05 237.731 396.221 230.066 404.789C222.401 413.357 213.301 420.153 203.286 424.79C193.271 429.427 182.538 431.813 171.698 431.813V431.813ZM171.698 248.484C155.585 248.484 139.835 253.825 126.438 263.831C113.041 273.837 102.599 288.059 96.433 304.698C90.2671 321.337 88.6538 339.647 91.7971 357.311C94.9405 374.975 102.699 391.201 114.093 403.936C125.486 416.671 140.002 425.344 155.804 428.857C171.607 432.371 187.987 430.568 202.873 423.676C217.759 416.783 230.482 405.112 239.434 390.137C248.385 375.162 253.163 357.556 253.163 339.546C253.163 327.587 251.056 315.746 246.962 304.698C242.868 293.65 236.867 283.612 229.303 275.156C221.738 266.7 212.757 259.992 202.873 255.416C192.989 250.84 182.396 248.484 171.698 248.484L171.698 248.484Z" fill="#3F3D56"/>
<path d="M135.367 99.6496H108.953V129.175H135.367V99.6496Z" fill="#6C63FF"/>
<path d="M644.949 365.38H580.014V380.143H644.949V365.38Z" fill="#3F3D56"/>
<path d="M705.478 346.927H518.376V353.079H705.478V346.927Z" fill="#3F3D56"/>
<path d="M705.478 323.553H518.376V329.705H705.478V323.553Z" fill="#3F3D56"/>
<path d="M705.478 296.488H518.376V302.639H705.478V296.488Z" fill="#3F3D56"/>
<path d="M396.466 132.61C387.981 132.641 382.098 133.476 374.987 134.849C353.988 138.936 350.163 147.518 350.163 163.335V187.509H399.277V199.709H348.297H324.558C310.173 199.709 297.584 207.285 293.595 225.444C289.087 246.287 288.885 259.341 293.595 281.106C297.169 297.337 305.044 309.507 319.434 309.507H339.254V278.373C339.254 260.281 353.912 242.408 370.709 242.408H410.196C423.965 242.408 437.482 231.05 437.482 215.709V163.335C437.482 148.458 427.883 137.331 414.464 134.836C414.797 134.8 404.881 132.573 396.466 132.61ZM369.268 157.01C373.748 157.01 377.454 161.139 377.454 166.172C377.454 171.253 373.748 175.309 369.268 175.309C364.701 175.309 361.083 171.259 361.083 166.172C361.083 161.157 364.701 157.01 369.268 157.01Z" fill="url(#paint0_linear_231_77)"/>
<path d="M391.179 364.406C399.665 364.375 405.547 363.54 412.658 362.167C433.657 358.08 437.482 349.498 437.482 333.681V309.507H388.368V297.307H439.354H463.093C477.478 297.307 490.067 289.731 494.056 271.572C498.564 250.728 498.766 237.674 494.056 215.91C490.476 199.678 482.602 187.509 468.211 187.509H448.391V218.643C448.391 236.735 433.733 254.608 416.936 254.608H377.449C363.68 254.608 350.163 265.966 350.163 281.307V333.681C350.163 348.558 359.762 359.684 373.181 362.179C372.848 362.216 382.764 364.442 391.179 364.406ZM418.382 340.006C413.902 340.006 410.197 335.877 410.197 330.844C410.197 325.763 413.902 321.707 418.382 321.707C422.95 321.707 426.568 325.757 426.568 330.844C426.568 335.858 422.945 340.006 418.382 340.006Z" fill="url(#paint1_linear_231_77)"/>
<defs>
<linearGradient id="paint0_linear_231_77" x1="322.31" y1="181.238" x2="416.617" y2="252.034" gradientUnits="userSpaceOnUse">
<stop stop-color="#6C63FF"/>
<stop offset="1" stop-color="#086DBF"/>
</linearGradient>
<linearGradient id="paint1_linear_231_77" x1="458.061" y1="333.363" x2="383.599" y2="238.223" gradientUnits="userSpaceOnUse">
<stop stop-color="#6C63FF"/>
<stop offset="1" stop-color="#322EE2"/>
</linearGradient>
</defs>
</svg>
